<?xml version="1.0" encoding="UTF-8"?>
<svg width="328px" height="431px" viewBox="0 0 328 431" version="1.1" xmlns="http://www.w3.org/2000/svg" xmlns:xlink="http://www.w3.org/1999/xlink">
    <!-- Generator: Sketch 61.2 (89653) - https://sketch.com -->
    <title>connectivity-left</title>
    <desc>Created with Sketch.</desc>
    <g id="Page-1" stroke="none" stroke-width="1" fill="none" fill-rule="evenodd">
        <g id="LinksRez---Lifestyle" transform="translate(0.000000, -149.000000)">
            <g id="Hero" transform="translate(-231.000000, -19.000000)">
                <g id="connectivity-left" transform="translate(0.000000, 167.000000)">
                    <polygon id="Fill-1" fill="#6A6AC8" points="282.4712 71.3967 257.2812 27.7637 208.5532 27.7637 208.5532 28.5897 256.8032 28.5897 281.5162 71.3967"></polygon>
                    <polygon id="Fill-2" fill="#6A6AC8" points="311.2632 71.3967 279.6822 16.6937 278.7272 16.6937 310.3072 71.3967"></polygon>
                    <polygon id="Fill-3" fill="#6A6AC8" points="299.3608 133.8337 299.4798 133.6267 263.3768 71.0907 263.2568 70.8837 190.8078 70.8837 155.2418 132.4897 156.1968 132.4897 191.2858 71.7097 262.7798 71.7097 298.5248 133.6267 264.1838 193.1077 265.1378 193.1077"></polygon>
                    <polygon id="Fill-4" fill="#6A6AC8" points="279.4966 210.3063 279.4376 210.2053 278.4826 210.2053 278.5416 210.3063 253.0476 254.4673 202.0546 254.4673 176.5586 210.3063 176.6166 210.2053 175.6616 210.2053 175.6026 210.3063 201.5766 255.2923 253.5246 255.2923"></polygon>
                    <polygon id="Fill-8" fill="#6A6AC8" points="253.5385 163.5446 211.4185 236.5006 134.0845 236.5006 134.0845 237.3256 211.8955 237.3256 254.3745 163.7516 254.4935 163.5446 212.0165 89.9696 211.8955 89.7636 126.6985 89.7636 84.9055 162.1506 85.8605 162.1506 127.1765 90.5896 211.4185 90.5896"></polygon>
                    <polygon id="Fill-11" fill="#6A6AC8" points="149.6489 302.9377 204.2099 302.9377 234.2629 354.9907 204.2099 407.0477 149.6489 407.0477 149.6489 407.8737 204.6869 407.8737 235.2189 354.9907 204.6869 302.1117 149.6489 302.1117"></polygon>
                    <polygon id="Fill-13" fill="#6A6AC8" points="259.2319 355.1965 259.3509 354.9905 221.2519 289.0005 220.2969 289.0005 258.3959 354.9905 222.7129 416.7985 223.6689 416.7985"></polygon>
                    <polygon id="Fill-14" fill="#6A6AC8" points="286.1694 250.1423 309.1584 210.3213 353.3074 210.3213 353.3074 209.4953 308.6814 209.4953 285.2144 250.1423"></polygon>
                    <polygon id="Fill-18" fill="#6A6AC8" points="407.5444 372.1984 406.5894 372.1984 381.3014 415.9984 330.3084 415.9984 304.8144 371.8384 329.8804 328.4194 328.9264 328.4194 303.8584 371.8384 329.8304 416.8244 381.7784 416.8244"></polygon>
                    <polygon id="Fill-19" fill="#6A6AC8" points="318.6128 312.4875 317.6588 312.4875 283.7358 371.2435 283.6168 371.4505 315.9788 427.5065 316.9328 427.5065 284.5718 371.4505"></polygon>
                    <polygon id="Fill-20" fill="#6A6AC8" points="281.7924 284.4611 281.6734 284.6671 317.7764 347.2041 317.8964 347.4101 390.3454 347.4101 425.9114 285.8051 424.9564 285.8051 389.8674 346.5851 318.3734 346.5851 282.6284 284.6671 316.9694 225.1871 316.0154 225.1871"></polygon>
                    <polygon id="Fill-21" fill="#6A6AC8" points="301.6567 207.9885 301.7157 208.0895 302.6707 208.0895 302.6117 207.9885 328.1057 163.8285 379.0987 163.8285 404.5947 207.9885 404.5367 208.0895 405.4917 208.0895 405.5507 207.9885 379.5767 163.0025 327.6287 163.0025"></polygon>
                    <polygon id="Fill-22" fill="#6A6AC8" points="472.4848 254.3732 472.6768 254.7062 443.0578 306.0112 444.0118 306.0112 473.6318 254.7062 473.4398 254.3732"></polygon>
                    <polygon id="Fill-23" fill="#6A6AC8" points="351.5044 254.7063 381.1244 306.0113 382.0784 306.0113 352.4594 254.7063 381.6654 204.1173 380.7114 204.1173"></polygon>
                    <polygon id="Fill-24" fill="#6A6AC8" points="496.2475 256.1438 495.2925 256.1438 453.9765 327.7058 369.7345 327.7058 327.6455 254.8048 326.6905 254.8048 369.1375 328.3248 369.2575 328.5308 454.4545 328.5308"></polygon>
                    <polygon id="Fill-25" fill="#6A6AC8" points="493.5004 161.4763 493.6194 161.2703 451.9274 89.0553 450.9724 89.0553 492.6644 161.2703 450.5444 234.2293 370.0654 234.2293 370.0654 235.0553 451.0214 235.0553"></polygon>
                    <polygon id="Fill-26" fill="#6A6AC8" points="431.5043 115.3571 376.9433 115.3571 346.8903 63.3041 376.9433 11.2471 431.5043 11.2471 431.5043 10.4211 376.4663 10.4211 345.9343 63.3041 376.4663 116.1831 431.5043 116.1831"></polygon>
                    <polygon id="Fill-27" fill="#6A6AC8" points="488.8237 1.4954 453.1417 63.3034 453.2607 63.5104 491.2407 129.2944 492.1947 129.2944 454.0967 63.3034 489.7787 1.4954"></polygon>
                    <polygon id="Fill-29" fill="#6A6AC8" points="357.4849 1.4954 321.9209 63.0974 321.8029 63.3034 359.9019 129.2944 360.8559 129.2944 322.7579 63.3034 358.4399 1.4954"></polygon>
                    <polygon id="Fill-30" fill="#6A6AC8" points="370.4223 180.5871 393.2623 141.0251 439.3893 141.0251 462.4543 180.9761 462.2553 181.3211 463.2103 181.3211 463.4093 180.9761 439.8663 140.1991 392.7843 140.1991 369.4673 180.5871"></polygon>
                    <polygon id="Fill-31" fill="#6A6AC8" points="517.267 200.1452 540.2 160.4242 517.205 120.5952 516.25 120.5952 539.244 160.4242 516.313 200.1452"></polygon>
                    <polygon id="Fill-32" fill="#6A6AC8" points="460.2928 103.5743 427.6188 160.1653 428.5738 160.1653 460.7698 104.4003 525.4608 104.4003 557.8068 160.4233 525.8998 215.6883 526.8548 215.6883 558.6418 160.6303 558.7618 160.4233 526.0598 103.7813 525.9388 103.5743"></polygon>
                    <g id="Group-118" transform="translate(36.000000, 0.705000)">
                        <path d="M334.6147,183.1634 C332.3257,183.1634 330.4697,181.3074 330.4697,179.0184 C330.4697,176.7294 332.3257,174.8734 334.6147,174.8734 C336.9037,174.8734 338.7597,176.7294 338.7597,179.0184 C338.7597,181.3074 336.9037,183.1634 334.6147,183.1634" id="Fill-33" fill="#6A6AC8"></path>
                        <path d="M345.6655,207.5574 C343.3765,207.5574 341.5205,205.7024 341.5205,203.4124 C341.5205,201.1234 343.3765,199.2674 345.6655,199.2674 C347.9545,199.2674 349.8115,201.1234 349.8115,203.4124 C349.8115,205.7024 347.9545,207.5574 345.6655,207.5574" id="Fill-35" fill="#6A6AC8"></path>
                        <path d="M369.4916,211.5296 C367.2026,211.5296 365.3466,209.6736 365.3466,207.3846 C365.3466,205.0956 367.2026,203.2396 369.4916,203.2396 C371.7816,203.2396 373.6376,205.0956 373.6376,207.3846 C373.6376,209.6736 371.7816,211.5296 369.4916,211.5296" id="Fill-37" fill="#6A6AC8"></path>
                        <path d="M392.5131,163.346 C390.2241,163.346 388.3671,161.49 388.3671,159.201 C388.3671,156.912 390.2241,155.056 392.5131,155.056 C394.8021,155.056 396.6581,156.912 396.6581,159.201 C396.6581,161.49 394.8021,163.346 392.5131,163.346" id="Fill-39" fill="#2DA6E6"></path>
                        <path d="M427.4096,184.4153 C425.1206,184.4153 423.2646,182.5603 423.2646,180.2703 C423.2646,177.9813 425.1206,176.1253 427.4096,176.1253 C429.6996,176.1253 431.5556,177.9813 431.5556,180.2703 C431.5556,182.5603 429.6996,184.4153 427.4096,184.4153" id="Fill-41" fill="#6A6AC8"></path>
                        <path d="M408.0121,309.4505 C405.7231,309.4505 403.8671,307.5955 403.8671,305.3055 C403.8671,303.0165 405.7231,301.1615 408.0121,301.1615 C410.3011,301.1615 412.1581,303.0165 412.1581,305.3055 C412.1581,307.5955 410.3011,309.4505 408.0121,309.4505" id="Fill-43" fill="#6A6AC8"></path>
                        <path d="M316.6753,213.5369 C314.3863,213.5369 312.5303,211.6819 312.5303,209.3919 C312.5303,207.1029 314.3863,205.2469 316.6753,205.2469 C318.9643,205.2469 320.8213,207.1029 320.8213,209.3919 C320.8213,211.6819 318.9643,213.5369 316.6753,213.5369" id="Fill-45" fill="#6A6AC8"></path>
                        <path d="M395.5043,119.6228 C393.2153,119.6228 391.3593,117.7668 391.3593,115.4778 C391.3593,113.1888 393.2153,111.3328 395.5043,111.3328 C397.7933,111.3328 399.6493,113.1888 399.6493,115.4778 C399.6493,117.7668 397.7933,119.6228 395.5043,119.6228" id="Fill-47" fill="#6A6AC8"></path>
                        <path d="M481.267,203.5852 C478.978,203.5852 477.122,201.7292 477.122,199.4402 C477.122,197.1512 478.978,195.2952 481.267,195.2952 C483.556,195.2952 485.412,197.1512 485.412,199.4402 C485.412,201.7292 483.556,203.5852 481.267,203.5852" id="Fill-49" fill="#2DA6E6"></path>
                        <path d="M280.0151,228.6267 C277.7261,228.6267 275.8701,226.7717 275.8701,224.4817 C275.8701,222.1927 277.7261,220.3367 280.0151,220.3367 C282.3041,220.3367 284.1601,222.1927 284.1601,224.4817 C284.1601,226.7717 282.3041,228.6267 280.0151,228.6267" id="Fill-51" fill="#6A6AC8"></path>
                        <path d="M293.8803,331.8587 C291.5913,331.8587 289.7353,330.0037 289.7353,327.7137 C289.7353,325.4247 291.5913,323.5687 293.8803,323.5687 C296.1703,323.5687 298.0263,325.4247 298.0263,327.7137 C298.0263,330.0037 296.1703,331.8587 293.8803,331.8587" id="Fill-53" fill="#2DA6E6"></path>
                        <path d="M370.5366,376.5882 C368.2476,376.5882 366.3916,374.7332 366.3916,372.4432 C366.3916,370.1542 368.2476,368.2992 370.5366,368.2992 C372.8256,368.2992 374.6816,370.1542 374.6816,372.4432 C374.6816,374.7332 372.8256,376.5882 370.5366,376.5882" id="Fill-55" fill="#58BD89"></path>
                        <path d="M280.2788,430.6223 C277.9898,430.6223 276.1338,428.7673 276.1338,426.4763 C276.1338,424.1873 277.9898,422.3323 280.2788,422.3323 C282.5678,422.3323 284.4238,424.1873 284.4238,426.4763 C284.4238,428.7673 282.5678,430.6223 280.2788,430.6223" id="Fill-57" fill="#58BD89"></path>
                        <path d="M324.8559,134.9798 C321.3279,134.9798 318.4659,132.1188 318.4659,128.5898 C318.4659,125.0608 321.3279,122.1998 324.8559,122.1998 C328.3849,122.1998 331.2469,125.0608 331.2469,128.5898 C331.2469,132.1188 328.3849,134.9798 324.8559,134.9798" id="Fill-61" fill="#58BD89"></path>
                        <path d="M415.9272,94.7405 C412.3982,94.7405 409.5362,91.8795 409.5362,88.3505 C409.5362,84.8215 412.3982,81.9605 415.9272,81.9605 C419.4552,81.9605 422.3172,84.8215 422.3172,88.3505 C422.3172,91.8795 419.4552,94.7405 415.9272,94.7405" id="Fill-63" fill="#6A6AC8"></path>
                        <path d="M456.1948,134.9798 C452.6668,134.9798 449.8048,132.1188 449.8048,128.5898 C449.8048,125.0608 452.6668,122.1998 456.1948,122.1998 C459.7238,122.1998 462.5858,125.0608 462.5858,128.5898 C462.5858,132.1188 459.7238,134.9798 456.1948,134.9798" id="Fill-71" fill="#6A6AC8"></path>
                        <path d="M346.0786,311.6956 C342.5496,311.6956 339.6886,308.8356 339.6886,305.3056 C339.6886,301.7766 342.5496,298.9166 346.0786,298.9166 C349.6076,298.9166 352.4686,301.7766 352.4686,305.3056 C352.4686,308.8356 349.6076,311.6956 346.0786,311.6956" id="Fill-73" fill="#6A6AC8"></path>
                        <path d="M460.2475,261.8284 C456.7185,261.8284 453.8575,258.9674 453.8575,255.4384 C453.8575,251.9094 456.7185,249.0484 460.2475,249.0484 C463.7765,249.0484 466.6375,251.9094 466.6375,255.4384 C466.6375,258.9674 463.7765,261.8284 460.2475,261.8284" id="Fill-75" fill="#6A6AC8"></path>
                        <path d="M242.9106,212.0906 C241.7066,212.0906 240.7296,211.1146 240.7296,209.9106 C240.7296,208.7066 241.7066,207.7296 242.9106,207.7296 C244.1146,207.7296 245.0916,208.7066 245.0916,209.9106 C245.0916,211.1146 244.1146,212.0906 242.9106,212.0906" id="Fill-90" fill="#2DA6E6"></path>
                        <path d="M229.0512,194.1512 C227.8472,194.1512 226.8712,193.1752 226.8712,191.9712 C226.8712,190.7672 227.8472,189.7912 229.0512,189.7912 C230.2552,189.7912 231.2322,190.7672 231.2322,191.9712 C231.2322,193.1752 230.2552,194.1512 229.0512,194.1512" id="Fill-92" fill="#6A6AC8"></path>
                        <path d="M249.9048,251.4016 C248.7008,251.4016 247.7248,250.4256 247.7248,249.2216 C247.7248,248.0166 248.7008,247.0406 249.9048,247.0406 C251.1088,247.0406 252.0858,248.0166 252.0858,249.2216 C252.0858,250.4256 251.1088,251.4016 249.9048,251.4016" id="Fill-94" fill="#6A6AC8"></path>
                        <path d="M275.2632,72.8723 C274.0582,72.8723 273.0822,71.8953 273.0822,70.6913 C273.0822,69.4873 274.0582,68.5113 275.2632,68.5113 C276.4672,68.5113 277.4432,69.4873 277.4432,70.6913 C277.4432,71.8953 276.4672,72.8723 275.2632,72.8723" id="Fill-108" fill="#6A6AC8"></path>
                        <path d="M290.6909,256.2805 C289.4869,256.2805 288.5109,255.3035 288.5109,254.0995 C288.5109,252.8955 289.4869,251.9195 290.6909,251.9195 C291.8949,251.9195 292.8719,252.8955 292.8719,254.0995 C292.8719,255.3035 291.8949,256.2805 290.6909,256.2805" id="Fill-110" fill="#6A6AC8"></path>
                        <path d="M282.6128,313.9622 C281.4088,313.9622 280.4328,312.9862 280.4328,311.7822 C280.4328,310.5782 281.4088,309.6022 282.6128,309.6022 C283.8168,309.6022 284.7938,310.5782 284.7938,311.7822 C284.7938,312.9862 283.8168,313.9622 282.6128,313.9622" id="Fill-112" fill="#6A6AC8"></path>
                        <path d="M321.4038,4.6551 C320.1988,4.6551 319.2228,3.6791 319.2228,2.4751 C319.2228,1.2711 320.1988,0.2951 321.4038,0.2951 C322.6078,0.2951 323.5838,1.2711 323.5838,2.4751 C323.5838,3.6791 322.6078,4.6551 321.4038,4.6551" id="Fill-114" fill="#6A6AC8"></path>
                    </g>
                </g>
            </g>
        </g>
    </g>
</svg>