<?xml version="1.0" encoding="UTF-8"?>
<svg width="328px" height="464px" viewBox="0 0 328 464" version="1.1" xmlns="http://www.w3.org/2000/svg" xmlns:xlink="http://www.w3.org/1999/xlink">
    <!-- Generator: Sketch 61.2 (89653) - https://sketch.com -->
    <title>connectivity-right</title>
    <desc>Created with Sketch.</desc>
    <g id="Page-1" stroke="none" stroke-width="1" fill="none" fill-rule="evenodd">
        <g id="LinksRez---Lifestyle" transform="translate(-1112.000000, -164.000000)">
            <g id="Hero" transform="translate(-231.000000, -19.000000)">
                <g id="connectivity-right" transform="translate(1343.000000, 167.000000)">
                    <polygon id="Fill-1" fill="#6A6AC8" points="282.4712 71.3967 257.2812 27.7637 208.5532 27.7637 208.5532 28.5897 256.8032 28.5897 281.5162 71.3967"></polygon>
                    <polygon id="Fill-2" fill="#6A6AC8" points="311.2632 71.3967 279.6822 16.6937 278.7272 16.6937 310.3072 71.3967"></polygon>
                    <polygon id="Fill-3" fill="#6A6AC8" points="299.3608 133.8337 299.4798 133.6267 263.3768 71.0907 263.2568 70.8837 190.8078 70.8837 155.2418 132.4897 156.1968 132.4897 191.2858 71.7097 262.7798 71.7097 298.5248 133.6267 264.1838 193.1077 265.1378 193.1077"></polygon>
                    <polygon id="Fill-4" fill="#6A6AC8" points="279.4966 210.3063 279.4376 210.2053 278.4826 210.2053 278.5416 210.3063 253.0476 254.4673 202.0546 254.4673 176.5586 210.3063 176.6166 210.2053 175.6616 210.2053 175.6026 210.3063 201.5766 255.2923 253.5246 255.2923"></polygon>
                    <polygon id="Fill-5" fill="#6A6AC8" points="108.6684 163.9211 108.4764 163.5881 138.0954 112.2841 137.1414 112.2841 107.5204 163.5881 107.7124 163.9211"></polygon>
                    <polygon id="Fill-6" fill="#6A6AC8" points="229.6489 163.5881 200.0289 112.2841 199.0749 112.2841 228.6939 163.5881 199.4879 214.1771 200.4419 214.1771"></polygon>
                    <polygon id="Fill-7" fill="#6A6AC8" points="181.893 344.2209 181.701 343.8879 211.321 292.5829 210.366 292.5829 180.746 343.8879 180.938 344.2209"></polygon>
                    <polygon id="Fill-8" fill="#6A6AC8" points="253.5385 163.5446 211.4185 236.5006 134.0845 236.5006 134.0845 237.3256 211.8955 237.3256 254.3745 163.7516 254.4935 163.5446 212.0165 89.9696 211.8955 89.7636 126.6985 89.7636 84.9055 162.1506 85.8605 162.1506 127.1765 90.5896 211.4185 90.5896"></polygon>
                    <polygon id="Fill-9" fill="#6A6AC8" points="211.0874 329.9797 130.6084 329.9797 88.4884 257.0247 130.6084 184.0647 211.0874 184.0647 211.0874 183.2397 130.1304 183.2397 87.6524 256.8187 87.5334 257.0247 130.0114 330.5987 130.1304 330.8057 211.0874 330.8057"></polygon>
                    <polygon id="Fill-10" fill="#6A6AC8" points="42.9331 323.3947 1.2741 251.2387 42.9331 179.0797 42.9331 177.4537 42.9171 177.4537 0.4391 251.0327 0.3191 251.2387 42.7981 324.8137 42.9171 325.0197 42.9331 325.0197"></polygon>
                    <polygon id="Fill-11" fill="#6A6AC8" points="149.6489 302.9377 204.2099 302.9377 234.2629 354.9907 204.2099 407.0477 149.6489 407.0477 149.6489 407.8737 204.6869 407.8737 235.2189 354.9907 204.6869 302.1117 149.6489 302.1117"></polygon>
                    <polygon id="Fill-12" fill="#6A6AC8" points="90.4013 355.8351 89.4453 355.8351 124.6413 416.7981 125.5953 416.7981"></polygon>
                    <polygon id="Fill-13" fill="#6A6AC8" points="259.2319 355.1965 259.3509 354.9905 221.2519 289.0005 220.2969 289.0005 258.3959 354.9905 222.7129 416.7985 223.6689 416.7985"></polygon>
                    <polygon id="Fill-14" fill="#6A6AC8" points="286.1694 250.1423 309.1584 210.3213 353.3074 210.3213 353.3074 209.4953 308.6814 209.4953 285.2144 250.1423"></polygon>
                    <polygon id="Fill-15" fill="#6A6AC8" points="187.6567 277.2697 141.7637 277.2697 118.6977 237.3187 118.8977 236.9737 117.9427 236.9737 117.7427 237.3187 141.2867 278.0957 187.6567 278.0957"></polygon>
                    <polygon id="Fill-16" fill="#6A6AC8" points="68.7021 290.4465 45.7081 250.6165 68.7721 210.6665 114.0291 210.6665 114.0291 209.8415 68.2941 209.8415 44.7531 250.6165 67.7471 290.4465"></polygon>
                    <polygon id="Fill-17" fill="#6A6AC8" points="157.3335 250.8762 156.3785 250.8762 124.1835 306.6412 59.4915 306.6412 27.1455 250.6172 59.4915 194.5932 124.1835 194.5932 124.1975 194.6182 124.1975 193.7672 59.0135 193.7672 26.3105 250.4112 26.1905 250.6172 58.8945 307.2602 59.0135 307.4672 124.6605 307.4672"></polygon>
                    <polygon id="Fill-18" fill="#6A6AC8" points="407.5444 372.1984 406.5894 372.1984 381.3014 415.9984 330.3084 415.9984 304.8144 371.8384 329.8804 328.4194 328.9264 328.4194 303.8584 371.8384 329.8304 416.8244 381.7784 416.8244"></polygon>
                    <polygon id="Fill-19" fill="#6A6AC8" points="318.6128 312.4875 317.6588 312.4875 283.7358 371.2435 283.6168 371.4505 315.9788 427.5065 316.9328 427.5065 284.5718 371.4505"></polygon>
                    <polygon id="Fill-20" fill="#6A6AC8" points="281.7924 284.4611 281.6734 284.6671 317.7764 347.2041 317.8964 347.4101 390.3454 347.4101 425.9114 285.8051 424.9564 285.8051 389.8674 346.5851 318.3734 346.5851 282.6284 284.6671 316.9694 225.1871 316.0154 225.1871"></polygon>
                    <polygon id="Fill-21" fill="#6A6AC8" points="301.6567 207.9885 301.7157 208.0895 302.6707 208.0895 302.6117 207.9885 328.1057 163.8285 379.0987 163.8285 404.5947 207.9885 404.5367 208.0895 405.4917 208.0895 405.5507 207.9885 379.5767 163.0025 327.6287 163.0025"></polygon>
                    <polygon id="Fill-24" fill="#6A6AC8" points="496.2475 256.1438 495.2925 256.1438 453.9765 327.7058 369.7345 327.7058 327.6455 254.8048 326.6905 254.8048 369.1375 328.3248 369.2575 328.5308 454.4545 328.5308"></polygon>
                    <polygon id="Fill-28" fill="#6A6AC8" points="212.4194 473.3146 211.4654 473.3146 173.4844 407.5306 173.3654 407.3246 209.0484 345.5166 210.0034 345.5166 174.3204 407.3246"></polygon>
                    <polygon id="Fill-29" fill="#6A6AC8" points="357.4849 1.4954 321.9209 63.0974 321.8029 63.3034 359.9019 129.2944 360.8559 129.2944 322.7579 63.3034 358.4399 1.4954"></polygon>
                    <g id="Group-118" transform="translate(36.000000, 0.705000)">
                        <path d="M280.0151,228.6267 C277.7261,228.6267 275.8701,226.7717 275.8701,224.4817 C275.8701,222.1927 277.7261,220.3367 280.0151,220.3367 C282.3041,220.3367 284.1601,222.1927 284.1601,224.4817 C284.1601,226.7717 282.3041,228.6267 280.0151,228.6267" id="Fill-51" fill="#6A6AC8"></path>
                        <path d="M293.8803,331.8587 C291.5913,331.8587 289.7353,330.0037 289.7353,327.7137 C289.7353,325.4247 291.5913,323.5687 293.8803,323.5687 C296.1703,323.5687 298.0263,325.4247 298.0263,327.7137 C298.0263,330.0037 296.1703,331.8587 293.8803,331.8587" id="Fill-53" fill="#6A6AC8"></path>
                        <path d="M280.2788,430.6223 C277.9898,430.6223 276.1338,428.7673 276.1338,426.4763 C276.1338,424.1873 277.9898,422.3323 280.2788,422.3323 C282.5678,422.3323 284.4238,424.1873 284.4238,426.4763 C284.4238,428.7673 282.5678,430.6223 280.2788,430.6223" id="Fill-57" fill="#6A6AC8"></path>
                        <path d="M140.5581,215.991 C137.0291,215.991 134.1681,213.13 134.1681,209.601 C134.1681,206.072 137.0291,203.211 140.5581,203.211 C144.0871,203.211 146.9481,206.072 146.9481,209.601 C146.9481,213.13 144.0871,215.991 140.5581,215.991" id="Fill-59" fill="#2DA6E6"></path>
                        <path d="M6.9331,329.0794 C3.4041,329.0794 0.5431,326.2194 0.5431,322.6894 C0.5431,319.1604 3.4041,316.3004 6.9331,316.3004 C10.4621,316.3004 13.3231,319.1604 13.3231,322.6894 C13.3231,326.2194 10.4621,329.0794 6.9331,329.0794" id="Fill-65" fill="#6A6AC8"></path>
                        <path d="M32.3881,295.7639 C28.8591,295.7639 25.9981,292.9039 25.9981,289.3739 C25.9981,285.8449 28.8591,282.9849 32.3881,282.9849 C35.9171,282.9849 38.7781,285.8449 38.7781,289.3739 C38.7781,292.9039 35.9171,295.7639 32.3881,295.7639" id="Fill-67" fill="#58BD89"></path>
                        <path d="M99.0078,241.2337 C96.3008,241.2337 94.1078,239.0397 94.1078,236.3337 C94.1078,233.6277 96.3008,231.4337 99.0078,231.4337 C101.7138,231.4337 103.9078,233.6277 103.9078,236.3337 C103.9078,239.0397 101.7138,241.2337 99.0078,241.2337" id="Fill-69" fill="#6A6AC8"></path>
                        <path d="M172.5532,33.449 C169.0242,33.449 166.1632,30.588 166.1632,27.059 C166.1632,23.53 169.0242,20.669 172.5532,20.669 C176.0822,20.669 178.9432,23.53 178.9432,27.059 C178.9432,30.588 176.0822,33.449 172.5532,33.449" id="Fill-77" fill="#2DA6E6"></path>
                        <path d="M71.7128,169.6062 C68.1838,169.6062 65.3228,166.7452 65.3228,163.2162 C65.3228,159.6872 68.1838,156.8262 71.7128,156.8262 C75.2418,156.8262 78.1028,159.6872 78.1028,163.2162 C78.1028,166.7452 75.2418,169.6062 71.7128,169.6062" id="Fill-79" fill="#6A6AC8"></path>
                        <path d="M187.1499,422.3108 C183.6209,422.3108 180.7599,419.4508 180.7599,415.9208 C180.7599,412.3918 183.6209,409.5308 187.1499,409.5308 C190.6789,409.5308 193.5399,412.3918 193.5399,415.9208 C193.5399,419.4508 190.6789,422.3108 187.1499,422.3108" id="Fill-81" fill="#6A6AC8"></path>
                        <path d="M176.4194,479.0003 C172.8914,479.0003 170.0294,476.1393 170.0294,472.6093 C170.0294,469.0813 172.8914,466.2203 176.4194,466.2203 C179.9484,466.2203 182.8104,469.0813 182.8104,472.6093 C182.8104,476.1393 179.9484,479.0003 176.4194,479.0003" id="Fill-83" fill="#2DA6E6"></path>
                        <path d="M174.2622,331.9016 C173.0582,331.9016 172.0812,330.9256 172.0812,329.7216 C172.0812,328.5176 173.0582,327.5416 174.2622,327.5416 C175.4662,327.5416 176.4432,328.5176 176.4432,329.7216 C176.4432,330.9256 175.4662,331.9016 174.2622,331.9016" id="Fill-86" fill="#6A6AC8"></path>
                        <path d="M173.7436,346.9915 C172.5396,346.9915 171.5636,346.0155 171.5636,344.8105 C171.5636,343.6065 172.5396,342.6315 173.7436,342.6315 C174.9476,342.6315 175.9246,343.6065 175.9246,344.8105 C175.9246,346.0155 174.9476,346.9915 173.7436,346.9915" id="Fill-88" fill="#6A6AC8"></path>
                        <path d="M242.9106,212.0906 C241.7066,212.0906 240.7296,211.1146 240.7296,209.9106 C240.7296,208.7066 241.7066,207.7296 242.9106,207.7296 C244.1146,207.7296 245.0916,208.7066 245.0916,209.9106 C245.0916,211.1146 244.1146,212.0906 242.9106,212.0906" id="Fill-90" fill="#6A6AC8"></path>
                        <path d="M229.0512,194.1512 C227.8472,194.1512 226.8712,193.1752 226.8712,191.9712 C226.8712,190.7672 227.8472,189.7912 229.0512,189.7912 C230.2552,189.7912 231.2322,190.7672 231.2322,191.9712 C231.2322,193.1752 230.2552,194.1512 229.0512,194.1512" id="Fill-92" fill="#6A6AC8"></path>
                        <path d="M249.9048,251.4016 C248.7008,251.4016 247.7248,250.4256 247.7248,249.2216 C247.7248,248.0166 248.7008,247.0406 249.9048,247.0406 C251.1088,247.0406 252.0858,248.0166 252.0858,249.2216 C252.0858,250.4256 251.1088,251.4016 249.9048,251.4016" id="Fill-94" fill="#6A6AC8"></path>
                        <path d="M120.1206,133.1878 C118.9166,133.1878 117.9396,132.2118 117.9396,131.0078 C117.9396,129.8038 118.9166,128.8278 120.1206,128.8278 C121.3246,128.8278 122.3006,129.8038 122.3006,131.0078 C122.3006,132.2118 121.3246,133.1878 120.1206,133.1878" id="Fill-96" fill="#6A6AC8"></path>
                        <path d="M150.3003,279.055 C149.0953,279.055 148.1193,278.079 148.1193,276.875 C148.1193,275.671 149.0953,274.695 150.3003,274.695 C151.5043,274.695 152.4803,275.671 152.4803,276.875 C152.4803,278.079 151.5043,279.055 150.3003,279.055" id="Fill-98" fill="#6A6AC8"></path>
                        <path d="M163.7944,215.5877 C162.5904,215.5877 161.6134,214.6117 161.6134,213.4077 C161.6134,212.2037 162.5904,211.2267 163.7944,211.2267 C164.9984,211.2267 165.9754,212.2037 165.9754,213.4077 C165.9754,214.6117 164.9984,215.5877 163.7944,215.5877" id="Fill-100" fill="#6A6AC8"></path>
                        <path d="M164.0288,113.7591 C162.8248,113.7591 161.8488,112.7831 161.8488,111.5791 C161.8488,110.3741 162.8248,109.3981 164.0288,109.3981 C165.2338,109.3981 166.2098,110.3741 166.2098,111.5791 C166.2098,112.7831 165.2338,113.7591 164.0288,113.7591" id="Fill-102" fill="#6A6AC8"></path>
                        <path d="M185.2514,290.4749 C184.0474,290.4749 183.0704,289.4989 183.0704,288.2949 C183.0704,287.0909 184.0474,286.1149 185.2514,286.1149 C186.4554,286.1149 187.4324,287.0909 187.4324,288.2949 C187.4324,289.4989 186.4554,290.4749 185.2514,290.4749" id="Fill-104" fill="#6A6AC8"></path>
                        <path d="M101.8574,113.9104 C100.6524,113.9104 99.6764,112.9334 99.6764,111.7294 C99.6764,110.5254 100.6524,109.5494 101.8574,109.5494 C103.0614,109.5494 104.0374,110.5254 104.0374,111.7294 C104.0374,112.9334 103.0614,113.9104 101.8574,113.9104" id="Fill-106" fill="#6A6AC8"></path>
                        <path d="M275.2632,72.8723 C274.0582,72.8723 273.0822,71.8953 273.0822,70.6913 C273.0822,69.4873 274.0582,68.5113 275.2632,68.5113 C276.4672,68.5113 277.4432,69.4873 277.4432,70.6913 C277.4432,71.8953 276.4672,72.8723 275.2632,72.8723" id="Fill-108" fill="#6A6AC8"></path>
                        <path d="M290.6909,256.2805 C289.4869,256.2805 288.5109,255.3035 288.5109,254.0995 C288.5109,252.8955 289.4869,251.9195 290.6909,251.9195 C291.8949,251.9195 292.8719,252.8955 292.8719,254.0995 C292.8719,255.3035 291.8949,256.2805 290.6909,256.2805" id="Fill-110" fill="#6A6AC8"></path>
                        <path d="M282.6128,313.9622 C281.4088,313.9622 280.4328,312.9862 280.4328,311.7822 C280.4328,310.5782 281.4088,309.6022 282.6128,309.6022 C283.8168,309.6022 284.7938,310.5782 284.7938,311.7822 C284.7938,312.9862 283.8168,313.9622 282.6128,313.9622" id="Fill-112" fill="#6A6AC8"></path>
                    </g>
                </g>
            </g>
        </g>
    </g>
</svg>