<?xml version="1.0" encoding="UTF-8"?>
<svg width="822px" height="833px" viewBox="0 0 822 833" version="1.1" xmlns="http://www.w3.org/2000/svg" xmlns:xlink="http://www.w3.org/1999/xlink">
    <!-- Generator: Sketch 61.2 (89653) - https://sketch.com -->
    <title>graphic</title>
    <desc>Created with Sketch.</desc>
    <g id="Page-1" stroke="none" stroke-width="1" fill="none" fill-rule="evenodd" opacity="0.400000006">
        <g id="LinksRez" transform="translate(-138.000000, -1897.000000)" fill="#20AB63">
            <g id="Our-Products" transform="translate(110.000000, 1806.000000)">
                <g id="graphic" transform="translate(26.000000, 89.000000)">
                    <polygon id="Fill-1" points="87.0964776 432.180147 86.6075224 452.53925 105.839761 440.158206"></polygon>
                    <polygon id="Fill-2" points="73.0296119 410.349619 72.590806 428.676575 89.8922985 417.524854"></polygon>
                    <polygon id="Fill-3" points="58.9740299 388.507801 58.5979104 404.815154 73.9686567 394.905301"></polygon>
                    <polygon id="Fill-4" points="44.9121791 366.665984 44.586209 380.94119 58.0512836 372.248116"></polygon>
                    <polygon id="Fill-5" points="30.5544478 357.070988 42.1263881 349.619782 30.842806 344.815385"></polygon>
                    <polygon id="Fill-6" points="16.5402388 333.21584 26.2065075 326.968869 16.8035224 322.992384"></polygon>
                    <polygon id="Fill-7" points="2.53731343 309.338112 10.2853731 304.320465 2.72537313 301.134259"></polygon>
                    <polygon id="Fill-8" points="185.442925 553.333744 198.795164 544.728479 206.480537 539.761009 219.845313 531.155744 227.530687 526.213362 240.908 517.583009 248.60591 512.628082 261.983224 504.010274 269.681134 499.067891 283.04591 490.437538 290.718746 485.495156 304.083522 476.877347 311.79397 471.909876 325.171284 463.292068 332.856657 458.337141 346.221433 449.719332 353.919343 444.77695 367.284119 436.146597 374.98203 431.191671 388.346806 422.573862 396.032179 417.631479 409.396955 409.001126 417.094866 404.058744 430.459642 395.428391 438.145015 390.486009 451.522328 381.880744 459.207701 376.913274 472.585015 368.308009 480.270388 363.340538 493.635164 354.735274 501.333075 349.755259 514.697851 341.162538 522.408299 336.195068 535.760537 327.589803 543.458448 322.622332 556.835761 314.017068 564.521134 309.062141 577.88591 300.444332 585.571284 295.489406 598.948597 286.871597 606.659045 281.891582 620.011284 273.298862 627.696657 268.343935 648.759343 254.758656 620.763522 242.841744 620.199343 265.132641 599.688299 256.427024 599.124119 278.730465 578.625612 269.987215 578.061433 292.290656 557.575463 283.55995 557.036358 305.850847 536.512776 297.132685 535.961134 319.436126 515.437552 310.705421 514.910985 333.008862 494.39994 324.278156 493.848299 346.581597 473.324716 337.850891 472.785612 360.154332 452.274567 351.423626 451.710388 373.727068 431.211881 364.983818 430.660239 387.299803 410.149194 378.544009 409.585015 400.872538 389.07397 392.141832 388.547403 414.420185 368.023821 405.689479 367.472179 428.005465 346.961134 419.274759 346.42203 441.5782 325.898448 432.860038 325.359343 455.150935 304.835761 446.432774 304.296657 468.711126 283.785612 459.992965 283.23397 482.283862 262.722925 473.5657 262.158746 495.856597 241.647701 487.138435 241.09606 509.441876 220.585015 500.711171 220.04591 523.002068 199.534866 514.283906 198.995761 536.574803 178.459642 527.856641 177.933075 550.147538 157.409493 541.429376 156.669791 571.886494 177.732478 558.301215"></polygon>
                    <polygon id="Fill-9" points="169.514269 530.707919 184.784716 520.873331 190.589493 517.147728 205.847403 507.300596 211.614567 503.574993 226.91009 493.72786 232.689791 489.989713 247.960239 480.155125 253.765015 476.429522 269.022925 466.58239 274.815164 462.856787 290.085612 453.009654 295.877851 449.284051 311.148299 439.436919 316.940537 435.72386 332.198448 425.864184 337.990687 422.138581 353.261134 412.316537 359.053373 408.565846 374.336358 398.718713 380.11606 394.99311 395.399045 385.158522 401.191284 381.420375 416.449194 371.573243 422.241433 367.84764 437.511881 358.000507 443.316657 354.274904 458.587104 344.440316 464.366806 340.714713 479.624716 330.867581 485.404418 327.141978 500.687403 317.294846 506.479642 313.556699 521.75009 303.72211 527.542328 299.996507 542.800239 290.149375 548.592478 286.423772 563.875463 276.57664 569.667701 272.851037 584.950687 263.003904 590.730388 259.278301 606.000836 249.431169 611.780537 245.705566 632.843224 232.132831 606.690388 220.993654 606.138746 243.30964 585.615164 234.56639 585.07606 256.882375 564.552478 248.139125 564.013373 270.45511 543.502328 261.71186 542.963224 284.027846 522.452179 275.284596 521.900537 297.588037 501.376955 288.857331 500.862925 311.160772 480.314269 302.430066 479.787701 324.733507 459.251582 316.002801 458.712478 338.293699 438.201433 329.575537 437.662328 351.866434 417.138746 343.148272 416.587104 365.439169 396.07606 356.695919 395.536955 379.011904 375.013373 370.293743 374.486806 392.58464 353.950687 383.853934 353.411582 406.157375 332.900537 397.426669 332.361433 419.717566 311.825313 411.011949 311.311284 433.302846 290.762627 424.584684 290.23606 446.875581 269.725015 438.132331 269.173373 460.448316 248.662328 451.705066 248.110687 474.021051 227.587104 465.277801 227.048 487.593787 206.524418 478.850537 205.985313 501.166522 185.474269 492.423272 184.922627 514.726713 164.411582 505.996007 163.885015 528.299449 143.336358 519.568743 142.659343 548.018801 163.72203 534.433522"></polygon>
                    <polygon id="Fill-10" points="153.585612 508.082094 170.774269 497.005638 174.673373 494.496815 191.836955 483.420359 195.710985 480.924079 212.887104 469.860168 216.761134 467.363888 233.949791 456.287432 237.836358 453.791153 255.025015 442.702153 258.899045 440.218418 276.075164 429.141962 279.961731 426.645682 297.137851 415.569226 301.024418 413.072947 318.200537 401.996491 322.074567 399.500212 339.263224 388.4363 343.137254 385.927476 360.313373 374.851021 364.19994 372.354741 381.363522 361.290829 385.262627 358.79455 402.451284 347.718094 406.312776 345.221815 423.488896 334.157903 427.400537 331.661624 444.564119 320.585168 448.438149 318.088888 465.626806 307.012432 469.488299 304.503609 486.689493 293.439697 490.57606 290.930874 507.752179 279.866962 511.638746 277.345594 528.802328 266.294226 532.663821 263.785403 549.865015 252.708947 553.726507 250.212668 570.915164 239.148756 574.801731 236.639932 591.977851 225.576021 595.864418 223.067197 616.927104 209.494462 592.642328 199.158109 592.078149 221.449006 571.567104 212.730844 571.015463 235.034285 550.491881 226.303579 549.952776 248.594476 529.454269 239.863771 528.902627 262.167212 508.379045 253.423962 507.83994 275.752491 487.316358 267.009241 486.777254 289.325226 466.253672 280.581976 465.727104 302.897962 445.203522 294.142168 444.664418 316.470697 424.140836 307.727447 423.589194 330.043432 403.078149 321.287638 402.526507 343.616168 382.028 334.860374 381.488896 357.188903 360.952776 348.433109 360.426209 370.749094 339.877552 362.018388 339.338448 384.321829 318.852478 375.578579 318.313373 397.882021 297.764716 389.163859 297.250687 411.4673 276.70203 402.736594 276.162925 425.027491 255.664418 416.296785 255.112776 438.612771 234.589194 429.856976 234.05009 452.172962 213.526507 443.442256 212.987403 465.745697 192.476358 457.014991 191.937254 479.318432 171.413672 470.587726 170.874567 492.891168 150.350985 484.160462 149.811881 506.463903 129.288299 497.733197 128.648896 524.151109 149.711582 510.565829"></polygon>
                    <polygon id="Fill-11" points="137.668239 485.443725 156.762567 473.15049 158.730925 471.87099 177.825254 459.56521 179.781075 458.298254 198.88794 445.992475 200.843761 444.725519 219.93809 432.41974 221.906448 431.152784 241.025851 418.83446 242.981672 417.580049 262.063463 405.274269 264.031821 404.007313 283.126149 391.701534 285.094507 390.434578 304.176299 378.128799 306.157194 376.861843 325.238985 364.568607 327.219881 363.301651 346.301672 350.983328 348.282567 349.728916 367.364358 337.423137 369.345254 336.168725 388.439582 323.837857 390.395403 322.583446 409.489731 310.277666 411.45809 309.01071 430.552418 296.717475 432.520776 295.450519 451.615104 283.14474 453.570925 281.86524 472.677791 269.55946 474.646149 268.292504 493.72794 255.999269 495.708836 254.719769 514.790627 242.426534 516.746448 241.147034 535.853313 228.853799 537.809134 227.574299 556.916 215.281063 558.884358 214.001563 577.966149 201.708328 579.947045 200.428828 601.009731 186.856093 578.555403 177.297475 578.016299 199.626004 557.492716 190.882754 556.953612 213.19874 536.442567 204.45549 535.903463 226.771475 515.379881 218.028225 514.840776 240.319122 494.317194 231.588416 493.77809 253.904401 473.267045 245.173696 472.72794 267.477137 452.204358 258.733887 451.665254 281.049872 431.129134 272.306622 430.602567 294.610063 410.066448 285.879357 409.539881 308.195343 389.003761 299.452093 388.464657 321.755534 367.953612 313.012284 367.40197 335.328269 346.878388 326.597563 346.364358 348.901004 325.828239 340.170299 325.289134 362.47374 304.765552 353.73049 304.251522 376.046475 283.702866 367.303225 283.163761 389.61921 262.652716 380.87596 262.113612 403.191946 241.59003 394.448696 241.050925 416.764681 220.527343 408.008887 219.988239 430.324872 199.464657 421.594166 198.93809 443.910151 178.389433 435.166901 177.875403 457.482887 157.339284 448.727093 156.812716 471.043078 136.276597 462.312372 135.75003 484.628357 115.21391 475.885107 114.637194 500.283416 135.699881 486.710681"></polygon>
                    <polygon id="Fill-12" points="121.727045 462.792812 142.739582 449.270253 142.814806 449.232621 163.789731 435.697518 163.864955 435.647341 184.852418 422.124782 184.927642 422.08715 205.940179 408.552047 205.990328 408.514415 226.990328 394.979312 227.053015 394.929135 248.053015 381.406576 248.103164 381.368944 269.115701 367.833841 269.165851 367.796209 290.178388 354.27365 290.216 354.223474 311.216 340.700915 311.291224 340.650738 332.291224 327.115635 332.366448 327.078003 353.35391 313.555444 353.40406 313.505268 374.416597 299.982709 374.479284 299.932532 395.466746 286.397429 395.54197 286.359797 416.529433 272.824694 416.604657 272.787062 437.604657 259.251959 437.654806 259.226871 458.654806 245.679224 458.704955 245.654135 479.704955 232.119032 479.780179 232.0814 500.780179 218.533753 500.830328 218.508665 521.842866 204.973562 521.893015 204.923385 542.905552 191.413371 542.955701 191.363194 563.943164 177.840635 564.018388 177.790459 585.068537 164.230268 564.494806 155.461929 563.943164 177.777915 543.444657 169.034665 542.905552 191.35065 522.38197 182.6074 521.817791 204.910841 501.319284 196.167591 500.780179 218.483576 480.269134 209.740326 479.73003 232.056312 459.181373 223.33815 458.667343 245.629047 438.143761 236.885797 437.604657 259.214326 417.081075 250.458532 416.554507 272.787062 396.018388 264.031268 395.466746 286.359797 374.943164 277.604003 374.40406 299.919988 353.905552 291.15165 353.35391 313.492724 332.830328 304.749474 332.303761 327.052915 311.767642 318.322209 311.228537 340.638194 290.717493 331.8824 290.190925 354.198385 269.654806 345.467679 269.115701 367.771121 248.579582 359.040415 248.053015 381.343856 227.529433 372.61315 226.990328 394.916591 206.479284 386.173341 205.940179 408.489326 185.40406 399.746076 184.877493 422.062062 164.328836 413.318812 163.802269 435.634797 143.278687 426.891547 142.752119 449.207532 122.216 440.464282 121.70197 462.767724 101.153313 454.037018 100.626746 476.403179 121.676896 462.830444"></polygon>
                    <polygon id="Fill-13" points="108.161672 418.606157 107.672716 438.96526 126.867343 426.584216"></polygon>
                    <polygon id="Fill-14" points="94.0935522 396.776884 93.6547463 415.091296 110.956239 403.952119"></polygon>
                    <polygon id="Fill-15" points="80.0329552 374.935066 79.6568358 391.242419 95.0401194 381.320022"></polygon>
                    <polygon id="Fill-16" points="65.9773731 353.093249 65.6388657 367.380999 79.1164776 358.675381"></polygon>
                    <polygon id="Fill-17" points="51.6208955 343.489472 63.1928358 336.038266 51.9092537 331.233869"></polygon>
                    <polygon id="Fill-18" points="37.6066866 319.623034 47.2729552 313.401151 37.8574328 309.399578"></polygon>
                    <polygon id="Fill-19" points="23.5924776 295.767885 31.3405373 290.762782 23.7930746 287.564032"></polygon>
                    <polygon id="Fill-20" points="129.220597 405.033422 128.731642 425.392525 147.951343 413.011481"></polygon>
                    <polygon id="Fill-21" points="115.165015 383.204149 114.726209 401.531104 132.015164 390.379384"></polygon>
                    <polygon id="Fill-22" points="101.109433 361.373621 100.708239 377.668429 116.091522 367.746032"></polygon>
                    <polygon id="Fill-23" points="87.0475821 339.520513 86.7090746 353.808263 100.174149 345.102646"></polygon>
                    <polygon id="Fill-24" points="72.6760597 329.930535 84.248 322.466785 72.9769552 317.674932"></polygon>
                    <polygon id="Fill-25" points="58.6731343 306.052807 68.3268657 299.830925 58.9238806 295.841896"></polygon>
                    <polygon id="Fill-26" points="44.6589254 282.186369 52.3944478 277.19381 44.8595224 273.982516"></polygon>
                    <polygon id="Fill-27" points="150.279522 391.460687 149.790567 411.81979 168.985194 399.45129"></polygon>
                    <polygon id="Fill-28" points="136.22394 369.630159 135.785134 387.957115 153.07409 376.805394"></polygon>
                    <polygon id="Fill-29" points="122.168358 347.800885 121.767164 364.095694 137.162985 354.173297"></polygon>
                    <polygon id="Fill-30" points="108.100239 325.946524 107.774269 340.234274 121.239343 331.528656"></polygon>
                    <polygon id="Fill-31" points="93.7425075 316.360309 105.326985 308.896559 94.0308657 304.092162"></polygon>
                    <polygon id="Fill-32" points="79.7170149 292.50516 89.4083582 286.25819 79.9802985 282.26916"></polygon>
                    <polygon id="Fill-33" points="65.7140896 268.616143 73.4621493 263.61104 65.9146866 260.41229"></polygon>
                    <polygon id="Fill-34" points="171.338448 377.887951 170.86203 398.247054 190.056657 385.878554"></polygon>
                    <polygon id="Fill-35" points="157.282866 356.057424 156.84406 374.384379 174.15809 363.232659"></polygon>
                    <polygon id="Fill-36" points="143.227284 334.215606 142.838627 350.522959 158.234448 340.613106"></polygon>
                    <polygon id="Fill-37" points="129.159164 312.373788 128.808119 326.661538 142.298269 317.955921"></polygon>
                    <polygon id="Fill-38" points="114.797672 302.778793 126.369612 295.315043 115.08603 290.52319"></polygon>
                    <polygon id="Fill-39" points="100.783463 278.923644 110.449731 272.676674 101.046746 268.700188"></polygon>
                    <polygon id="Fill-40" points="86.7805373 255.045916 94.528597 250.040813 86.968597 246.842063"></polygon>
                    <polygon id="Fill-41" points="192.408657 364.313962 191.907164 384.673065 211.126866 372.304565"></polygon>
                    <polygon id="Fill-42" points="178.341791 342.484688 177.915522 360.7991 195.204478 349.659924"></polygon>
                    <polygon id="Fill-43" points="164.286209 320.630326 163.897552 336.950224 179.268299 327.040371"></polygon>
                    <polygon id="Fill-44" points="150.230627 298.801053 149.892119 313.088803 163.357194 304.383185"></polygon>
                    <polygon id="Fill-45" points="135.864119 289.219856 147.43606 281.743562 136.177552 276.951709"></polygon>
                    <polygon id="Fill-46" points="121.84991 265.353418 131.516179 259.106447 122.125731 255.104874"></polygon>
                    <polygon id="Fill-47" points="107.846985 241.47569 115.607582 236.470587 108.035045 233.271837"></polygon>
                    <polygon id="Fill-48" points="213.467582 350.76506 212.96609 371.111619 232.185791 358.730575"></polygon>
                    <polygon id="Fill-49" points="199.412 328.911953 198.960657 347.238909 216.274687 336.087188"></polygon>
                    <polygon id="Fill-50" points="185.356418 307.068881 184.955224 323.376234 200.351045 313.453837"></polygon>
                    <polygon id="Fill-51" points="171.289552 285.227063 170.951045 299.514813 184.416119 290.82174"></polygon>
                    <polygon id="Fill-52" points="156.941851 275.649629 168.501254 268.185879 157.230209 263.381482"></polygon>
                    <polygon id="Fill-53" points="142.905075 251.771901 152.558806 245.537475 143.180896 241.548446"></polygon>
                    <polygon id="Fill-54" points="128.890866 227.905463 136.651463 222.90036 129.091463 219.689066"></polygon>
                    <polygon id="Fill-55" points="234.51397 337.192325 234.037552 357.52634 253.244716 345.15784"></polygon>
                    <polygon id="Fill-56" points="220.458388 315.337963 220.019582 333.677463 237.333612 322.513199"></polygon>
                    <polygon id="Fill-57" points="206.402806 293.50869 206.014149 309.816043 221.397433 299.90619"></polygon>
                    <polygon id="Fill-58" points="192.347224 271.679416 192.008716 285.942078 205.486328 277.261549"></polygon>
                    <polygon id="Fill-59" points="177.997015 262.079403 189.556418 254.628197 178.285373 249.8238"></polygon>
                    <polygon id="Fill-60" points="163.971522 238.212965 173.637791 231.978538 164.209731 227.976965"></polygon>
                    <polygon id="Fill-61" points="149.957313 214.323947 157.71791 209.318844 150.15791 206.132638"></polygon>
                    <polygon id="Fill-62" points="255.572896 323.61959 255.109015 343.953604 274.303642 331.585104"></polygon>
                    <polygon id="Fill-63" points="241.517313 301.789062 241.078507 320.090929 258.38 308.939209"></polygon>
                    <polygon id="Fill-64" points="227.461731 279.947244 227.085612 296.229509 242.456358 286.3322"></polygon>
                    <polygon id="Fill-65" points="213.406149 258.105426 213.067642 272.368088 226.557791 263.675015"></polygon>
                    <polygon id="Fill-66" points="199.029612 248.509176 210.639164 241.045426 199.31797 236.253574"></polygon>
                    <polygon id="Fill-67" points="185.03797 224.631449 194.691701 218.384478 185.276179 214.407993"></polygon>
                    <polygon id="Fill-68" points="171.023761 200.753721 178.759284 195.761162 171.211821 192.562412"></polygon>
                    <polygon id="Fill-69" points="276.644358 310.0456 276.16794 330.379615 295.375104 318.011115"></polygon>
                    <polygon id="Fill-70" points="262.588776 288.192493 262.137433 306.531993 279.451463 295.380272"></polygon>
                    <polygon id="Fill-71" points="248.533194 266.361965 248.144537 282.681862 263.527821 272.759465"></polygon>
                    <polygon id="Fill-72" points="234.465075 244.520147 234.126567 258.807897 247.616716 250.114824"></polygon>
                    <polygon id="Fill-73" points="220.09606 234.92766 231.668 227.46391 220.409493 222.684601"></polygon>
                    <polygon id="Fill-74" points="206.093134 211.049932 215.746866 204.840594 206.356418 200.826476"></polygon>
                    <polygon id="Fill-75" points="192.078925 187.194784 199.826985 182.189681 192.279522 178.978387"></polygon>
                    <polygon id="Fill-76" points="297.690746 296.472865 297.226866 316.819424 316.421493 304.438379"></polygon>
                    <polygon id="Fill-77" points="283.635164 274.618503 283.208896 292.958003 300.510388 281.806282"></polygon>
                    <polygon id="Fill-78" points="269.579582 252.789229 269.190925 269.109126 284.586746 259.186729"></polygon>
                    <polygon id="Fill-79" points="255.524 230.947412 255.185493 245.235162 268.650567 236.542088"></polygon>
                    <polygon id="Fill-80" points="241.162507 221.357434 252.734448 213.906228 241.450866 209.101831"></polygon>
                    <polygon id="Fill-81" points="227.159582 197.490996 236.813313 191.256569 227.385254 187.254996"></polygon>
                    <polygon id="Fill-82" points="213.122806 173.624557 220.883403 168.619454 213.33594 165.420704"></polygon>
                    <polygon id="Fill-83" points="318.762209 282.900129 318.285791 303.234144 337.480418 290.878188"></polygon>
                    <polygon id="Fill-84" points="304.706627 261.070856 304.267821 279.385268 321.569313 268.233547"></polygon>
                    <polygon id="Fill-85" points="290.638507 239.216494 290.262388 255.523847 305.645672 245.613994"></polygon>
                    <polygon id="Fill-86" points="276.582925 217.374676 276.244418 231.649882 289.72203 222.969353"></polygon>
                    <polygon id="Fill-87" points="262.228955 207.787207 273.800896 200.336001 262.517313 195.531604"></polygon>
                    <polygon id="Fill-88" points="248.203463 183.909479 257.869731 177.687597 248.466746 173.686024"></polygon>
                    <polygon id="Fill-89" points="234.223104 160.043041 241.958627 155.050482 234.398627 151.839188"></polygon>
                    <polygon id="Fill-90" points="339.832418 269.31485 339.343463 289.673953 358.53809 277.292909"></polygon>
                    <polygon id="Fill-91" points="325.776836 247.484322 325.33803 265.823822 342.626985 254.672101"></polygon>
                    <polygon id="Fill-92" points="311.721254 225.642504 311.307522 241.962401 326.715881 232.040004"></polygon>
                    <polygon id="Fill-93" points="297.665672 203.800687 297.327164 218.075893 310.792239 209.395363"></polygon>
                    <polygon id="Fill-94" points="283.295403 194.205691 294.867343 186.729397 283.583761 181.950088"></polygon>
                    <polygon id="Fill-95" points="269.26991 170.350543 278.923642 164.116116 269.533194 160.101999"></polygon>
                    <polygon id="Fill-96" points="255.255701 146.472815 263.016299 141.480256 255.456299 138.268962"></polygon>
                    <polygon id="Fill-97" points="360.891343 255.753404 360.402388 276.112507 379.609552 263.731463"></polygon>
                    <polygon id="Fill-98" points="346.823224 233.911587 346.371881 252.238543 363.698448 241.086822"></polygon>
                    <polygon id="Fill-99" points="332.767642 212.069769 332.391522 228.377122 347.762269 218.467269"></polygon>
                    <polygon id="Fill-100" points="318.713313 190.227951 318.362269 204.503157 331.852418 195.822628"></polygon>
                    <polygon id="Fill-101" points="304.350567 180.635465 315.935045 173.184259 304.638925 168.379862"></polygon>
                    <polygon id="Fill-102" points="290.347642 156.769026 300.001373 150.547144 290.585851 146.545571"></polygon>
                    <polygon id="Fill-103" points="276.310866 132.902588 284.071463 127.897485 276.524 124.698735"></polygon>
                    <polygon id="Fill-104" points="381.950269 242.180669 381.461313 262.539772 400.681015 250.146184"></polygon>
                    <polygon id="Fill-105" points="367.894687 220.338851 367.455881 238.665807 384.757373 227.526631"></polygon>
                    <polygon id="Fill-106" points="353.839104 198.508324 353.43791 214.815676 368.821194 204.893279"></polygon>
                    <polygon id="Fill-107" points="339.783522 176.666506 339.41994 190.954256 352.897552 182.248638"></polygon>
                    <polygon id="Fill-108" points="325.405731 167.065238 336.990209 159.614032 325.69409 154.809635"></polygon>
                    <polygon id="Fill-109" points="311.402806 143.21009 321.056537 136.975663 311.653552 132.986634"></polygon>
                    <polygon id="Fill-110" points="297.377313 119.332362 305.125373 114.327259 297.590448 111.128509"></polygon>
                    <polygon id="Fill-111" points="403.009194 228.607934 402.520239 248.967037 421.714866 236.585993"></polygon>
                    <polygon id="Fill-112" points="388.953612 206.766116 388.514806 225.105616 405.803761 213.953896"></polygon>
                    <polygon id="Fill-113" points="374.89803 184.923044 374.509373 201.242941 389.880119 191.320544"></polygon>
                    <polygon id="Fill-114" points="360.82991 163.093771 360.491403 177.381521 373.969015 168.675903"></polygon>
                    <polygon id="Fill-115" points="346.494746 153.495012 358.054149 146.043806 346.770567 141.239409"></polygon>
                    <polygon id="Fill-116" points="332.45797 129.628574 342.111701 123.394147 332.708716 119.392574"></polygon>
                    <polygon id="Fill-117" points="318.432478 105.762135 326.193075 100.757032 318.645612 97.5582824"></polygon>
                    <polygon id="Fill-118" points="424.068119 215.033944 423.579164 235.393047 442.798866 223.024547"></polygon>
                    <polygon id="Fill-119" points="410.012537 193.204671 409.548657 211.531626 426.887761 200.379906"></polygon>
                    <polygon id="Fill-120" points="395.956955 171.369125 395.568299 187.663934 410.964119 177.741537"></polygon>
                    <polygon id="Fill-121" points="381.901373 149.521035 381.550328 163.796241 395.02794 155.115712"></polygon>
                    <polygon id="Fill-122" points="367.527343 139.924785 379.099284 132.473579 367.815701 127.669182"></polygon>
                    <polygon id="Fill-123" points="353.524418 116.058347 363.178149 109.823921 353.762627 105.834891"></polygon>
                    <polygon id="Fill-124" points="339.510209 92.1919088 347.258269 87.1868059 339.710806 83.9880559"></polygon>
                    <polygon id="Fill-125" points="445.127045 201.461209 444.650627 221.820312 463.857791 209.439268"></polygon>
                    <polygon id="Fill-126" points="431.058925 179.643225 430.632657 197.957637 447.921612 186.805916"></polygon>
                    <polygon id="Fill-127" points="416.990806 157.795135 416.627224 174.089944 432.010507 164.180091"></polygon>
                    <polygon id="Fill-128" points="402.947761 135.947046 402.609254 150.222251 416.086866 141.529178"></polygon>
                    <polygon id="Fill-129" points="388.582507 126.365849 400.154448 118.902099 388.870866 114.097701"></polygon>
                    <polygon id="Fill-130" points="374.579582 102.488121 384.245851 96.2536941 374.830328 92.2646647"></polygon>
                    <polygon id="Fill-131" points="360.576657 78.6216824 368.324716 73.6040353 360.764716 70.4178294"></polygon>
                    <polygon id="Fill-132" points="466.197254 187.888474 465.695761 208.247576 484.902925 195.879076"></polygon>
                    <polygon id="Fill-133" points="452.141672 166.051674 451.690328 184.378629 468.991821 173.239453"></polygon>
                    <polygon id="Fill-134" points="438.08609 144.209856 437.672358 160.529753 453.080716 150.607356"></polygon>
                    <polygon id="Fill-135" points="424.019224 122.368038 423.680716 136.655788 437.145791 127.962715"></polygon>
                    <polygon id="Fill-136" points="409.648955 112.784332 421.220896 105.333126 409.962388 100.528729"></polygon>
                    <polygon id="Fill-137" points="395.623463 88.9178941 405.289731 82.6834676 395.899284 78.6818941"></polygon>
                    <polygon id="Fill-138" points="381.631821 65.0401662 389.367343 60.0601515 381.819881 56.8363132"></polygon>
                    <polygon id="Fill-139" points="487.268716 174.314484 486.779761 194.673587 505.974388 182.305087"></polygon>
                    <polygon id="Fill-140" points="473.213134 152.478938 472.749254 170.818438 490.038209 159.666718"></polygon>
                    <polygon id="Fill-141" points="459.133731 130.643393 458.745075 146.950746 474.128358 137.040893"></polygon>
                    <polygon id="Fill-142" points="445.078149 108.801575 444.739642 123.076781 458.204716 114.396251"></polygon>
                    <polygon id="Fill-143" points="430.704119 99.2141059 442.27606 91.7503559 431.017552 86.9585029"></polygon>
                    <polygon id="Fill-144" points="416.701194 75.3476676 426.354925 69.1257853 416.95194 65.1116676"></polygon>
                    <polygon id="Fill-145" points="402.686985 51.4812294 410.422507 46.4761265 402.912657 43.2648324"></polygon>
                    <polygon id="Fill-146" points="508.302567 160.754293 507.813612 181.113396 527.033313 168.732351"></polygon>
                    <polygon id="Fill-147" points="494.246985 138.912475 493.808179 157.239431 511.122209 146.100254"></polygon>
                    <polygon id="Fill-148" points="480.191403 117.075675 479.802746 133.383028 495.198567 123.448087"></polygon>
                    <polygon id="Fill-149" points="466.137075 95.2401294 465.811104 109.502791 479.276179 100.822262"></polygon>
                    <polygon id="Fill-150" points="451.781851 85.6438794 463.353791 78.1926735 452.057672 73.3882765"></polygon>
                    <polygon id="Fill-151" points="437.756358 61.7774412 447.41009 55.5430147 438.007104 51.5539853"></polygon>
                    <polygon id="Fill-152" points="423.753433 37.8997132 431.501493 32.9071544 423.941493 29.6958603"></polygon>
                    <polygon id="Fill-153" points="529.37403 147.186575 528.897612 167.533134 548.092239 155.164634"></polygon>
                    <polygon id="Fill-154" points="515.318448 125.344757 514.892179 143.659169 532.181134 132.519993"></polygon>
                    <polygon id="Fill-155" points="501.250328 103.509212 500.861672 119.816565 516.257493 109.894168"></polygon>
                    <polygon id="Fill-156" points="487.194746 81.6611221 486.856239 95.9488721 500.321313 87.2557985"></polygon>
                    <polygon id="Fill-157" points="472.837015 72.0736529 484.408955 64.6099029 473.13791 59.81805"></polygon>
                    <polygon id="Fill-158" points="458.822806 48.2072147 468.476537 41.9727882 459.08609 37.9712147"></polygon>
                    <polygon id="Fill-159" points="444.808597 24.3294868 452.569194 19.3369279 444.996657 16.1256338"></polygon>
                    <path d="M634.25994,286.995784 L613.748896,278.265078 L613.209791,300.581063 L592.686209,291.837813 L592.134567,314.141254 L571.648597,305.38546 L571.084418,327.701446 L550.58591,318.97074 L550.021731,341.286725 L529.485612,332.556019 L528.971582,354.85946 L508.448,346.11621 L507.908896,368.432196 L487.397851,359.676401 L486.846209,382.004931 L466.335164,373.261681 L465.783522,395.565122 L445.25994,386.834416 L444.708299,409.150401 L424.209791,400.407151 L423.645612,422.723137 L403.12203,413.967343 L402.620537,436.270784 L382.071881,427.552622 L381.532776,449.856063 L361.021731,441.125357 L360.482627,463.416254 L339.946507,454.710637 L339.432478,477.001534 L318.896358,468.258284 L318.357254,490.561725 L297.833672,481.831019 L297.294567,504.147004 L276.770985,495.39121 L276.231881,517.707196 L255.720836,508.97649 L255.156657,531.279931 L234.658149,522.549225 L234.119045,544.852666 L213.608,536.12196 L213.068896,558.437946 L192.520239,549.682151 L192.006209,572.010681 L171.47009,563.254887 L170.680239,595.744151 L185.499343,586.185534 L184.709493,619.603063 L199.528597,610.05699 L198.713672,643.474519 L213.545313,633.928446 L212.717851,667.358519 L227.536955,657.799901 L226.734567,691.217431 L241.541134,681.646269 L240.751284,715.076343 L255.570388,705.530269 L254.768,738.935254 L269.574567,729.389181 L268.797254,762.80671 L283.616358,753.260637 L282.776358,786.69071 L297.608,777.119549 L296.780537,810.537078 L311.599642,800.991004 L310.809791,834.39599 L331.872478,820.848343 L352.935164,807.275607 L360.582925,802.333225 L373.997851,793.690328 L381.633075,788.773034 L395.048,780.130137 L402.683224,775.212843 L416.110687,766.557401 L423.758448,761.640107 L437.173373,752.984666 L444.808597,748.054828 L458.23606,739.411931 L465.871284,734.482093 L479.298746,725.839196 L486.93397,720.921901 L500.37397,712.26646 L508.009194,707.349166 L521.411582,698.706269 L529.046806,693.788975 L542.486806,685.133534 L550.134567,680.191151 L563.549493,671.548254 L571.184716,666.618416 L584.599642,657.988063 L592.222328,653.070769 L605.662328,644.415328 L613.31009,639.48549 L626.725015,630.855137 L634.360239,625.925299 L647.775164,617.269857 L655.422925,612.340019 L668.837851,603.709666 L676.498149,598.779828 L689.913075,590.124387 L697.535761,585.207093 L710.950687,576.551651 L718.610985,571.621813 L732.038448,562.978916 L739.673672,558.061622 L753.07606,549.418725 L760.711284,544.488887 L774.126209,535.84599 L781.799045,530.916151 L802.849194,517.343416 L823.886806,503.795769 L793.170388,490.674622 L807.964418,481.128549 L777.248,468.045034 L792.067104,458.511504 L761.325612,445.415446 L776.144716,435.881916 L745.415761,422.773313 L760.209791,413.22724 L729.493373,400.143725 L744.312478,390.597651 L713.54591,377.501593 L728.39009,367.942975 L697.63606,354.872004 L712.455164,345.325931 L681.713672,332.217328 L696.532776,322.696343 L665.803821,309.612828 L680.610388,300.041666 L649.881433,286.945607 L664.688,277.412078 L634.811582,264.692343 L634.25994,286.995784 Z M628.806209,300.543431 L634.046806,297.169063 L643.612776,290.984813 L648.853373,287.610446 L648.314269,308.847637 L628.806209,300.543431 Z M607.743522,314.116166 L612.959045,310.766887 L622.562627,304.557549 L627.765612,301.170637 L627.264119,322.420372 L607.743522,314.116166 Z M644.71606,323.173019 L648.038448,321.040519 L659.560239,313.601857 L662.845015,311.481901 L662.393672,330.686946 L644.71606,323.173019 Z M586.693373,327.663813 L591.883821,324.327078 L601.49994,318.11774 L606.740537,314.743372 L606.21397,335.980563 L586.693373,327.663813 Z M623.66591,336.745754 L626.975761,334.60071 L638.485015,327.199681 L641.782328,325.067181 L641.30591,344.272225 L623.66591,336.745754 Z M565.618149,341.249093 L570.846209,337.874725 L580.449791,331.703019 L585.677851,328.341196 L585.151284,349.540754 L565.618149,341.249093 Z M660.663522,345.802607 L662.042627,344.911975 L675.482627,336.269078 L676.861731,335.353357 L676.448,352.538799 L660.663522,345.802607 Z M602.603224,350.293401 L605.900537,348.18599 L617.409791,340.772416 L620.732179,338.639916 L620.255761,357.84496 L602.603224,350.293401 Z M544.568,354.809284 L549.770985,351.472549 L559.387104,345.275754 L564.59009,341.926475 L564.088597,363.11349 L544.568,354.809284 Z M639.600836,359.375343 L640.992478,358.472166 L654.407403,349.829269 L655.811582,348.926093 L655.397851,366.09899 L639.600836,359.375343 Z M581.540537,363.891225 L584.850388,361.746181 L596.372179,354.332607 L599.68203,352.187563 L599.218149,371.392607 L581.540537,363.891225 Z M523.505313,368.382019 L528.720836,365.03274 L538.324418,358.84849 L543.53994,355.474122 L543.02591,376.686225 L523.505313,368.382019 Z M676.548299,368.44474 L690.878448,359.212269 L690.502328,374.390651 L676.548299,368.44474 Z M618.525612,372.960622 L619.929791,372.044901 L633.357254,363.376916 L634.761433,362.498828 L634.322627,379.671725 L618.525612,372.960622 Z M560.502925,377.451416 L563.800239,375.318916 L575.309493,367.905343 L578.606806,365.772843 L578.142925,384.965343 L560.502925,377.451416 Z M502.467701,381.954754 L507.658149,378.605475 L517.261731,372.408681 L522.489791,369.059401 L521.963224,390.271504 L502.467701,381.954754 Z M655.523224,382.017475 L669.815761,372.785004 L669.452179,387.963387 L655.523224,382.017475 Z M597.488,386.520813 L598.867104,385.617637 L612.307104,376.962196 L613.661134,376.071563 L613.285015,393.257004 L597.488,386.520813 Z M539.427701,391.024151 L542.725015,388.879107 L554.234269,381.490622 L557.556657,379.345578 L557.080239,398.538078 L539.427701,391.024151 Z M481.392478,395.52749 L486.608,392.153122 L496.199045,385.968872 L501.414567,382.619593 L500.913075,403.831696 L481.392478,395.52749 Z M692.495761,391.061784 L704.882627,383.096269 L704.569194,396.217416 L692.495761,391.061784 Z M634.448,395.59021 L648.753075,386.370284 L648.376955,401.536122 L634.448,395.59021 Z M576.412776,400.093549 L577.816955,399.177828 L591.231881,390.534931 L592.610985,389.656843 L592.222328,406.82974 L576.412776,400.093549 Z M518.377552,404.584343 L521.674866,402.451843 L533.184119,395.038269 L536.481433,392.918313 L536.042627,412.123357 L518.377552,404.584343 Z M460.317254,409.112769 L465.545313,405.738401 L475.148896,399.541607 L480.364418,396.192328 L479.850388,417.404431 L460.317254,409.112769 Z M671.433075,404.659607 L683.832478,396.65646 L683.506507,409.777607 L671.433075,404.659607 Z M613.397851,409.150401 L627.702925,399.943019 L627.326806,415.083769 L613.397851,409.150401 Z M555.337552,413.65374 L556.766806,412.763107 L570.169194,404.107666 L571.573373,403.217034 L571.147104,420.389931 L555.337552,413.65374 Z M497.314866,418.169622 L500.599642,416.049666 L512.13397,408.611004 L515.431284,406.478504 L514.954866,425.696093 L497.314866,418.169622 Z M708.443224,413.71646 L718.924418,406.955181 L718.648597,418.069269 L708.443224,413.71646 Z M439.254567,422.67296 L444.47009,419.323681 L454.073672,413.126887 L459.301731,409.765063 L458.775164,430.98971 L439.254567,422.67296 Z M650.370388,418.219799 L662.757254,410.229196 L662.443821,423.362887 L650.370388,418.219799 Z M592.335164,422.723137 L606.627701,413.50321 L606.276657,428.64396 L592.335164,422.723137 Z M534.29994,427.239019 L535.691582,426.323299 L549.106507,417.680401 L550.498149,416.777225 L550.109493,433.962666 L534.29994,427.239019 Z M476.239642,431.742357 L479.549493,429.609857 L491.058746,422.18374 L494.368597,420.05124 L493.904716,439.256284 L476.239642,431.742357 Z M687.355463,427.289196 L697.849194,420.515372 L697.573373,431.654549 L687.355463,427.289196 Z M418.204418,436.245696 L423.41994,432.896416 L433.023522,426.699622 L438.239045,423.325254 L437.725015,444.549901 L418.204418,436.245696 Z M629.320239,431.792534 L641.707104,423.801931 L641.393672,436.935622 L629.320239,431.792534 Z M571.272478,436.295872 L585.577552,427.075946 L585.226507,442.241784 L571.272478,436.295872 Z M513.237254,440.811754 L514.616358,439.921122 L528.031284,431.240593 L529.448,430.362504 L529.034269,447.522857 L513.237254,440.811754 Z M724.328,436.346049 L732.928597,430.814093 L732.690388,439.921122 L724.328,436.346049 Z M455.164418,445.315093 L458.499343,443.182593 L470.008597,435.756475 L473.30591,433.623975 L472.84203,452.829019 L455.164418,445.315093 Z M666.305313,440.849387 L676.77397,434.100651 L676.510687,445.21474 L666.305313,440.849387 Z M397.141731,449.818431 L402.344716,446.469151 L411.960836,440.259813 L417.176358,436.910534 L416.662328,458.110093 L397.141731,449.818431 Z M608.232478,445.352725 L620.656955,437.374666 L620.330985,450.508357 L608.232478,445.352725 Z M550.197254,449.868607 L564.527403,440.648681 L564.151284,455.814519 L550.197254,449.868607 Z M492.16203,454.371946 L493.566209,453.468769 L506.981134,444.838416 L508.385313,443.922696 L507.959045,461.095593 L492.16203,454.371946 Z M703.265313,449.918784 L711.840836,444.411916 L711.627701,453.493857 L703.265313,449.918784 Z M434.139343,458.875284 L437.436657,456.755328 L448.94591,449.32921 L452.230687,447.221799 L451.779343,466.414299 L434.139343,458.875284 Z M645.242627,454.422122 L655.748896,447.673387 L655.473075,458.787475 L645.242627,454.422122 Z M376.066507,463.40371 L381.294567,460.016799 L390.910687,453.832549 L396.113672,450.483269 L395.612179,471.695372 L376.066507,463.40371 Z M587.194866,458.938004 L599.581731,450.947401 L599.268299,464.081093 L587.194866,458.938004 Z M529.147104,463.441343 L543.452179,454.23396 L543.101134,469.37471 L529.147104,463.441343 Z M740.262925,459.000725 L746.920239,454.698093 L746.757254,461.747887 L740.262925,459.000725 Z M471.111881,467.944681 L472.503522,467.041504 L485.930985,458.398607 L487.347701,457.495431 L486.896358,474.680872 L471.111881,467.944681 Z M682.227701,463.491519 L690.790687,457.959563 L690.577552,467.066593 L682.227701,463.491519 Z M413.064119,472.460563 L416.361433,470.328063 L427.883224,462.901946 L431.180537,460.769446 L430.741731,479.961946 L413.064119,472.460563 Z M624.167403,468.007401 L634.648597,461.258666 L634.397851,472.36021 L624.167403,468.007401 Z M355.016358,476.963901 L360.244418,473.589534 L369.848,467.417828 L375.063522,464.04346 L374.536955,485.255563 L355.016358,476.963901 Z M566.144716,472.51074 L578.531582,464.520137 L578.218149,477.653828 L566.144716,472.51074 Z M508.084418,477.014078 L522.376955,467.794151 L522.038448,482.934901 L508.084418,477.014078 Z M719.212776,472.548372 L725.87009,468.258284 L725.694567,475.34571 L719.212776,472.548372 Z M450.049194,481.52996 L451.440836,480.61424 L464.868299,471.971343 L466.25994,471.068166 L465.846209,488.241063 L450.049194,481.52996 Z M661.152478,477.064254 L669.740537,471.532299 L669.527403,480.626784 L661.152478,477.064254 Z M392.001433,486.033299 L395.323821,483.900799 L406.833075,476.462137 L410.117851,474.354725 L409.666507,493.547225 L392.001433,486.033299 Z M603.117254,481.580137 L613.610985,474.806313 L613.347701,485.932946 L603.117254,481.580137 Z M333.953672,490.536637 L339.181731,487.174813 L348.772776,480.978019 L354.000836,477.616196 L353.499343,498.853387 L333.953672,490.536637 Z M545.069493,486.083475 L557.468896,478.092872 L557.155463,491.226563 L545.069493,486.083475 Z M756.185313,481.617769 L760.949493,478.557004 L760.811582,483.59974 L756.185313,481.617769 Z M487.021731,490.586813 L501.339343,481.354343 L500.950687,496.520181 L487.021731,490.586813 Z M698.15009,486.146196 L704.832478,481.843563 L704.619343,488.905901 L698.15009,486.146196 Z M428.986507,495.102696 L430.390687,494.186975 L443.805612,485.531534 L445.209791,484.653446 L444.79606,501.801254 L428.986507,495.102696 Z M640.114866,490.624446 L648.690388,485.105034 L648.464716,494.186975 L640.114866,490.624446 Z M370.951284,499.59349 L374.23606,497.473534 L385.757851,490.047416 L389.055164,487.914916 L388.616358,507.107416 L370.951284,499.59349 Z M582.067104,495.140328 L592.535761,488.391593 L592.297552,499.505681 L582.067104,495.140328 Z M312.890985,504.084284 L318.119045,500.735004 L327.71009,494.563299 L332.938149,491.188931 L332.411582,512.413578 L312.890985,504.084284 Z M524.006806,499.643666 L536.406209,491.653063 L536.080239,504.799299 L524.006806,499.643666 Z M735.122627,495.190504 L739.874269,492.12974 L739.748896,497.159931 L735.122627,495.190504 Z M465.971582,504.147004 L480.264119,494.927078 L479.900537,510.092916 L465.971582,504.147004 Z M677.087403,499.706387 L683.744716,495.416299 L683.581731,502.466093 L677.087403,499.706387 Z M407.923821,508.675431 L409.315463,507.772254 L422.755463,499.116813 L424.134567,498.201093 L423.720836,515.399078 L407.923821,508.675431 Z M619.052179,504.197181 L627.615164,498.677769 L627.414567,507.772254 L619.052179,504.197181 Z M349.87606,513.166225 L353.173373,511.046269 L364.707701,503.620151 L368.017552,501.475107 L367.553672,520.70524 L349.87606,513.166225 Z M560.991881,508.713063 L571.498149,501.951784 L571.222328,513.078416 L560.991881,508.713063 Z M772.095164,504.259901 L774.941134,502.42846 L774.86591,505.439049 L772.095164,504.259901 Z M291.840836,517.682107 L297.056358,514.30774 L306.647403,508.12349 L311.862925,504.77421 L311.361433,525.986313 L291.840836,517.682107 Z M502.956657,513.203857 L515.330985,505.225799 L515.03009,518.372034 L502.956657,513.203857 Z M714.072478,508.775784 L718.824119,505.689931 L718.686209,510.732666 L714.072478,508.775784 Z M444.908896,517.732284 L459.201433,508.499813 L458.862925,523.665651 L444.908896,517.732284 Z M656.037254,513.279122 L662.694567,508.989034 L662.531582,516.026284 L656.037254,513.279122 Z M386.873672,522.235622 L388.265313,521.332446 L401.680239,512.689549 L403.084418,511.798916 L402.670687,528.959269 L386.873672,522.235622 Z M597.976955,517.78246 L606.552478,512.250504 L606.339343,521.332446 L597.976955,517.78246 Z M328.813373,526.726416 L332.123224,524.619004 L343.645015,517.192887 L346.929791,515.060387 L346.490985,534.265431 L328.813373,526.726416 Z M539.941731,522.298343 L550.422925,515.537063 L550.147104,526.651151 L539.941731,522.298343 Z M751.045015,517.820093 L753.878448,516.001196 L753.803224,519.011784 L751.045015,517.820093 Z M270.765612,531.254843 L275.993672,527.867931 L285.609791,521.683681 L290.812776,518.346946 L290.273672,539.559049 L270.765612,531.254843 Z M481.881433,526.776593 L494.280836,518.798534 L493.954866,531.944769 L481.881433,526.776593 Z M692.997254,522.335975 L697.761433,519.287754 L697.63606,524.305401 L692.997254,522.335975 Z M423.846209,531.292475 L438.151284,522.072549 L437.775164,537.238387 L423.846209,531.292475 Z M634.974567,526.839313 L641.644418,522.536681 L641.456358,529.599019 L634.974567,526.839313 Z M365.78591,535.795813 L367.202627,534.905181 L380.63009,526.262284 L382.009194,525.359107 L381.608,542.532004 L365.78591,535.795813 Z M576.914269,531.355196 L585.477254,525.82324 L585.276657,534.905181 L576.914269,531.355196 Z M307.763224,540.299151 L311.060537,538.166651 L322.569791,530.778166 L325.879642,528.645666 L325.403224,547.838166 L307.763224,540.299151 Z M518.891582,535.871078 L529.360239,529.109799 L529.096955,540.223887 L518.891582,535.871078 Z M729.982328,531.392828 L732.815761,529.561387 L732.753075,532.584519 L729.982328,531.392828 Z M249.715463,544.80249 L254.943522,541.45321 L264.534567,535.26896 L269.75009,531.894593 L269.23606,553.131784 L249.715463,544.80249 Z M460.818746,540.361872 L473.205612,532.383813 L472.917254,545.492416 L460.818746,540.361872 Z M671.934567,535.90871 L676.698746,532.847946 L676.573373,537.878137 L671.934567,535.90871 Z M402.783522,544.852666 L417.088597,535.670372 L416.737552,550.798578 L402.783522,544.852666 Z M613.911881,540.424593 L620.569194,536.12196 L620.406209,543.196843 L613.911881,540.424593 Z M344.735761,549.393637 L346.127403,548.465372 L359.554866,539.835019 L360.946507,538.931843 L360.557851,556.092196 L344.735761,549.393637 Z M555.839045,544.927931 L564.427104,539.383431 L564.21397,548.49046 L555.839045,544.927931 Z M286.688,553.884431 L289.997851,551.751931 L301.519642,544.338357 L304.816955,542.193313 L304.353075,561.398357 L286.688,553.884431 Z M497.816358,549.431269 L508.297552,542.66999 L508.034269,553.796622 L497.816358,549.431269 Z M708.919642,544.965563 L711.778149,543.109034 L711.690388,546.157254 L708.919642,544.965563 Z M228.665313,558.375225 L233.868299,555.025946 L243.471881,548.829151 L248.687403,545.479872 L248.18591,566.691975 L228.665313,558.375225 Z M439.781134,553.922063 L452.168,545.944004 L451.84203,559.077696 L439.781134,553.922063 Z M650.871881,549.481446 L655.63606,546.420681 L655.523224,551.450872 L650.871881,549.481446 Z M381.733373,558.45049 L396.02591,549.218019 L395.662328,564.383857 L381.733373,558.45049 Z M592.824119,553.997328 L599.519045,549.694696 L599.330985,556.757034 L592.824119,553.997328 Z M323.673075,562.953828 L325.089791,562.050651 L338.492179,553.39521 L339.908896,552.492034 L339.47009,569.677475 L323.673075,562.953828 Z M534.788896,558.488122 L543.364418,552.96871 L543.138746,562.063196 L534.788896,558.488122 Z M265.637851,567.444622 L268.947701,565.324666 L280.456955,557.911093 L283.754269,555.778593 L283.302925,574.958549 L265.637851,567.444622 Z M476.753672,563.004004 L487.247403,556.242725 L486.984119,567.369357 L476.753672,563.004004 Z M687.869493,558.538299 L690.715463,556.706857 L690.627701,559.72999 L687.869493,558.538299 Z M207.602627,571.985593 L212.818149,568.598681 L222.421731,562.414431 L227.637254,559.040063 L227.110687,580.252166 L207.602627,571.985593 Z M418.70591,567.507343 L431.105313,559.504196 L430.804418,572.637887 L418.70591,567.507343 Z M629.834269,563.054181 L634.58591,559.993416 L634.460537,565.011063 L629.834269,563.054181 Z M360.670687,572.010681 L374.975761,562.790754 L374.599642,577.956593 L360.670687,572.010681 Z M571.786507,567.570063 L578.456358,563.279975 L578.268299,570.317225 L571.786507,567.570063 Z M302.635463,576.514019 L304.027104,575.623387 L317.429493,566.98049 L318.846209,566.077313 L318.432478,583.25021 L302.635463,576.514019 Z M513.726209,572.060857 L522.301731,566.541446 L522.088597,575.623387 L513.726209,572.060857 Z M244.575164,581.017357 L247.885015,578.909946 L259.394269,571.45874 L262.704119,569.338784 L262.240239,588.543828 L244.575164,581.017357 Z M455.703522,576.57674 L466.159642,569.828004 L465.908896,580.942093 L455.703522,576.57674 Z M666.794269,572.111034 L669.640239,570.279593 L669.577552,573.302725 L666.794269,572.111034 Z M186.527403,585.545784 L191.742925,582.18396 L201.359045,575.974622 L206.574567,572.612799 L206.048,593.824901 L186.527403,585.545784 Z M397.643224,581.067534 L410.03009,573.076931 L409.729194,586.223166 L397.643224,581.067534 Z M608.771582,576.626916 L613.510687,573.566151 L613.397851,578.596343 L608.771582,576.626916 Z M339.595463,585.583416 L353.913075,576.36349 L353.549493,591.529328 L339.595463,585.583416 Z M550.736358,581.142799 L557.368597,576.840166 L557.205612,583.88996 L550.736358,581.142799 Z M281.572776,590.07421 L282.951881,589.183578 L296.366806,580.553225 L297.770985,579.650049 L297.357254,596.822946 L281.572776,590.07421 Z M492.688597,585.621049 L501.251582,580.114181 L501.050985,589.196122 L492.688597,585.621049 Z M223.512478,594.590093 L226.822328,592.457593 L238.331582,585.031475 L241.641433,582.911519 L241.177552,602.116563 L223.512478,594.590093 Z M434.615761,590.162019 L445.109493,583.40074 L444.858746,594.48974 L434.615761,590.162019 Z M645.744119,585.683769 L648.59009,583.852328 L648.514866,586.862916 L645.744119,585.683769 Z M376.593075,594.640269 L388.97994,586.66221 L388.666507,599.783357 L376.593075,594.640269 Z M587.708896,590.187107 L592.460537,587.126343 L592.335164,592.156534 L587.708896,590.187107 Z M318.545313,599.143607 L332.837851,589.936225 L332.486806,605.102063 L318.545313,599.143607 Z M529.661134,594.70299 L536.318448,590.425446 L536.142925,597.47524 L529.661134,594.70299 Z M260.497552,603.65949 L261.889194,602.756313 L275.329194,594.100872 L276.708299,593.21024 L276.294567,610.395681 L260.497552,603.65949 Z M471.613373,599.206328 L480.188896,593.674372 L479.950687,602.781401 L471.613373,599.206328 Z M202.449791,608.162828 L205.759642,606.030328 L217.268896,598.616754 L220.578746,596.496799 L220.114866,615.689299 L202.449791,608.162828 Z M413.578149,603.72221 L424.046806,596.960931 L423.79606,608.075019 L413.578149,603.72221 Z M624.681433,599.24396 L627.53994,597.399975 L627.452179,600.423107 L624.681433,599.24396 Z M355.530388,608.213004 L367.917254,600.234946 L367.603821,613.356093 L355.530388,608.213004 Z M566.621134,603.759843 L571.397851,600.686534 L571.25994,605.741813 L566.621134,603.759843 Z M297.47009,612.741431 L311.800239,603.50896 L311.424119,618.674799 L297.47009,612.741431 Z M508.598448,608.275725 L515.268299,603.973093 L515.092776,611.035431 L508.598448,608.275725 Z M239.434866,617.232225 L240.839045,616.341593 L254.25397,607.686151 L255.645612,606.782975 L255.231881,623.955872 L239.434866,617.232225 Z M450.550687,612.779063 L459.113672,607.259651 L458.913075,616.329049 L450.550687,612.779063 Z M392.502925,617.269857 L402.984119,610.521122 L402.74591,621.647754 L392.502925,617.269857 Z M603.618746,612.816696 L606.439642,610.985254 L606.389493,613.995843 L603.618746,612.816696 Z M334.455164,621.78574 L346.854567,613.795137 L346.541134,626.928828 L334.455164,621.78574 Z M545.570985,617.332578 L550.335164,614.259269 L550.197254,619.314549 L545.570985,617.332578 Z M276.407403,626.301622 L290.737552,617.081696 L290.37397,632.23499 L276.407403,626.301622 Z M487.535761,621.84846 L494.193075,617.545828 L494.03009,624.608166 L487.535761,621.84846 Z M218.384716,630.80496 L219.763821,629.914328 L233.216358,621.246343 L234.595463,620.368254 L234.194269,637.528607 L218.384716,630.80496 Z M429.475463,626.339254 L438.050985,620.832387 L437.862925,629.926872 L429.475463,626.339254 Z M371.465313,630.855137 L381.93397,624.106401 L381.670687,635.22049 L371.465313,630.855137 Z M582.543522,626.401975 L585.414567,624.55799 L585.314269,627.568578 L582.543522,626.401975 Z M313.405015,635.358475 L325.791881,627.367872 L325.478448,640.514107 L313.405015,635.358475 Z M524.520836,630.905313 L529.285015,627.844549 L529.159642,632.87474 L524.520836,630.905313 Z M255.357254,639.874357 L269.662328,630.654431 L269.311284,645.795181 L255.357254,639.874357 Z M466.485612,635.408651 L473.142925,631.118563 L472.97994,638.168357 L466.485612,635.408651 Z M408.425313,639.91199 L417.013373,634.380034 L416.787701,643.487063 L408.425313,639.91199 Z M350.39009,644.427872 L360.883821,637.666593 L360.595463,648.780681 L350.39009,644.427872 Z M561.493373,639.97471 L564.351881,638.130725 L564.251582,641.153857 L561.493373,639.97471 Z M292.354866,648.93121 L304.741731,640.953151 L304.428299,654.086843 L292.354866,648.93121 Z M503.445612,644.490593 L508.222328,641.417284 L508.084418,646.460019 L503.445612,644.490593 Z M234.294567,653.434549 L248.612179,644.227166 L248.248597,659.38046 L234.294567,653.434549 Z M445.422925,649.006475 L452.080239,644.703843 L451.904716,651.753637 L445.422925,649.006475 Z M387.387701,653.497269 L395.925612,647.977857 L395.725015,657.072343 L387.387701,653.497269 Z M329.327403,658.013151 L339.808597,651.251872 L339.557851,662.353416 L329.327403,658.013151 Z M540.430687,653.534901 L543.264119,651.70346 L543.226507,654.714049 L540.430687,653.534901 Z M271.279642,662.503946 L283.666507,654.525887 L283.365612,667.63449 L271.279642,662.503946 Z M482.395463,658.050784 L487.147104,654.990019 L487.046806,660.007666 L482.395463,658.050784 Z M424.347701,662.566666 L431.017552,658.276578 L430.854567,665.326372 L424.347701,662.566666 Z M366.312478,667.070004 L374.875463,661.550593 L374.662328,670.632534 L366.312478,667.070004 Z M308.264716,671.573343 L318.74591,664.812063 L318.482627,675.938696 L308.264716,671.573343 Z M519.368,667.107637 L522.21397,665.276196 L522.138746,668.286784 L519.368,667.107637 Z M250.216955,676.089225 L262.628896,668.086078 L262.302925,681.219769 L250.216955,676.089225 Z M461.332776,671.623519 L466.084418,668.55021 L465.959045,673.592946 L461.332776,671.623519 Z M403.285015,676.139401 L409.967403,671.836769 L409.791881,678.899107 L403.285015,676.139401 Z M345.237254,680.630196 L353.812776,675.110784 L353.599642,684.205269 L345.237254,680.630196 Z M287.214567,685.146078 L297.695761,678.384799 L297.432478,689.511431 L287.214567,685.146078 Z M498.317851,680.667828 L501.163821,678.848931 L501.101134,681.859519 L498.317851,680.667828 Z M440.27009,685.196254 L445.034269,682.13549 L444.908896,687.165681 L440.27009,685.196254 Z M382.234866,689.699593 L388.892179,685.409504 L388.716657,692.471843 L382.234866,689.699593 Z M324.187104,694.215475 L332.75009,688.670975 L332.549493,697.76546 L324.187104,694.215475 Z M266.151881,698.718813 L276.633075,691.957534 L276.394866,703.071622 L266.151881,698.718813 Z M477.255164,694.265651 L480.101134,692.421666 L480.02591,695.432254 L477.255164,694.265651 Z M419.207403,698.76899 L423.971582,695.708225 L423.846209,700.725872 L419.207403,698.76899 Z M361.184716,703.272328 L367.84203,698.994784 L367.679045,706.044578 L361.184716,703.272328 Z M303.136955,707.78821 L311.712478,702.24371 L311.486806,711.325651 L303.136955,707.78821 Z M456.192478,707.825843 L459.038448,705.994401 L458.963224,709.00499 L456.192478,707.825843 Z M398.144716,712.341725 L402.921433,709.268416 L402.783522,714.298607 L398.144716,712.341725 Z M340.096955,716.857607 L346.791881,712.567519 L346.616358,719.617313 L340.096955,716.857607 Z M282.061731,721.360946 L290.637254,715.82899 L290.436657,724.910931 L282.061731,721.360946 Z M435.142328,721.398578 L437.975761,719.567137 L437.900537,722.590269 L435.142328,721.398578 Z M377.107104,725.91446 L381.858746,722.841151 L381.733373,727.883887 L377.107104,725.91446 Z M319.046806,730.417799 L325.704119,726.12771 L325.553672,733.177504 L319.046806,730.417799 Z M414.054567,734.971313 L416.913075,733.139872 L416.850388,736.163004 L414.054567,734.971313 Z M356.019343,739.487196 L360.79606,736.426431 L360.670687,741.456622 L356.019343,739.487196 Z M297.996657,743.990534 L304.641433,739.700446 L304.490985,746.762784 L297.996657,743.990534 Z M393.004418,748.544049 L395.862925,746.712607 L395.787701,749.723196 L393.004418,748.544049 Z M334.969194,753.047387 L339.720836,749.999166 L339.608,755.016813 L334.969194,753.047387 Z M371.966806,762.10424 L374.800239,760.272799 L374.725015,763.295931 L371.966806,762.10424 Z M313.906507,766.632666 L318.683224,763.559357 L318.557851,768.589549 L313.906507,766.632666 Z M350.891582,775.676975 L353.737552,773.858078 L353.674866,776.843578 L350.891582,775.676975 Z M329.816358,789.237166 L332.662328,787.418269 L332.599642,790.428857 L329.816358,789.237166 Z" id="Fill-160"></path>
                    <polygon id="Fill-161" points="550.420418 133.601296 549.931463 153.972943 569.151164 141.591899"></polygon>
                    <polygon id="Fill-162" points="536.364836 111.76575 535.938567 130.080162 553.24006 118.940985"></polygon>
                    <polygon id="Fill-163" points="522.309254 89.9302044 521.920597 106.237557 537.316418 96.3151603"></polygon>
                    <polygon id="Fill-164" points="508.266209 68.0883868 507.915164 82.3761368 521.392776 73.6705191"></polygon>
                    <polygon id="Fill-165" points="493.903463 58.4921368 505.48794 51.0409309 494.191821 46.2490779"></polygon>
                    <polygon id="Fill-166" points="479.889254 34.6256985 489.542985 28.4038162 480.14 24.4022426"></polygon>
                    <polygon id="Fill-167" points="466.078149 2.54035441 465.852478 10.7567515 473.613075 5.76419265"></polygon>
                </g>
            </g>
        </g>
    </g>
</svg>