<svg id="Layer_1" data-name="Layer 1" xmlns="http://www.w3.org/2000/svg" viewBox="0 0 260 90"><defs><style>.cls-1,.cls-2{fill:#fff;}.cls-1,.cls-2,.cls-3,.cls-5,.cls-8{fill-rule:evenodd;}.cls-2{opacity:0.8;isolation:isolate;}.cls-3{fill:#e6e6e5;}.cls-4,.cls-6,.cls-7{fill:none;stroke-width:0.5px;}.cls-4{stroke:#fff;}.cls-5{fill:#5abf8b;}.cls-6{stroke:#5abf8b;}.cls-7{stroke:#488fcc;}.cls-8{fill:#488fcc;}</style></defs><path id="Fill-2063" class="cls-1" d="M252.67,57.8V50.5h-10.1l9.5-18.7v-6h-17.8v7.3h9.1l-9.5,19.1v5.6Zm-28.6-19.2h-3.4V34.8c0-1.4.7-2.2,1.7-2.2s1.7.8,1.7,2.2Zm8.1,10.4V46.8h-8.1v1.9c0,1.4-.7,2.2-1.7,2.2s-1.7-.8-1.7-2.2V44h11.5V34.5c0-5.8-3.7-9.3-9.8-9.3s-9.8,3.4-9.8,9.3V49c0,5.8,3.7,9.3,9.8,9.3s9.8-3.5,9.8-9.3Zm-30.9-17.2c0,1.4-.8,2.2-1.7,2.2h-2.1V24.4h1.9c1.2,0,1.9.8,1.9,2.3v5.1Zm9,26a11,11,0,0,1-1-4.7V44c0-2.9-1-5.4-3.3-6.2,2.3-.7,3.3-3.2,3.3-6.2V26.4c0-6-3-9.2-10-9.2h-10V57.7h8.1V41.4h2.1c1,0,1.7.7,1.7,2.2v9.8a11.48,11.48,0,0,0,.7,4.5h8.4Zm-23.7-9.4c0-5.5-3-7.5-6.8-9.4-3.5-1.7-4.5-2.4-4.5-4.6,0-1.5.5-2.7,1.7-2.7,1.5,0,1.6,1.5,1.6,3v1.5h7.7V34.6c0-5.5-3-9.6-9.3-9.6s-9.4,4-9.4,9.4c0,4.9,2.2,7.5,6.5,9.5,3.5,1.6,4.7,2.4,4.7,4.7,0,2-.8,2.7-1.9,2.7s-2-.6-2-2.8V46.9h-7.8v2c0,5.6,3.5,9.5,9.7,9.5,6.4,0,9.8-4.4,9.8-10ZM167,57.8l-7.3-19.5,7-12.5h-8.4l-3.6,6.7a16.35,16.35,0,0,0-1.6,4.7V14.8H145v43h8.1V46.3l.9-1.7,4.2,13.2Zm-25.4,0V34.2c0-6-2.7-9-7.4-9a5,5,0,0,0-4.4,2.5v-2h-8v32h8.1V34.8c0-1.4.8-2.2,1.7-2.2s1.7.8,1.7,2.2V57.7h8.3Zm-31.4,0h8.1v-32h-8.1Zm0-34.6h8.1V16h-8.1Zm-2.1,34.6V50.5h-7.5V17.3h-8.2V57.8Z"/><path id="Fill-2065" class="cls-2" d="M201,73.7h0a.1.1,0,0,1-.1.1h-1a.1.1,0,0,1-.1-.1V70a2,2,0,0,0-.1-.8,1.42,1.42,0,0,0-.2-.6c-.1-.1-.2-.3-.4-.3a1.27,1.27,0,0,0-.6-.1,1.14,1.14,0,0,0-.8.3,3.82,3.82,0,0,0-.9.9v4.4a.1.1,0,0,0-.1.1h-1a.1.1,0,0,1-.1-.1V64.6l.1-.1h1a.1.1,0,0,1,.1.1v3.7a3.92,3.92,0,0,1,1-.8,2.33,2.33,0,0,1,2,0,1.34,1.34,0,0,1,.7.6,2,2,0,0,1,.4.8A4.1,4.1,0,0,1,201,70Zm-8.1-.5v.3c0,.1,0,.1-.1.2a.35.35,0,0,1-.2.1l-.3.1h-.6a2.2,2.2,0,0,1-.8-.1,2.09,2.09,0,0,1-.6-.4.86.86,0,0,1-.3-.6,2.77,2.77,0,0,1-.1-.9V68.4H189c-.1,0-.1,0-.2-.1s-.1-.2-.1-.3v-.3a.1.1,0,0,1,.1-.1h1V66l.1-.1h1a.1.1,0,0,1,.1.1v1.5h1.6a.1.1,0,0,1,.1.1v.3a.37.37,0,0,1-.1.3c0,.1-.1.1-.2.1H191v3.4a1.49,1.49,0,0,0,.2.9.61.61,0,0,0,.7.3h.3l.2-.1.2-.1h.2v.4Zm-10.5-2.6a2.77,2.77,0,0,0-.1-.9c-.1-.3-.2-.5-.3-.8a1,1,0,0,0-.6-.5,2.13,2.13,0,0,0-1.8,0,2.65,2.65,0,0,0-.6.5,1.14,1.14,0,0,0-.3.8,3.4,3.4,0,0,0-.1,1,2.77,2.77,0,0,0,.1.9c.1.3.2.5.3.8a1,1,0,0,0,.6.5,2.92,2.92,0,0,0,.9.2,1.88,1.88,0,0,0,.8-.2,2.65,2.65,0,0,0,.6-.5,1.14,1.14,0,0,0,.3-.8,1.64,1.64,0,0,0,.2-1Zm1.2,0a6.75,6.75,0,0,1-.2,1.4,2.38,2.38,0,0,1-.6,1.1,2.29,2.29,0,0,1-1,.7,4.16,4.16,0,0,1-2.7,0,1.6,1.6,0,0,1-.9-.7,3.33,3.33,0,0,1-.6-1,4.47,4.47,0,0,1,0-2.8,2.38,2.38,0,0,1,.6-1.1,2.29,2.29,0,0,1,1-.7,3.19,3.19,0,0,1,1.4-.3,5.85,5.85,0,0,1,1.3.2,1.6,1.6,0,0,1,.9.7,3.33,3.33,0,0,1,.6,1,7.72,7.72,0,0,1,.2,1.5Zm-8.4,2.6v.3c0,.1,0,.1-.1.2a.35.35,0,0,1-.2.1c-.1,0-.2.1-.3.1H174a2.2,2.2,0,0,1-.8-.1,2.09,2.09,0,0,1-.6-.4.86.86,0,0,1-.3-.6,2.77,2.77,0,0,1-.1-.9V68.4h-.9c-.1,0-.1,0-.2-.1s-.1-.2-.1-.3a.76.76,0,0,1,.1-.4.1.1,0,0,1,.1-.1h1V65.9l.1-.1h1a.1.1,0,0,1,.1.1v1.5h1.7a.1.1,0,0,1,.1.1v.3a.37.37,0,0,1-.1.3c0,.1-.1.1-.2.1h-1.6v3.4a1.49,1.49,0,0,0,.2.9.78.78,0,0,0,.7.3h.3l.2-.1.2-.1h.2V73Zm-9.7.5h0a.1.1,0,0,1-.1.1h-.9a.1.1,0,0,1-.1-.1v-.9a3.92,3.92,0,0,1-1,.8,1.93,1.93,0,0,1-1,.3,3.55,3.55,0,0,1-1-.2,1.34,1.34,0,0,1-.7-.6,2,2,0,0,1-.4-.8,4.48,4.48,0,0,1-.1-1.1V67.4l.1-.1h.9a.1.1,0,0,1,.1.1V71a2,2,0,0,0,.1.8,1.42,1.42,0,0,0,.2.6c.1.1.2.3.4.3a1.27,1.27,0,0,0,.6.1,1.14,1.14,0,0,0,.8-.3,7.64,7.64,0,0,0,.9-.9V67.3l.1-.1h.9a.1.1,0,0,1,.1.1v.1Zm-9.4-3a2.77,2.77,0,0,0-.1-.9c-.1-.3-.2-.5-.3-.8a1,1,0,0,0-.6-.5,2.12,2.12,0,0,0-1.8,0,2.65,2.65,0,0,0-.6.5,1.14,1.14,0,0,0-.3.8,3.4,3.4,0,0,0-.1,1,2.77,2.77,0,0,0,.1.9c.1.3.2.5.3.8a1,1,0,0,0,.6.5,2.12,2.12,0,0,0,1.8,0,2.65,2.65,0,0,0,.6-.5,1.14,1.14,0,0,0,.3-.8A3.75,3.75,0,0,0,156.07,70.7Zm1.2-.1a6.75,6.75,0,0,1-.2,1.4,2.38,2.38,0,0,1-.6,1.1,2.29,2.29,0,0,1-1,.7,3.19,3.19,0,0,1-1.4.3,5.85,5.85,0,0,1-1.3-.2,1.6,1.6,0,0,1-.9-.7,3.33,3.33,0,0,1-.6-1,5.9,5.9,0,0,1-.2-1.4,6.75,6.75,0,0,1,.2-1.4,2.38,2.38,0,0,1,.6-1.1,2.29,2.29,0,0,1,1-.7,3.87,3.87,0,0,1,2.6,0,1.6,1.6,0,0,1,.9.7,3.33,3.33,0,0,1,.6,1,3.08,3.08,0,0,1,.3,1.3Zm-9.9-.1v3.3l-.1.1h-.9a.1.1,0,0,1-.1-.1V70.4l-2.5-4.9a.35.35,0,0,0-.1-.2v-.1c.1,0,.1-.1.2-.1h.9a.1.1,0,0,1,.1.1l.1.1,1.2,2.5a6.89,6.89,0,0,1,.3.8,3,3,0,0,0,.4.8h0c.1-.3.2-.5.3-.8l.3-.8,1.2-2.5a.1.1,0,0,1,.1-.1l.1-.1h.9c.1,0,.1,0,.2.1v.3Zm-10,3.8a.71.71,0,0,0-.3-.6,1.49,1.49,0,0,0-.9-.2l-1.6-.1a1.38,1.38,0,0,1-.4.3c-.1.1-.2.2-.2.3a.37.37,0,0,0-.1.3v.3a.84.84,0,0,0,.4.7,2.54,2.54,0,0,0,1.2.2,2,2,0,0,0,.8-.1c.2-.1.4-.1.6-.3a1.38,1.38,0,0,0,.3-.4c.2-.1.3-.2.2-.4Zm-.5-4.8a1.69,1.69,0,0,0-.3-1,1.21,1.21,0,0,0-1-.3,1.27,1.27,0,0,0-.6.1,1.38,1.38,0,0,0-.4.3.76.76,0,0,0-.2.4.9.9,0,0,0-.1.5,1.21,1.21,0,0,0,1.1,1.3h.2a1.27,1.27,0,0,0,.6-.1,1.38,1.38,0,0,0,.4-.3.76.76,0,0,0,.2-.4A.9.9,0,0,0,136.87,69.5Zm1.7-1.6a.37.37,0,0,1-.1.3c0,.1-.1.1-.2.1h-.9a.55.55,0,0,1,.3.5,1.27,1.27,0,0,1,.1.6,2.92,2.92,0,0,1-.2.9,1.79,1.79,0,0,1-.5.7,2.51,2.51,0,0,1-.7.4,3.55,3.55,0,0,1-1,.2,1.7,1.7,0,0,1-.7-.1.76.76,0,0,1-.5-.2c-.1.1-.1.2-.2.3s-.1.2-.1.4a.52.52,0,0,0,.2.4,1.27,1.27,0,0,0,.6.1l1.6.1c.3,0,.6.1.8.1s.5.2.7.3a1,1,0,0,1,.4.5.88.88,0,0,1,.1.7,2.35,2.35,0,0,1-.2.8,1.75,1.75,0,0,1-1.4,1.1,5.85,5.85,0,0,1-1.3.2,6.15,6.15,0,0,1-1.3-.1l-.9-.3a1.21,1.21,0,0,1-.5-.5.82.82,0,0,1-.1-.7.6.6,0,0,1,.1-.4.76.76,0,0,1,.2-.4,1.38,1.38,0,0,0,.3-.4,1.38,1.38,0,0,1,.4-.3,1,1,0,0,1-.5-.4,1.42,1.42,0,0,1-.2-.6.84.84,0,0,1,.2-.7c.1-.2.3-.4.4-.6-.1-.2-.3-.4-.3-.6a2,2,0,0,1-.1-.8,2.92,2.92,0,0,1,.2-.9,1.79,1.79,0,0,1,.5-.7,2,2,0,0,1,.8-.4,2.92,2.92,0,0,1,.9-.2h.5c.2,0,.3,0,.4.1h1.8c.1,0,.1,0,.2.1s.2.2.2.4Zm-8.4,5.8h0a.1.1,0,0,1-.1.1h-1a.1.1,0,0,1-.1-.1V70a2,2,0,0,0-.1-.8,1.42,1.42,0,0,0-.2-.6c-.1-.1-.2-.3-.4-.3a1.27,1.27,0,0,0-.6-.1,1.14,1.14,0,0,0-.8.3,3.82,3.82,0,0,0-.9.9v4.4l-.1.1h-1a.1.1,0,0,1-.1-.1V67.5a.1.1,0,0,1,.1-.1h.9v1a3.92,3.92,0,0,1,1-.8,1.69,1.69,0,0,1,1-.3,3.55,3.55,0,0,1,1,.2,1.34,1.34,0,0,1,.7.6,2,2,0,0,1,.4.8A4.1,4.1,0,0,1,130,70Zm-8.6-8.2c0,.2,0,.4-.2.5a.66.66,0,0,1-.6.1.75.75,0,0,1-.5-.1,1.08,1.08,0,0,1,0-1.1.66.66,0,0,1,.6-.1.75.75,0,0,1,.5.1,1.42,1.42,0,0,1,.2.6Zm-.2,8.1h0a.1.1,0,0,1-.1.1h-.9a.1.1,0,0,1-.1-.1V67.4l.1-.1h1a.1.1,0,0,1,.1.1v6.2Zm-3.8,0h0c0,.1-.1.1-.1.2h-1a.1.1,0,0,1-.1-.1l-.1-.1-2.6-3.4v3.5l-.1.1h-1a.1.1,0,0,1-.1-.1V64.5l.1-.1h1a.1.1,0,0,1,.1.1v5.6l2.3-2.5.1-.1a.35.35,0,0,1,.2-.1h1a.1.1,0,0,1,.1.1v.3c0,.1-.1.1-.2.2L115,70.2l2.5,3.2c0,.1.1.1.1.2Zm-8.4,0h0a.1.1,0,0,1-.1.1h-1a.1.1,0,0,1-.1-.1V70a2,2,0,0,0-.1-.8,1.42,1.42,0,0,0-.2-.6c-.1-.2-.2-.3-.4-.3a1.27,1.27,0,0,0-.6-.1,1.14,1.14,0,0,0-.8.3,3.82,3.82,0,0,0-.9.9v4.4l-.1.1h-1a.1.1,0,0,1-.1-.1V67.5a.1.1,0,0,1,.1-.1h.9l.1.1v.9a3.92,3.92,0,0,1,1-.8,1.69,1.69,0,0,1,1-.3,3.55,3.55,0,0,1,1,.2,1.34,1.34,0,0,1,.7.6,2,2,0,0,1,.4.8,4.1,4.1,0,0,1,.1,1.1Zm-8.5-8.1c0,.2,0,.4-.2.5a.66.66,0,0,1-.6.1.75.75,0,0,1-.5-.1,1.08,1.08,0,0,1,0-1.1.66.66,0,0,1,.6-.1.75.75,0,0,1,.5.1.73.73,0,0,1,.2.6Zm-.1,8.1h0a.1.1,0,0,1-.1.1h-1a.1.1,0,0,1-.1-.1V67.4l.1-.1h1a.1.1,0,0,1,.1.1v6.2Zm-3.7-.3v.4a.1.1,0,0,1-.1.1h-4a.37.37,0,0,1-.3-.1c-.1-.1-.2-.2-.1-.4V65.1l.1-.1h1a.1.1,0,0,1,.1.1v7.7h3.3a.1.1,0,0,1,.1.1v.2c-.1,0-.1.1-.1.2Z"/><path id="Fill-2067" class="cls-2" d="M252.27,69.4a3.82,3.82,0,0,0-.9-.9,1.61,1.61,0,0,0-.9-.3,1.45,1.45,0,0,0-.7.2,1.21,1.21,0,0,0-.5.5c-.1.2-.2.5-.3.7a2.49,2.49,0,0,0-.1.8,2.77,2.77,0,0,0,.1.9,2.35,2.35,0,0,0,.2.8,2.65,2.65,0,0,0,.5.6,1.85,1.85,0,0,0,.7.2.6.6,0,0,0,.4-.1.76.76,0,0,0,.4-.2.78.78,0,0,0,.4-.4c.2-.2.3-.4.5-.6V69.4Zm1.2,4.3h0c0,.1,0,.1-.1.2h-.8a.1.1,0,0,1-.1-.1v-.9a3.92,3.92,0,0,1-1,.8,2.17,2.17,0,0,1-2.2,0,2.7,2.7,0,0,1-.8-.7,3,3,0,0,1-.4-1,5.85,5.85,0,0,1-.2-1.3,3.18,3.18,0,0,1,.2-1.4,3.7,3.7,0,0,1,.5-1.1,2.7,2.7,0,0,1,.8-.7,2.15,2.15,0,0,1,1.1-.2,3.55,3.55,0,0,1,1,.2,5.5,5.5,0,0,1,.9.7V64.6l.1-.1h.9a.1.1,0,0,1,.1.1v9.1Zm-8.7,0h0c0,.1,0,.1-.1.1h-1a.1.1,0,0,1-.1-.1V64.5l.1-.1h1a.1.1,0,0,1,.1.1v9.2Zm-3.7-5.7v.5h-.2l-.2-.1-.2-.1h-.3a.37.37,0,0,0-.3.1c-.1.1-.2.1-.3.2l-.4.4c-.1.2-.3.4-.4.6v4.1l-.1.1h-1a.1.1,0,0,1-.1-.1V67.4a.1.1,0,0,1,.1-.1h.8a.1.1,0,0,1,.1.1v1.1a2.65,2.65,0,0,1,.5-.6l.4-.4c.1-.1.3-.1.4-.2s.3-.1.4-.1h.4l.2.1.1.1.1.1V68Zm-7.8,2.6a2.77,2.77,0,0,0-.1-.9c-.1-.3-.2-.5-.3-.8a1,1,0,0,0-.6-.5,2.13,2.13,0,0,0-1.8,0,2.65,2.65,0,0,0-.6.5,1.14,1.14,0,0,0-.3.8,3.4,3.4,0,0,0-.1,1,2.77,2.77,0,0,0,.1.9c.1.3.2.5.3.8a1,1,0,0,0,.6.5,2.48,2.48,0,0,0,1.7,0,2.65,2.65,0,0,0,.6-.5,1.14,1.14,0,0,0,.3-.8,1.64,1.64,0,0,0,.2-1Zm1.2,0a6.75,6.75,0,0,1-.2,1.4,2.38,2.38,0,0,1-.6,1.1,2.29,2.29,0,0,1-1,.7,4.16,4.16,0,0,1-2.7,0,1.6,1.6,0,0,1-.9-.7,3.33,3.33,0,0,1-.6-1,5.9,5.9,0,0,1-.2-1.4,6.75,6.75,0,0,1,.2-1.4,2.38,2.38,0,0,1,.6-1.1,2.29,2.29,0,0,1,1-.7,3.19,3.19,0,0,1,1.4-.3,5.85,5.85,0,0,1,1.3.2,1.6,1.6,0,0,1,.9.7,3.33,3.33,0,0,1,.6,1,7.72,7.72,0,0,1,.2,1.5Zm-10.3,3c0,.1,0,.1-.1.2l-.1.1h-1.1c-.1,0-.1,0-.1-.1a.35.35,0,0,1-.1-.2l-1.8-6.6h0l-1.7,6.6c0,.1,0,.1-.1.2l-.1.1h-1.3c-.1,0-.1,0-.1-.1a.35.35,0,0,1-.1-.2l-2.3-8.1v-.2c0-.1,0-.1.1-.1s.1-.1.2-.1h.9a.1.1,0,0,1,.1.1v.1l2,7.3h0l1.9-7.3a.1.1,0,0,1,.1-.1l.1-.1h1a.1.1,0,0,1,.1.1.1.1,0,0,0,.1.1l2,7.3h0l1.9-7.3v-.1a.1.1,0,0,1,.1-.1h.8c.1,0,.1,0,.2.1l.1.1v.2ZM208.37,70a2.3,2.3,0,0,0-.4-1.4,1.85,1.85,0,0,0-1.2-.5,1,1,0,0,0-.7.2,1,1,0,0,0-.5.4c-.1.2-.3.4-.3.6a1.7,1.7,0,0,0-.1.7Zm1.1.3a.6.6,0,0,1-.1.4.37.37,0,0,1-.3.1h-4a2.77,2.77,0,0,0,.1.9,4.88,4.88,0,0,0,.3.7,2.09,2.09,0,0,0,.6.4,2.92,2.92,0,0,0,.9.2,2.2,2.2,0,0,0,.8-.1,1.42,1.42,0,0,0,.6-.2.52.52,0,0,0,.4-.2.35.35,0,0,0,.2-.1h.1l.1.1v.7l-.1.1-.2.2c-.2.1-.3.1-.5.2a1.48,1.48,0,0,1-.7.1c-.3,0-.5.1-.8.1a5.85,5.85,0,0,1-1.3-.2,1.46,1.46,0,0,1-.9-.6,2.07,2.07,0,0,1-.6-1,7.84,7.84,0,0,1-.2-1.4,5.9,5.9,0,0,1,.2-1.4,2.07,2.07,0,0,1,.6-1,3.11,3.11,0,0,1,.9-.7,2.54,2.54,0,0,1,1.2-.2,5,5,0,0,1,1.2.2,1.56,1.56,0,0,1,.8.6,4.05,4.05,0,0,1,.5.9,4.25,4.25,0,0,1,.2,1.1Z"/><g id="Group-2"><path id="Fill-2069" class="cls-3" d="M42.37,10.7A34.9,34.9,0,1,1,7.57,45.6h0a34.72,34.72,0,0,1,34.8-34.9"/><g id="Group"><path id="Stroke-2071" class="cls-4" d="M42.37,10.7A34.9,34.9,0,1,1,7.57,45.6h0A34.72,34.72,0,0,1,42.37,10.7Z"/><polygon id="Fill-2073" class="cls-5" points="30.47 45.1 45.57 29.5 40.87 24.9 67.27 23.2 58.67 47.8 55.37 42.3 38.97 55.2 30.47 45.1"/><polygon id="Stroke-2079" class="cls-6" points="22.77 52.6 28.57 60.1 23.87 64.6 25.37 66.4 16.27 65.8 16.77 55.5 18.37 57.9 22.77 52.6"/><polygon id="Stroke-2083" class="cls-7" points="37.57 57.2 31.27 61.1 44.27 71.6 40.87 71.9 55.87 76 53.97 68 50.37 68.5 37.57 57.2"/><polygon id="Stroke-2087" class="cls-7" points="22.97 50.1 27.97 44.5 20.77 29.8 23.17 27.5 16.47 24.5 15.77 36.8 16.87 35.5 22.97 50.1"/></g><polygon id="Stroke-2075" class="cls-6" points="30.47 45.1 45.57 29.5 40.87 24.9 67.27 23.2 58.67 47.8 55.37 42.3 38.97 55.2 30.47 45.1"/><polygon id="Fill-2077" class="cls-5" points="22.77 52.6 28.57 60.1 23.87 64.6 25.37 66.4 16.27 65.8 16.77 55.5 18.37 57.9 22.77 52.6"/><polygon id="Fill-2081" class="cls-8" points="37.57 57.2 31.27 61.1 44.27 71.6 40.87 71.9 55.87 76 53.97 68 50.37 68.5 37.57 57.2"/><polygon id="Fill-2085" class="cls-8" points="22.97 50.1 27.97 44.5 20.77 29.8 23.17 27.5 16.47 24.5 15.77 36.8 16.87 35.5 22.97 50.1"/></g></svg>