<svg id="Layer_1" data-name="Layer 1" xmlns="http://www.w3.org/2000/svg" viewBox="0 0 1277 309"><defs><style>.cls-1{fill:#991b38;}.cls-1,.cls-2,.cls-3,.cls-4,.cls-5,.cls-6,.cls-7,.cls-8,.cls-9{stroke:#fff;stroke-linecap:round;stroke-linejoin:round;stroke-width:4px;}.cls-2{fill:#981b38;}.cls-3{fill:#1c3866;}.cls-4{fill:#1b3766;}.cls-5{fill:#1d3867;}.cls-6{fill:#1d3967;}.cls-7{fill:#1c3766;}.cls-8{fill:#1f3a68;}.cls-9{fill:#1e3a68;}</style></defs><path class="cls-1" d="M223.73,52.87l-24,24.1c-19.38-13.3-40.45-18.74-63.46-15.83C115.93,63.73,98.5,72.53,84,87c-28.8,28.79-36.14,76.84-9.45,115.15q-12,11.75-24,23.62C19.08,188.45,10.48,120.41,54.07,69.72,99.16,17.29,174.52,13.89,223.73,52.87Z"/><path class="cls-2" d="M72.09,247.52l24-24c21.65,14.74,45.48,19.82,71.27,14.2,19.53-4.27,35.78-14.31,48.79-29.48,25.46-29.7,29.58-74.51,4.73-110.22L245,74.39C279.1,115.71,284.1,186.78,236.56,236,189.37,284.78,116.94,283.7,72.09,247.52Z"/><path class="cls-3" d="M475.47,194.33v93.48H455.53V93.37c1.54-.47,16.65-.6,20-.12v16l.47.14c.69-.82,1.37-1.66,2.09-2.47,11.54-13,26.17-18.58,43.32-17,21.48,2,36.3,13.78,45,33.06,8.92,19.8,8.63,40-.62,59.61-7.78,16.53-20.9,26.83-39.06,30-16.45,2.86-31.47-.43-44.3-11.64a47.13,47.13,0,0,1-3.4-3.38c-1-1.1-2-2.28-3-3.43Zm-1.06-43.68a51.86,51.86,0,0,0,3.67,19.68c5.79,14.1,15.69,23.15,31.41,24.55,16.07,1.43,30.32-5.83,37.55-21.09a53,53,0,0,0,3.89-33.69c-3-15.29-13.75-29.08-32.68-31.48-11.56-1.46-22,1.3-30.52,9.47C478.47,126.93,474.61,138.07,474.41,150.65Z"/><path class="cls-4" d="M692.26,180.54c-.23.54-.35.92-.54,1.26-9,15.83-21.85,26.58-39.9,30.36-13.24,2.78-26.28,1.94-38.68-3.84-15.63-7.28-25.41-19.71-29.87-36.1-5-18.26-3.44-36.21,5.15-53.16,8.8-17.35,23.22-26.94,42.61-29a60.16,60.16,0,0,1,23.73,2.06,49.36,49.36,0,0,1,26.66,19c9.56,13.29,12.62,28.38,12,44.31a3.37,3.37,0,0,1-.28.32.56.56,0,0,1-.2.11,3.55,3.55,0,0,1-.47.08H692l-90,0a.63.63,0,0,0-.24,0,2.42,2.42,0,0,0-.39.23,19.12,19.12,0,0,0,.43,6.45c2.93,15.55,11.47,26.53,26.92,30.88,14.89,4.19,28,.55,38.48-11.17a111.26,111.26,0,0,0,6.8-9.26c.46-.64.84-1.34,1.38-2.22Zm-20-41.74a35.59,35.59,0,0,0-7-16.45c-8-10.25-18.42-15.51-31.38-13.75-14.57,2-24.56,10.44-30,24.08a55.67,55.67,0,0,0-1.71,6.12Z"/><path class="cls-3" d="M382.17,213.59a61.42,61.42,0,0,1-61.68-62.39c.36-33.42,27-61.88,62.49-61.48,34.78.4,61.3,28.85,61,63A61.47,61.47,0,0,1,382.17,213.59Zm-41.65-61c.16,1.68.27,4.41.71,7.08a41.71,41.71,0,0,0,12.37,24.09c9.17,8.74,20.25,12.22,32.77,11,15.05-1.46,26-9.12,32.83-22.54a45.32,45.32,0,0,0,4.45-25.4A42.69,42.69,0,0,0,413,121.93c-8.76-9.83-19.9-14.13-33-13.58a38.94,38.94,0,0,0-26,10.79C344.82,127.94,340.74,139,340.52,152.64Z"/><path class="cls-4" d="M725.77,210.3H706.2c-.55-2-.82-108.18-.3-116.93,1.68-.48,14.67-.64,19.87-.21v13.65l.51.23c.52-.63,1-1.26,1.55-1.9,4.94-6.08,10.88-10.78,18.39-13.31a43.52,43.52,0,0,1,18.23-1.93,55.74,55.74,0,0,1,8.72,1.48c9.9,2.59,16.92,8.67,21.19,18a54.06,54.06,0,0,1,4.64,18c.47,5.49.73,11,.75,16.52.08,21.18,0,42.37,0,63.56v2.9h-20v-2.8q0-31.19,0-62.36c0-6.23-.08-12.47-1.31-18.62-.12-.63-.27-1.25-.43-1.87-2.52-9.89-8.22-15-18.37-16.15a35.72,35.72,0,0,0-13.8.88c-7.25,2-12.25,6.65-15.36,13.41a44.39,44.39,0,0,0-3.84,15c-.49,5.89-.81,11.81-.85,17.71-.1,17.35,0,34.7,0,52.05Z"/><path class="cls-5" d="M1015.85,210.32h-11.08c0-3.51,0-6.93,0-10.35s.06-6.6-.06-10.29a6.69,6.69,0,0,0-.84.75c-6.45,10.12-15.75,16.51-27.06,19.81-19.23,5.62-37.08,2.68-52.79-10.1-9.82-8-15.67-18.63-18.58-30.86-3.76-15.79-2.93-31.31,4-46.1,7.81-16.54,21-26.45,39-29.7,12.7-2.29,25-.93,36.66,4.83a49.1,49.1,0,0,1,18.06,15c.29.39.6.75.9,1.12,0,0,.14,0,.41.12.55-2.08.2-4.19.26-6.27s0-4.47,0-6.71V95.06h11.08Zm-10.35-61.15a48.19,48.19,0,0,0-2.06-13.42c-7.83-26.89-32.71-35.93-52.89-31.77a41.11,41.11,0,0,0-26.32,17.86c-11.62,17.1-12.66,35.36-4.34,54,8.59,19.2,26.46,28.88,47.15,26,14.69-2,25.29-10.08,32.08-23.16C1003.59,170.05,1005.4,160.78,1005.5,149.17Z"/><path class="cls-6" d="M1229,181.57c-.29.6-.49,1.11-.76,1.58-10,17.46-24.85,27.5-45,29.43-12,1.15-23.44-.88-33.91-7.07-12.34-7.28-20.36-18.09-24.6-31.62-5.6-17.85-4.7-35.4,4.08-52.09,8.23-15.64,21.12-25.55,38.71-28.46,16.63-2.75,32,.5,45.15,11.64,9.13,7.75,14.66,17.79,17.76,29.25a74.28,74.28,0,0,1,2.38,16.57c0,.87,0,1.75,0,2.86H1133c-1.46,15.22,6.08,35.2,24.63,44,19.09,9,46.33,6.66,62.06-21.43l4.71,2.68C1225.93,179.75,1227.44,180.64,1229,181.57ZM1132.91,143h88.34c-1.11-15.94-16.08-39.64-43.15-39.94C1151.82,102.76,1133.84,124.57,1132.91,143Z"/><path class="cls-7" d="M179.66,203.63c-18.83,12.62-52.19,14.23-75.71-8.8-23.2-22.72-23.08-56.22-9.7-76.57.52.48,1.06.93,1.55,1.42,7.47,7.45,14.89,14.95,22.42,22.34a3.81,3.81,0,0,1,1.16,3.8c-2.6,15,7.94,29.93,22.91,32.61a26.53,26.53,0,0,0,10.24,0,2.89,2.89,0,0,1,3,.85c7.76,7.84,15.58,15.62,23.38,23.42C179.17,203,179.4,203.33,179.66,203.63Z"/><path class="cls-4" d="M115.82,96.58c21.55-13.68,54.39-12.89,76.59,9.66,22.44,22.81,22,55.56,9.16,75.48L176,156.1a30.28,30.28,0,0,0,.2-11.08,29.14,29.14,0,0,0-23.29-23.24,27.17,27.17,0,0,0-10,0,2.72,2.72,0,0,1-2.77-.82q-11.73-11.83-23.55-23.6C116.31,97.19,116.12,96.93,115.82,96.58Z"/><path class="cls-6" d="M1115.59,95.06h11.58c-17.57,40.54-35,80.85-52.71,121.63l-53-121.64h11.59c13.78,31.44,27.62,63,41.64,94.93C1088.46,158.06,1102,126.6,1115.59,95.06Z"/><path class="cls-8" d="M1245.08,210.3V16.15h11.13V210.3Z"/><path class="cls-8" d="M835.49,210.32h-11.3c-.1-7,0-13.88-.05-20.79s0-13.9,0-20.86V105.6H811.59V95h12.5V53.86h11.35c.1,3.36,0,6.76,0,10.15s0,6.88,0,10.31V94.91h20.06V105.4H835.49V210.32Z"/><path class="cls-9" d="M877.14,210.33h-11c-.53-1.94-.78-107.32-.27-115.3,1.77,0,3.57-.07,5.37-.08s3.66,0,5.83,0c.15,2.52,0,5,.07,7.4s0,4.76.21,7.27c4-8.2,9.71-14.46,18.94-16.49a28.27,28.27,0,0,1,18.52,2.13L909,105a2.66,2.66,0,0,1-.65,0c-10.41-4.64-21.16-.81-26.33,9.38A42.54,42.54,0,0,0,877.82,130c-.42,4.61-.64,9.25-.65,13.88-.07,21.18,0,42.36,0,63.53Z"/></svg>