<?xml version="1.0" encoding="UTF-8"?>
<svg width="815px" height="986px" viewBox="0 0 815 986" version="1.1" xmlns="http://www.w3.org/2000/svg" xmlns:xlink="http://www.w3.org/1999/xlink">
    <!-- Generator: Sketch 61.2 (89653) - https://sketch.com -->
    <title>graphic</title>
    <desc>Created with Sketch.</desc>
    <g id="Page-1" stroke="none" stroke-width="1" fill="none" fill-rule="evenodd" opacity="0.200000003">
        <g id="LinksRez" transform="translate(-325.000000, -1251.000000)" fill="#8AE2FF">
            <g id="Our-Products" transform="translate(110.000000, 1250.000000)">
                <g id="graphic" transform="translate(215.000000, 0.000000)">
                    <path d="M407.001354,479.696341 C400.648264,479.696341 395.465801,485.976829 395.465801,493.671951 C395.465801,501.379268 400.648264,507.659756 407.001354,507.659756 C413.366637,507.659756 418.536906,501.379268 418.536906,493.671951 C418.536906,485.976829 413.366637,479.696341 407.001354,479.696341 M407.001354,526.806098 C391.917339,526.806098 379.625757,511.952439 379.625757,493.671951 C379.625757,475.403659 391.917339,460.55 407.001354,460.55 C422.097563,460.55 434.389145,475.403659 434.389145,493.671951 C434.389145,511.952439 422.097563,526.806098 407.001354,526.806098" id="Fill-1"></path>
                    <path d="M407.037936,474.57561 C401.989607,474.57561 397.36807,477.368293 394.343951,482.246341 C391.819787,486.343902 390.783294,491.380488 391.368607,496.429268 C391.990503,501.490244 394.173234,505.941463 397.563175,508.990244 C400.294637,511.465854 403.562637,512.782927 406.976966,512.782927 C412.037488,512.782927 416.646831,509.990244 419.670951,505.112195 C424.877801,496.660976 423.426712,484.660976 416.451727,478.368293 C413.70807,475.880488 410.44007,474.57561 407.037936,474.57561 M406.976966,531.307317 C400.245861,531.307317 393.831801,528.734146 388.417652,523.843902 C381.747518,517.831707 377.406443,509.039024 376.223622,499.112195 C375.028607,489.14878 377.089399,479.234146 382.076757,471.173171 C387.917697,461.697561 397.24613,456.039024 407.037936,456.039024 C413.76904,456.039024 420.1831,458.612195 425.585055,463.502439 C439.352115,475.917073 442.193324,499.539024 431.925951,516.185366 C426.08501,525.64878 416.780966,531.307317 406.976966,531.307317" id="Fill-3"></path>
                    <path d="M406.978185,462.213415 C401.990827,462.213415 397.125409,463.969512 392.906275,467.262195 C380.858573,476.676829 377.395469,496.176829 385.17526,510.75 C390.004096,519.762195 398.161901,525.140244 407.039155,525.140244 C412.026513,525.140244 416.891931,523.396341 421.086678,520.091463 C426.939812,515.518293 430.951648,508.493902 432.414931,500.27439 C433.853827,492.067073 432.610036,483.664634 428.854275,476.603659 C424.013245,467.591463 415.855439,462.213415 406.978185,462.213415 M407.039155,543.030488 C393.113573,543.030488 380.297648,534.603659 372.749543,520.457317 C360.543319,497.603659 365.981857,467.006098 384.870409,452.237805 C391.479573,447.054878 399.12523,444.323171 406.978185,444.323171 C420.903767,444.323171 433.707499,452.762195 441.267797,466.908537 C447.169707,477.957317 449.169528,491.152439 446.877051,504.042683 C444.596767,516.920732 438.28026,527.981707 429.134737,535.128049 C422.525573,540.29878 414.867722,543.030488 407.039155,543.030488" id="Fill-5"></path>
                    <path d="M406.978185,447.196341 C401.942051,447.196341 396.991275,448.403659 392.272185,450.757317 C382.809618,455.52561 375.43223,464.452439 371.505752,475.915854 C367.603663,487.391463 367.603663,500.013415 371.53014,511.476829 C377.517409,528.903659 391.467379,540.159756 407.014767,540.159756 C412.063096,540.159756 417.013872,538.952439 421.732961,536.59878 C431.207722,531.830488 438.572916,522.903659 442.499394,511.440244 C446.401484,499.964634 446.401484,487.342683 442.475006,475.879268 C436.499931,458.452439 422.549961,447.196341 406.978185,447.196341 M407.014767,557.428049 C385.638633,557.428049 366.554976,541.989024 358.3362,518.086585 C352.946439,502.367073 352.946439,485.05 358.3362,469.318293 C363.689379,453.586585 373.834812,441.330488 386.821454,434.793902 C393.272096,431.562195 400.06417,429.915854 406.978185,429.915854 C428.378707,429.915854 447.462364,445.367073 455.668946,469.269512 C461.046513,484.989024 461.058707,502.306098 455.68114,518.037805 C450.315767,533.769512 440.182528,546.02561 427.183693,552.562195 C420.733051,555.781707 413.95317,557.428049 407.014767,557.428049" id="Fill-7"></path>
                    <path d="M407.037936,431.153659 C402.013996,431.153659 397.038831,432.031707 392.197801,433.787805 C378.979473,438.568293 368.102399,449.3 361.529816,463.995122 C354.969428,478.690244 353.542727,495.604878 357.505787,511.592683 C364.029593,537.860976 384.344846,556.202439 406.976966,556.202439 C411.988712,556.202439 416.97607,555.32439 421.804906,553.568293 C435.035428,548.787805 445.924697,538.056098 452.485085,523.360976 C459.045473,508.653659 460.459981,491.75122 456.509115,475.763415 C449.985309,449.495122 429.670055,431.153659 407.037936,431.153659 M406.976966,572.84878 C378.33319,572.84878 352.567204,549.629268 344.32404,516.373171 C339.324488,496.104878 341.141399,474.702439 349.421145,456.092683 C357.713085,437.495122 371.504533,423.909756 388.25913,417.836585 C394.392727,415.629268 400.684846,414.507317 407.037936,414.507317 C435.693906,414.507317 461.447697,437.726829 469.678667,470.982927 C474.690413,491.25122 472.861309,512.641463 464.581563,531.25122 C456.289622,549.860976 442.498175,563.446341 425.755772,569.519512 C419.622175,571.726829 413.330055,572.84878 406.976966,572.84878" id="Fill-9"></path>
                    <path d="M407.061104,414.62439 C402.159104,414.62439 397.196134,415.319512 392.391687,416.64878 C375.381015,421.392683 360.906701,433.843902 351.651433,451.734146 C342.396164,469.62439 339.420821,490.795122 343.347299,511.380488 C350.212537,547.502439 376.356537,572.734146 406.951358,572.734146 C411.865552,572.734146 416.816328,572.039024 421.63297,570.709756 C456.715194,560.941463 478.725418,518.453659 470.65297,475.978049 C463.799925,439.843902 437.643731,414.62439 407.061104,414.62439 M406.951358,588.746341 C370.174164,588.746341 338.701373,558.404878 330.446015,514.978049 C325.763507,490.221951 329.299776,464.734146 340.445119,443.234146 C351.553881,421.709756 368.954761,406.746341 389.416343,401.05122 C395.220701,399.429268 401.159194,398.62439 407.061104,398.62439 C443.862687,398.62439 475.323284,428.953659 483.554254,472.380488 C493.272896,523.478049 466.799657,574.57561 424.596119,586.307317 C418.779567,587.929268 412.853269,588.746341 406.951358,588.746341" id="Fill-11"></path>
                    <path d="M407.108661,397.867073 C402.316407,397.867073 397.487572,398.391463 392.707512,399.452439 C349.760139,408.976829 321.250497,459.02561 329.12784,510.964634 C336.041855,556.476829 368.746243,589.50122 406.901363,589.50122 C411.693616,589.50122 416.522452,588.964634 421.302512,587.903659 C464.249885,578.379268 492.759527,528.330488 484.882184,476.379268 C477.968169,430.879268 445.263781,397.867073 407.108661,397.867073 M406.901363,604.891463 C362.612646,604.891463 324.628243,566.562195 316.616766,513.745122 C307.471243,453.452439 340.578034,395.379268 390.415034,384.330488 C395.926736,383.086585 401.548184,382.464634 407.108661,382.464634 C451.409572,382.464634 489.369587,420.806098 497.381064,473.610976 C506.538781,533.903659 473.43199,591.976829 423.59499,603.037805 C418.083288,604.269512 412.46184,604.891463 406.901363,604.891463" id="Fill-13"></path>
                    <path d="M407.133049,380.943902 C402.511512,380.943902 397.792422,381.370732 393.158691,382.212195 C342.358363,391.468293 307.251751,448.980488 314.897407,510.443902 C321.701676,565.15122 361.234721,606.395122 406.876975,606.395122 C411.498512,606.395122 416.217601,605.980488 420.851333,605.139024 C471.663855,595.882927 506.758273,538.370732 499.112616,476.907317 C492.308348,422.2 452.775303,380.943902 407.133049,380.943902 M406.876975,621.17561 C355.259646,621.17561 310.507557,574.517073 302.813124,512.639024 C294.191945,443.139024 333.895706,378.090244 391.329587,367.614634 C396.573019,366.67561 401.865228,366.17561 407.133049,366.17561 C458.738184,366.17561 503.465885,412.834146 511.184706,474.712195 C519.805885,544.22439 480.102124,609.273171 422.680437,619.736585 C417.449199,620.67561 412.132601,621.17561 406.876975,621.17561" id="Fill-15"></path>
                    <path d="M407.133049,363.937805 C402.682228,363.937805 398.121661,364.279268 393.658646,364.962195 C334.993169,373.876829 293.265199,438.876829 300.618199,509.852439 C307.349303,574.584146 353.028139,623.413415 406.876975,623.413415 C411.364378,623.413415 415.900557,623.071951 420.375766,622.389024 C479.016855,613.462195 520.744825,548.486585 513.391825,477.510976 C506.660721,412.767073 460.981885,363.937805 407.133049,363.937805 M406.876975,637.559756 C347.16281,637.559756 296.496616,583.413415 289.03387,511.608537 C280.876064,432.913415 327.128019,360.840244 392.195363,350.95 C397.158333,350.193902 402.206661,349.803659 407.133049,349.803659 C466.847213,349.803659 517.525601,403.95 524.976154,475.742683 C533.146154,554.437805 486.894199,626.510976 421.814661,636.42561 C416.876079,637.169512 411.827751,637.559756 406.876975,637.559756" id="Fill-17"></path>
                    <path d="M407.156218,346.859756 C402.863919,346.859756 398.474069,347.140244 394.18177,347.70122 C361.952949,351.847561 332.979934,370.945122 312.628099,401.445122 C292.264069,431.945122 282.923442,470.213415 286.362158,509.213415 C292.93474,584.042683 344.734979,640.493902 406.875755,640.493902 C411.143666,640.493902 415.533516,640.213415 419.838009,639.664634 C486.344248,631.091463 534.717964,558.628049 527.669815,478.152439 C521.072845,403.310976 469.272606,346.859756 407.156218,346.859756 M406.875755,654.006098 C339.015979,654.006098 282.447875,592.359756 275.265591,510.640244 C271.522024,468.054878 281.716233,426.27439 303.933755,392.945122 C326.163472,359.652439 357.806979,338.810976 392.998949,334.27439 C397.705845,333.664634 402.461516,333.359756 407.156218,333.359756 C474.979412,333.359756 531.547516,394.993902 538.754188,476.713415 C546.473009,564.603659 493.660666,643.737805 421.02083,653.091463 C416.313934,653.689024 411.546069,654.006098 406.875755,654.006098" id="Fill-19"></path>
                    <path d="M407.156218,329.758537 C403.059024,329.758537 398.876472,329.978049 394.742696,330.441463 C320.359113,338.62439 265.327457,418.514634 272.070755,508.539024 C278.497009,593.514634 336.418651,657.6 406.863561,657.6 C410.960755,657.6 415.131113,657.380488 419.26489,656.917073 C455.310442,652.953659 487.89289,632.246341 511.07374,598.6 C534.242397,564.965854 545.192636,522.429268 541.924636,478.819512 C535.498382,393.843902 477.601128,329.758537 407.156218,329.758537 M406.863561,670.478049 C330.870367,670.478049 268.375964,601.356098 261.498531,509.697561 C254.194307,412.6 313.518263,326.441463 393.767173,317.612195 C398.230188,317.12439 402.729785,316.868293 407.156218,316.868293 C483.125024,316.868293 545.619427,385.990244 552.49686,477.660976 C556.045322,524.685366 544.241501,570.57561 519.255934,606.856098 C494.282561,643.136585 459.102785,665.465854 420.228218,669.746341 C415.801785,670.234146 411.289994,670.478049 406.863561,670.478049" id="Fill-21"></path>
                    <path d="M407.156218,312.596341 C403.254128,312.596341 399.254487,312.791463 395.303621,313.157317 C313.067084,320.97439 251.377487,408.291463 257.80374,507.828049 C263.876367,601.437805 329.321725,674.754878 406.851367,674.754878 C410.753457,674.754878 414.753099,674.571951 418.703964,674.193902 C500.940501,666.389024 562.630099,579.071951 556.216039,479.523171 C550.131218,385.92561 484.673666,312.596341 407.156218,312.596341 M406.851367,687.010976 C324.090487,687.010976 254.194307,608.718293 247.731472,508.779268 C240.829651,402.49878 306.713994,309.279268 394.535397,300.95 C398.730143,300.559756 402.98586,300.340244 407.156218,300.340244 C489.929293,300.340244 559.801084,378.632927 566.263919,478.571951 C573.177934,584.852439 507.293591,678.084146 419.484382,686.40122 C415.277442,686.803659 411.021725,687.010976 406.851367,687.010976" id="Fill-23"></path>
                    <path d="M407.156218,295.435366 C403.449233,295.435366 399.65689,295.581707 395.913322,295.886585 C305.787248,303.289024 237.43971,398.020732 243.524531,507.081707 C249.365472,610.740244 321.078561,691.923171 406.851367,691.923171 C410.558352,691.923171 414.350696,691.776829 418.082069,691.471951 C508.220337,684.069512 576.580069,589.337805 570.495248,480.264634 C564.654307,376.618293 492.929024,295.435366 407.156218,295.435366 M406.851367,703.557317 C316.018039,703.557317 240.122397,617.606098 233.940024,507.87439 C227.489382,392.423171 299.836561,292.130488 395.267039,284.289024 C399.20571,283.971951 403.241934,283.813415 407.156218,283.813415 C497.977352,283.813415 573.92177,369.752439 580.067561,479.484146 C586.518203,594.935366 514.15883,695.228049 418.740546,703.069512 C414.801875,703.386585 410.777845,703.557317 406.851367,703.557317" id="Fill-25"></path>
                    <path d="M407.156218,278.239024 C403.656531,278.239024 400.059293,278.360976 396.535218,278.617073 C298.507412,285.604878 223.48974,387.75122 229.26971,506.34878 C234.793606,620.056098 312.798815,709.117073 406.851367,709.117073 C410.351054,709.117073 413.948293,708.995122 417.472367,708.739024 C515.500173,701.763415 590.517845,599.604878 584.737875,481.007317 C579.201785,367.3 501.20877,278.239024 407.156218,278.239024 M406.851367,720.117073 C308.006561,720.117073 226.026099,626.507317 220.172964,506.995122 C214.124725,382.34878 292.983516,274.982927 396.010875,267.641463 C399.705666,267.360976 403.461427,267.239024 407.156218,267.239024 C505.98883,267.239024 587.981487,360.84878 593.834621,480.360976 C599.88286,605.007317 521.024069,712.373171 417.99671,719.714634 C414.301919,719.982927 410.533964,720.117073 406.851367,720.117073" id="Fill-27"></path>
                    <path d="M407.156218,261.029268 C403.839442,261.029268 400.510472,261.126829 397.157113,261.321951 C291.276352,267.895122 209.551964,377.480488 214.978307,505.602439 C220.416845,633.382927 310.116128,732.65122 416.862666,726.017073 C522.743427,719.456098 604.455621,609.870732 599.017084,481.760976 C593.785845,357.980488 509.50071,261.029268 407.156218,261.029268 M406.851367,736.7 C299.946307,736.7 211.893218,635.419512 206.418099,506.126829 C200.760069,372.297561 286.130472,257.834146 396.730322,250.968293 C400.181233,250.74878 403.705307,250.65122 407.156218,250.65122 C514.073472,250.65122 602.114367,351.931707 607.589487,481.236585 C613.247516,615.053659 527.877113,729.504878 417.289457,736.382927 C413.826352,736.590244 410.302278,736.7 406.851367,736.7" id="Fill-29"></path>
                    <path d="M407.156218,243.796341 C404.04674,243.796341 400.925069,243.893902 397.791203,244.052439 C284.033099,250.19878 195.626382,367.186585 200.711293,504.820732 C205.784009,642.442683 301.336427,749.442683 416.216382,743.296341 C529.974487,737.15 618.369009,620.162195 613.296293,482.528049 C608.369904,348.662195 517.817039,243.796341 407.156218,243.796341 M406.863561,753.296341 C291.87386,753.296341 197.796919,644.357317 192.663233,505.259756 C187.383218,362.259756 279.240845,240.710976 397.437576,234.320732 C516.622024,227.808537 616.052143,339.10122 621.332158,482.089024 C626.624367,625.10122 534.76674,746.62561 416.557815,753.028049 C413.326397,753.19878 410.058397,753.296341 406.863561,753.296341" id="Fill-31"></path>
                    <path d="M407.133049,226.569512 C404.267452,226.569512 401.340885,226.630488 398.426512,226.776829 C339.492766,229.557317 284.985452,259.910976 244.952452,312.30122 C204.919452,364.654878 184.140825,432.776829 186.421109,504.057317 C191.067034,648.020732 287.863243,760.776829 406.876975,760.776829 C409.730378,760.776829 412.656945,760.703659 415.583512,760.581707 C537.21896,754.85 632.29581,630.471951 627.576721,483.289024 C622.930796,339.337805 526.134587,226.569512 407.133049,226.569512 M406.876975,769.89878 C283.814825,769.89878 183.677452,653.276829 178.885199,504.423171 C176.531751,430.691463 198.054213,360.240244 239.440751,306.106098 C280.851676,251.947561 337.212482,220.532927 398.121661,217.667073 C525.171258,211.728049 630.198437,330.447561 635.112631,482.935366 C640.002437,635.130488 541.657587,763.752439 415.900557,769.691463 C412.876437,769.82561 409.852318,769.89878 406.876975,769.89878" id="Fill-33"></path>
                    <path d="M407.133049,209.32561 C404.462557,209.32561 401.792064,209.386585 399.072796,209.496341 C336.310124,212.069512 278.193378,244.032927 235.319169,299.532927 C192.457154,355.008537 170.020139,427.362195 172.1419,503.276829 C176.446393,657.337805 279.534721,778.020732 406.876975,778.020732 C409.547467,778.020732 412.230154,777.959756 414.949422,777.862195 C544.425631,772.557317 646.221393,640.764634 641.868124,484.081707 C637.551437,330.020732 534.463109,209.32561 407.133049,209.32561 M406.876975,786.508537 C343.919199,786.508537 284.314781,757.35 238.940796,704.386585 C193.481452,651.313415 167.288676,579.996341 165.130333,503.557317 C162.959796,425.386585 186.055288,350.87439 230.185482,293.728049 C274.340064,236.581707 334.224945,203.654878 398.841109,201.020732 C401.609154,200.910976 404.377199,200.85 407.133049,200.85 C470.078631,200.85 529.695243,229.996341 575.057034,282.971951 C620.504184,336.045122 646.721348,407.362195 648.855303,483.789024 C653.367094,645.167073 548.535019,780.886585 415.156721,786.337805 C412.40087,786.447561 409.632825,786.508537 406.876975,786.508537" id="Fill-35"></path>
                    <path d="M407.133049,192.086585 C404.682049,192.086585 402.206661,192.123171 399.706885,192.220732 C333.176258,194.57439 271.352527,228.147561 225.685885,286.757317 C180.031437,345.354878 155.911646,421.976829 157.862691,502.489024 C161.935497,669.647561 275.327781,800.07439 414.303139,795.123171 C551.668885,790.269512 660.171363,651.086585 656.147333,484.867073 C652.184273,320.696341 542.791631,192.086585 407.133049,192.086585 M406.876975,803.110976 C340.139049,803.110976 276.949587,772.123171 228.990467,715.830488 C180.897213,659.428049 153.3509,583.745122 151.363273,502.732927 C149.375646,420.09878 174.105139,341.489024 220.954601,281.354878 C267.840646,221.232927 331.249601,186.781707 399.536169,184.354878 C469.176273,181.879268 535.219139,213.09878 585.043945,271.52561 C633.100616,327.928049 660.671318,403.610976 662.634557,484.623171 C666.768333,655.196341 555.43684,798.00122 414.486049,802.989024 C411.949691,803.086585 409.413333,803.110976 406.876975,803.110976" id="Fill-37"></path>
                    <path d="M407.133049,174.836585 C404.889348,174.836585 402.609064,174.873171 400.365363,174.946341 C255.110079,179.373171 139.925273,325.970732 143.583482,501.702439 C147.278273,678.702439 266.670019,816.812195 413.632467,812.409756 C558.887751,807.982927 674.096945,661.397561 670.438736,485.653659 C666.817109,311.373171 551.156736,174.836585 407.133049,174.836585 M406.876975,819.75122 C336.310124,819.75122 269.608781,786.909756 219.003557,727.287805 C168.300781,667.556098 139.40093,587.495122 137.608407,501.897561 C133.877034,322.165854 251.683557,172.239024 400.20684,167.714634 C473.346631,165.482927 542.742855,198.507317 594.994273,260.068293 C645.709243,319.8 674.621288,399.860976 676.389422,485.458537 C680.13299,665.190244 562.326467,815.104878 413.79099,819.641463 C411.474124,819.702439 409.169452,819.75122 406.876975,819.75122" id="Fill-39"></path>
                    <path d="M407.133049,157.579268 C405.10884,157.579268 403.060243,157.603659 401.011646,157.664634 C326.847557,159.591463 257.731796,196.359756 206.407124,261.20122 C155.094646,326.030488 127.719049,411.164634 129.304273,500.920732 C132.572273,684.676829 260.402288,833.847561 412.986184,829.689024 C566.094422,825.70122 687.998139,671.72561 684.717945,486.432927 C681.462139,305.103659 556.936706,157.579268 407.133049,157.579268 M406.889169,836.384146 C332.517781,836.384146 262.255781,801.70122 209.02884,738.75 C155.704348,675.676829 125.45096,591.27439 123.853542,501.067073 C122.231736,409.554878 150.156064,322.72561 202.49284,256.628049 C254.793034,190.530488 325.274527,153.030488 400.9019,151.054878 C477.773064,149.067073 550.266572,183.908537 604.981184,248.615854 C658.305676,311.676829 688.54687,396.091463 690.168676,486.29878 C693.497646,675.22561 569.252676,832.213415 413.108124,836.286585 C411.022945,836.347561 408.937766,836.384146 406.889169,836.384146" id="Fill-41"></path>
                    <path d="M407.108661,140.323171 C405.303945,140.323171 403.487034,140.335366 401.682318,140.384146 C323.677109,142.103659 250.915333,180.469512 196.77384,248.420732 C142.644542,316.359756 113.610557,405.75 115.025064,500.115854 C117.890661,691.396341 248.842348,847.030488 406.901363,847.030488 C408.718273,847.030488 410.510796,847.006098 412.352094,846.969512 C573.325482,843.408537 701.923721,682.030488 698.98496,487.237805 C696.107169,295.957317 565.17987,140.323171 407.108661,140.323171 M406.901363,853.006098 C328.725437,853.006098 254.914975,816.493902 199.04193,750.189024 C143.120109,683.79878 111.513184,595.030488 110.086482,500.22561 C108.635393,404.262195 138.157139,313.359756 193.213184,244.262195 C248.281422,175.176829 322.274796,136.152439 401.59696,134.408537 C403.438258,134.371951 405.279557,134.347561 407.108661,134.347561 C485.272393,134.347561 559.107243,170.859756 614.9559,237.164634 C670.889915,303.554878 702.49684,392.335366 703.911348,487.128049 C706.898885,685.22561 576.154497,849.335366 412.425258,852.932927 C410.58396,852.981707 408.730467,853.006098 406.901363,853.006098" id="Fill-43"></path>
                    <path d="M407.108661,123.065854 C405.511243,123.065854 403.901631,123.078049 402.340796,123.102439 C320.531049,124.614634 244.123258,164.578049 187.152751,235.626829 C130.194437,306.7 99.4898701,400.334146 100.758049,499.321951 C103.270019,700.565854 240.623572,864.285366 406.901363,864.285366 C408.486587,864.285366 410.108393,864.273171 411.669228,864.24878 C580.544348,861.126829 715.812721,692.358537 713.251975,488.029268 C710.715616,286.785366 573.374258,123.065854 407.108661,123.065854 M406.901363,869.626829 C324.896512,869.626829 247.561975,831.285366 189.042825,761.65122 C130.511482,691.943902 97.5754075,598.797561 96.3194224,499.407317 C95.0512433,398.992683 126.194796,303.980488 183.957915,231.907317 C241.757616,159.821951 319.299452,119.273171 402.279825,117.760976 C486.247915,116.22439 565.326199,154.7 624.955004,225.7 C683.474154,295.407317 716.422422,388.541463 717.690601,487.943902 C720.300124,695.22439 583.044124,866.443902 411.742393,869.578049 C410.132781,869.626829 408.498781,869.626829 406.901363,869.626829" id="Fill-45"></path>
                    <path d="M407.085493,105.797561 C405.731955,105.797561 404.366224,105.809756 402.988299,105.821951 C317.386209,107.114634 237.308015,148.67561 177.532881,222.846341 C117.733358,297.017073 85.394791,394.919512 86.4800597,498.517073 C88.662791,709.72439 232.406015,881.553659 406.914776,881.553659 C408.280507,881.553659 409.634045,881.541463 411.01197,881.517073 C496.638448,880.22439 576.692254,838.663415 636.479582,764.504878 C696.279104,690.334146 728.617672,592.431707 727.520209,488.846341 C725.349672,277.626829 581.606448,105.797561 407.085493,105.797561 M406.914776,886.285366 C321.129776,886.285366 240.210194,846.090244 179.081522,773.102439 C117.891881,700.065854 83.6510448,602.578049 82.5535821,498.578049 C81.4805075,393.712195 114.209284,294.626829 174.728254,219.541463 C235.23503,144.468293 316.288746,102.407317 402.939522,101.102439 C490.395104,99.8097561 572.826746,140.090244 634.93094,214.24878 C696.108388,287.285366 730.373612,384.773171 731.471075,488.773171 C732.519761,593.639024 699.790985,692.72439 639.284209,767.809756 C578.753045,842.882927 497.723716,884.943902 411.060746,886.260976 C409.658433,886.273171 408.304896,886.285366 406.914776,886.285366" id="Fill-47"></path>
                    <path d="M407.061104,88.5231707 L403.671164,88.5353659 C314.227955,89.6207317 230.491552,132.779268 167.911791,210.059756 C105.295448,287.340244 71.2984925,389.49878 72.1886567,497.718293 C74.0177612,718.876829 224.162851,898.828049 406.939164,898.828049 L410.353493,898.791463 C499.784507,897.718293 583.52091,854.571951 646.088478,777.291463 C708.692627,700.023171 742.689582,597.864634 741.823806,489.645122 C739.994701,268.462195 589.849612,88.5231707 407.061104,88.5231707 L407.061104,88.5231707 Z M406.939164,902.913415 C317.300851,902.913415 232.820612,860.889024 169.094612,784.571951 C105.319836,708.206098 69.6888806,606.352439 68.7987164,497.767073 C67.9085522,388.45 102.234746,285.267073 165.472985,207.193902 C228.711224,129.132927 313.301209,85.5353659 403.634582,84.45 L407.061104,84.4256098 C496.711612,84.4256098 581.179657,126.45 644.905657,202.767073 C708.668239,279.145122 744.311388,380.99878 745.201552,489.596341 C746.116104,598.913415 711.753328,702.096341 648.539478,780.157317 C585.301239,858.218293 500.711254,901.803659 410.365687,902.90122 L406.939164,902.913415 Z" id="Fill-49"></path>
                    <path d="M407.061104,71.254878 L404.341836,71.2670732 C211.834687,73.047561 56.4461642,263.99878 57.9094478,496.913415 C59.3727313,728.047561 215.931881,916.096341 406.951358,916.096341 L409.658433,916.084146 C502.918373,915.218293 590.300791,870.47439 655.770537,790.071951 C721.179313,709.693902 756.810269,603.279268 756.090821,490.437805 C754.627537,259.303659 598.080582,71.254878 407.061104,71.254878 L407.061104,71.254878 Z M406.951358,919.571951 C313.496313,919.571951 225.479806,875.706098 159.13209,796.035366 C92.735597,716.340244 55.7632985,610.132927 55.0438507,496.937805 C53.5561791,262.108537 210.212881,69.6085366 404.305254,67.8036585 L407.061104,67.7792683 C500.503955,67.7792683 588.496075,111.657317 654.880373,191.315854 C721.276866,271.010976 758.224776,377.230488 758.956418,490.413415 C759.700254,604.169512 723.764448,711.45 657.782552,792.510976 C591.825045,873.559756 503.735373,918.669512 409.707209,919.559756 L406.951358,919.571951 Z" id="Fill-51"></path>
                    <path d="M407.037936,53.9804878 L404.989339,53.9926829 C204.641428,55.3219512 42.5218015,253.663415 43.613725,496.102439 C44.7289209,737.212195 207.726518,933.370732 406.964772,933.370732 L409.013369,933.358537 C506.09004,932.7 597.142861,886.370732 665.368458,802.870732 C733.618443,719.358537 770.919981,608.7 770.401091,491.24878 C769.273787,250.139024 606.288384,53.9804878 407.037936,53.9804878 L407.037936,53.9804878 Z M406.964772,936.2 C309.692996,936.2 218.115831,890.492683 149.134204,807.517073 C80.1159955,724.480488 41.8267418,613.907317 41.2601904,496.114634 C40.1561597,252.114634 203.336667,52.4926829 404.964951,51.1512195 L407.037936,51.1512195 C504.3341,51.1512195 595.89907,96.8585366 664.868503,179.834146 C733.886712,262.858537 772.18816,373.456098 772.742315,491.236585 C773.261234,609.431707 735.752399,720.821951 667.03904,804.870732 C598.337876,888.895122 506.711936,935.553659 409.037757,936.2 L406.964772,936.2 Z" id="Fill-53"></path>
                    <path d="M407.037936,36.7060976 L405.684399,36.7060976 C197.434757,37.6085366 28.6084134,243.315854 29.3255703,495.291463 C30.083891,746.364634 199.483354,950.645122 406.976966,950.645122 L408.330503,950.645122 C616.580145,949.742683 785.394294,744.035366 784.665021,492.059756 C783.93101,240.97439 614.50716,36.7060976 407.037936,36.7060976 L407.037936,36.7060976 Z M406.976966,952.852439 C305.900652,952.852439 210.762831,905.315854 139.147294,818.97439 C67.5317567,732.620732 27.8767716,617.681707 27.5206274,495.303659 C26.7671149,242.108537 196.398264,35.4012195 405.66001,34.4987805 L407.037936,34.4987805 C508.138637,34.4987805 603.25207,82.0353659 674.843219,168.376829 C746.470951,254.730488 786.13813,369.681707 786.494115,492.047561 C787.223399,745.254878 617.628831,951.962195 408.342697,952.852439 L406.976966,952.852439 Z" id="Fill-55"></path>
                    <path d="M407.013548,19.4317073 L406.330682,19.4317073 C190.215891,19.8829268 14.6950254,232.980488 15.0602755,494.492683 C15.4388612,755.541463 191.252384,967.919512 406.98916,967.919512 L407.684219,967.919512 C623.79901,967.468293 799.319876,754.370732 798.942471,492.870732 C798.57604,231.809756 622.762518,19.4317073 407.013548,19.4317073 L407.013548,19.4317073 Z M406.98916,969.517073 C302.096115,969.517073 203.434219,920.126829 129.184772,830.443902 C54.9231299,740.760976 13.9389955,621.456098 13.7434299,494.492683 C13.5853687,367.395122 54.3012343,247.809756 128.45313,157.785366 C202.592831,67.7609756 301.303503,18.0536585 406.330682,17.8341463 L407.013548,17.8341463 C511.906593,17.8341463 610.568488,67.2243902 684.83013,156.907317 C759.079578,246.590244 800.063712,365.907317 800.259351,492.870732 C800.429533,619.968293 759.701473,739.529268 685.537384,829.565854 C611.409876,919.590244 512.699204,969.297561 407.684219,969.517073 L406.98916,969.517073 Z" id="Fill-57"></path>
                    <g id="Group-61" transform="translate(0.000000, 0.353659)">
                        <path d="M407.001354,1.79146341 C183.009219,1.79146341 0.769443284,222.291463 0.769443284,493.328049 C0.769443284,764.352439 183.009219,984.852439 407.001354,984.852439 C630.981294,984.852439 813.22107,764.352439 813.22107,493.328049 C813.22107,222.291463 630.981294,1.79146341 407.001354,1.79146341 M407.001354,985.803659 C352.055055,985.803659 298.767145,972.779268 248.564324,947.108537 C200.117443,922.291463 156.584757,886.791463 119.210055,841.571951 C81.8231597,796.340244 52.4843239,743.681707 31.9861597,685.010976 C10.7563537,624.303659 0.00121940299,559.803659 0.00121940299,493.328049 C0.00121940299,426.840244 10.7563537,362.340244 31.9861597,301.632927 C52.4843239,242.962195 81.8231597,190.303659 119.210055,145.071951 C156.584757,99.852439 200.117443,64.3402439 248.564324,39.5353659 C298.767145,13.8646341 352.055055,0.840243902 407.001354,0.840243902 C461.959846,0.840243902 515.235563,13.8646341 565.438384,39.5353659 C613.897458,64.3402439 657.417951,99.852439 694.792652,145.071951 C732.167354,190.303659 761.518384,242.962195 782.004354,301.632927 C803.246354,362.340244 814.013682,426.840244 814.013682,493.328049 C814.013682,559.803659 803.246354,624.303659 782.004354,685.010976 C761.518384,743.681707 732.167354,796.340244 694.792652,841.571951 C657.417951,886.791463 613.897458,922.291463 565.438384,947.108537 C515.235563,972.779268 461.959846,985.803659 407.001354,985.803659" id="Fill-59"></path>
                    </g>
                </g>
            </g>
        </g>
    </g>
</svg>