<svg id="Layer_1" data-name="Layer 1" xmlns="http://www.w3.org/2000/svg" viewBox="0 0 802.2 781.28"><defs><style>.cls-1{fill:#fff;}</style></defs><polygon class="cls-1" points="571.66 545.84 571.75 545.89 571.66 545.95 571.66 545.84"/><polygon class="cls-1" points="550.47 545.89 550.94 545.62 550.94 546.17 550.47 545.89"/><polygon class="cls-1" points="581.64 527.79 582.4 527.35 582.4 528.22 581.64 527.79"/><polygon class="cls-1" points="539.72 526.74 541.54 527.79 539.72 528.84 539.72 526.74"/><polygon class="cls-1" points="519.29 564 519.49 563.88 519.49 564.12 519.29 564"/><polygon class="cls-1" points="570.97 508.43 573.14 509.68 570.97 510.93 570.97 508.43"/><polygon class="cls-1" points="548.89 509.68 551.73 508.04 551.73 511.32 548.89 509.68"/><polygon class="cls-1" points="517.82 527.79 520.22 526.4 520.22 529.18 517.82 527.79"/><polygon class="cls-1" points="508.44 544.98 510.02 545.89 508.44 546.8 508.44 544.98"/><polygon class="cls-1" points="602.98 527.65 603.21 527.79 602.98 527.92 602.98 527.65"/><polygon class="cls-1" points="602.32 490.3 604.53 491.57 602.32 492.85 602.32 490.3"/><polygon class="cls-1" points="580 491.57 583.22 489.72 583.22 493.43 580 491.57"/><polygon class="cls-1" points="538.69 488.73 543.61 491.57 538.69 494.42 538.69 488.73"/><polygon class="cls-1" points="515.56 491.57 521.36 488.23 521.36 494.92 515.56 491.57"/><polygon class="cls-1" points="507.5 507.14 511.91 509.68 507.5 512.23 507.5 507.14"/><polygon class="cls-1" points="486.31 545.89 488.94 544.37 488.94 547.41 486.31 545.89"/><polygon class="cls-1" points="476.96 562.87 478.91 564 476.96 565.13 476.96 562.87"/><polygon class="cls-1" points="487.86 582.11 488.16 581.93 488.16 582.28 487.86 582.11"/><polygon class="cls-1" points="613.06 509.68 613.73 509.3 613.73 510.06 613.06 509.68"/><polygon class="cls-1" points="611.61 473.47 614.46 471.82 614.46 475.11 611.61 473.47"/><polygon class="cls-1" points="569.91 470.38 575.26 473.47 569.91 476.56 569.91 470.38"/><polygon class="cls-1" points="546.47 473.47 552.94 469.74 552.94 477.2 546.47 473.47"/><polygon class="cls-1" points="506.18 468.64 514.55 473.47 506.18 478.3 506.18 468.64"/><polygon class="cls-1" points="484.47 509.68 489.86 506.57 489.86 512.79 484.47 509.68"/><polygon class="cls-1" points="476.13 525.23 480.56 527.79 476.13 530.34 476.13 525.23"/><polygon class="cls-1" points="454.51 564 457.8 562.1 457.8 565.9 454.51 564"/><polygon class="cls-1" points="634.41 509.67 634.42 509.68 634.41 509.69 634.41 509.67"/><polygon class="cls-1" points="601.48 452.64 606.2 455.36 601.48 458.09 601.48 452.64"/><polygon class="cls-1" points="577.98 455.36 584.23 451.75 584.23 458.97 577.98 455.36"/><polygon class="cls-1" points="537.43 450.33 546.14 455.36 537.43 460.39 537.43 450.33"/><polygon class="cls-1" points="513.01 455.36 522.63 449.81 522.63 460.92 513.01 455.36"/><polygon class="cls-1" points="481.78 473.47 491.2 468.03 491.2 478.91 481.78 473.47"/><polygon class="cls-1" points="474.96 486.98 482.91 491.57 474.96 496.16 474.96 486.98"/><polygon class="cls-1" points="452.77 527.79 458.67 524.38 458.67 531.2 452.77 527.79"/><polygon class="cls-1" points="444.4 542.7 449.94 545.89 444.4 549.1 444.4 542.7"/><polygon class="cls-1" points="445.27 580.42 448.19 582.11 445.27 583.79 445.27 580.42"/><polygon class="cls-1" points="456.06 600.21 457.02 599.66 457.02 600.76 456.06 600.21"/><polygon class="cls-1" points="644.58 491.57 645.01 491.32 645.01 491.82 644.58 491.57"/><polygon class="cls-1" points="633.84 472.48 635.56 473.47 633.84 474.46 633.84 472.48"/><polygon class="cls-1" points="633.17 435.11 636.89 437.26 633.17 439.4 633.17 435.11"/><polygon class="cls-1" points="610.14 437.26 615.19 434.34 615.19 440.17 610.14 437.26"/><polygon class="cls-1" points="568.93 432.47 577.21 437.26 568.93 442.04 568.93 432.47"/><polygon class="cls-1" points="544.38 437.26 553.99 431.71 553.99 442.8 544.38 437.26"/><polygon class="cls-1" points="505.11 430.57 516.68 437.26 505.11 443.93 505.11 430.57"/><polygon class="cls-1" points="479.82 437.26 492.19 430.11 492.19 444.4 479.82 437.26"/><polygon class="cls-1" points="473.78 448.73 485.26 455.36 473.78 461.99 473.78 448.73"/><polygon class="cls-1" points="450.49 491.57 459.81 486.19 459.81 496.95 450.49 491.57"/><polygon class="cls-1" points="443.45 504.83 451.84 509.68 443.45 514.53 443.45 504.83"/><polygon class="cls-1" points="420.17 545.89 427.92 541.42 427.92 550.37 420.17 545.89"/><polygon class="cls-1" points="412.36 559.62 419.94 564 412.36 568.38 412.36 559.62"/><polygon class="cls-1" points="421.99 582.11 427.01 579.21 427.01 585.01 421.99 582.11"/><polygon class="cls-1" points="446.01 617.9 446.72 618.32 446.01 618.73 446.01 617.9"/><polygon class="cls-1" points="643.41 455.36 645.6 454.1 645.6 456.62 643.41 455.36"/><polygon class="cls-1" points="642.24 419.15 646.18 416.87 646.18 421.42 642.24 419.15"/><polygon class="cls-1" points="600.7 415.08 607.75 419.15 600.7 423.22 600.7 415.08"/><polygon class="cls-1" points="576.36 419.15 585.04 414.13 585.04 424.17 576.36 419.15"/><polygon class="cls-1" points="536.55 412.61 547.88 419.15 536.55 425.69 536.55 412.61"/><polygon class="cls-1" points="511.24 419.15 523.52 412.06 523.52 426.24 511.24 419.15"/><polygon class="cls-1" points="473.1 411.34 486.62 419.15 473.1 426.95 473.1 411.34"/><polygon class="cls-1" points="448.38 455.36 460.86 448.16 460.86 462.56 448.38 455.36"/><polygon class="cls-1" points="442.31 466.64 454.13 473.47 442.31 480.29 442.31 466.64"/><polygon class="cls-1" points="418.36 509.68 428.83 503.64 428.83 515.73 418.36 509.68"/><polygon class="cls-1" points="411.5 521.92 421.65 527.79 411.5 533.65 411.5 521.92"/><polygon class="cls-1" points="387.08 564 397.43 558.03 397.43 569.97 387.08 564"/><polygon class="cls-1" points="413.3 597.47 418.05 600.21 413.3 602.95 413.3 597.47"/><polygon class="cls-1" points="423.74 618.32 426.14 616.94 426.14 619.7 423.74 618.32"/><polygon class="cls-1" points="665.42 454.74 666.49 455.36 665.42 455.98 665.42 454.74"/><polygon class="cls-1" points="632.59 397.87 638.07 401.04 632.59 404.21 632.59 397.87"/><polygon class="cls-1" points="608.84 401.04 615.84 397 615.84 405.09 608.84 401.04"/><polygon class="cls-1" points="568.26 395.1 578.55 401.04 568.26 406.98 568.26 395.1"/><polygon class="cls-1" points="543.05 401.04 554.65 394.34 554.65 407.74 543.05 401.04"/><polygon class="cls-1" points="504.53 393.36 517.84 401.04 504.53 408.73 504.53 393.36"/><polygon class="cls-1" points="478.88 401.04 492.65 393.09 492.65 409 478.88 401.04"/><polygon class="cls-1" points="447.23 419.15 461.44 410.95 461.44 427.35 447.23 419.15"/><polygon class="cls-1" points="441.6 429.2 455.55 437.26 441.6 445.31 441.6 429.2"/><polygon class="cls-1" points="416.45 473.47 429.78 465.77 429.78 481.17 416.45 473.47"/><polygon class="cls-1" points="410.55 484.06 423.56 491.57 410.55 499.08 410.55 484.06"/><polygon class="cls-1" points="385.44 527.79 398.25 520.39 398.25 535.18 385.44 527.79"/><polygon class="cls-1" points="379.14 538.3 392.29 545.89 379.14 553.49 379.14 538.3"/><polygon class="cls-1" points="380.04 576.08 390.49 582.11 380.04 588.14 380.04 576.08"/><polygon class="cls-1" points="389.13 600.21 396.4 596.01 396.4 604.41 389.13 600.21"/><polygon class="cls-1" points="414.19 635.21 416.29 636.43 414.19 637.64 414.19 635.21"/><polygon class="cls-1" points="425.06 654.53 425.48 654.29 425.48 654.77 425.06 654.53"/><polygon class="cls-1" points="675.34 437.26 676.67 436.49 676.67 438.03 675.34 437.26"/><polygon class="cls-1" points="664.87 417.58 667.59 419.15 664.87 420.72 664.87 417.58"/><polygon class="cls-1" points="664.38 380.53 668.56 382.94 664.38 385.35 664.38 380.53"/><polygon class="cls-1" points="641.15 382.94 646.73 379.72 646.73 386.15 641.15 382.94"/><polygon class="cls-1" points="600.18 377.97 608.79 382.94 600.18 387.9 600.18 377.97"/><polygon class="cls-1" points="575.32 382.94 585.56 377.03 585.56 388.85 575.32 382.94"/><polygon class="cls-1" points="536.16 375.72 548.67 382.94 536.16 390.16 536.16 375.72"/><polygon class="cls-1" points="510.53 382.94 523.87 375.23 523.87 390.64 510.53 382.94"/><polygon class="cls-1" points="472.88 374.76 487.05 382.94 472.88 391.12 472.88 374.76"/><polygon class="cls-1" points="447.09 382.94 461.5 374.62 461.5 391.26 447.09 382.94"/><polygon class="cls-1" points="441.36 392.57 456.03 401.04 441.36 409.51 441.36 392.57"/><polygon class="cls-1" points="415.48 437.26 430.27 428.72 430.27 445.79 415.48 437.26"/><polygon class="cls-1" points="409.94 446.8 424.77 455.36 409.94 463.92 409.94 446.8"/><polygon class="cls-1" points="383.81 491.57 399.06 482.77 399.06 500.38 383.81 491.57"/><polygon class="cls-1" points="378.36 500.74 393.85 509.68 378.36 518.63 378.36 500.74"/><polygon class="cls-1" points="352.04 545.89 367.9 536.74 367.9 555.05 352.04 545.89"/><polygon class="cls-1" points="346.8 554.72 362.89 564 346.8 573.29 346.8 554.72"/><polygon class="cls-1" points="353.79 582.11 367.03 574.46 367.03 589.75 353.79 582.11"/><polygon class="cls-1" points="381.2 614.3 388.16 618.32 381.2 622.34 381.2 614.3"/><polygon class="cls-1" points="391.2 636.43 395.37 634.02 395.37 638.83 391.2 636.43"/><polygon class="cls-1" points="414.79 672.48 415.07 672.64 414.79 672.8 414.79 672.48"/><polygon class="cls-1" points="696.97 436.96 697.48 437.26 696.97 437.55 696.97 436.96"/><polygon class="cls-1" points="674.36 401.04 677.16 399.42 677.16 402.67 674.36 401.04"/><polygon class="cls-1" points="673.4 364.83 677.64 362.38 677.64 367.28 673.4 364.83"/><polygon class="cls-1" points="632.07 360.77 639.1 364.83 632.07 368.89 632.07 360.77"/><polygon class="cls-1" points="607.9 364.83 616.31 359.97 616.31 369.69 607.9 364.83"/><polygon class="cls-1" points="567.92 358.3 579.23 364.83 567.92 371.36 567.92 358.3"/><polygon class="cls-1" points="542.48 364.83 554.94 357.64 554.94 372.02 542.48 364.83"/><polygon class="cls-1" points="504.39 356.9 518.13 364.83 504.39 372.76 504.39 356.9"/><polygon class="cls-1" points="478.74 364.83 492.72 356.76 492.72 372.9 478.74 364.83"/><polygon class="cls-1" points="441.5 356.61 455.74 364.83 441.5 373.05 441.5 356.61"/><polygon class="cls-1" points="415.35 401.04 430.34 392.39 430.34 409.69 415.35 401.04"/><polygon class="cls-1" points="409.77 410.29 425.12 419.15 409.77 428.01 409.77 410.29"/><polygon class="cls-1" points="383.17 455.36 399.38 446 399.38 464.72 383.17 455.36"/><polygon class="cls-1" points="377.91 463.74 394.76 473.47 377.91 483.2 377.91 463.74"/><polygon class="cls-1" points="350.75 509.68 368.55 499.41 368.55 519.96 350.75 509.68"/><polygon class="cls-1" points="346.13 517.34 364.23 527.79 346.13 538.23 346.13 517.34"/><polygon class="cls-1" points="318.81 564 337.48 553.22 337.48 574.78 318.81 564"/><polygon class="cls-1" points="347.9 592.83 360.69 600.21 347.9 607.59 347.9 592.83"/><polygon class="cls-1" points="356.27 618.32 365.79 612.82 365.79 623.82 356.27 618.32"/><polygon class="cls-1" points="382.29 652.4 385.99 654.53 382.29 656.67 382.29 652.4"/><polygon class="cls-1" points="392.89 672.64 394.52 671.69 394.52 673.58 392.89 672.64"/><polygon class="cls-1" points="707.02 419.15 707.87 418.66 707.87 419.64 707.02 419.15"/><polygon class="cls-1" points="696.52 399.97 698.38 401.04 696.52 402.12 696.52 399.97"/><polygon class="cls-1" points="663.89 343.47 669.54 346.72 663.89 349.98 663.89 343.47"/><polygon class="cls-1" points="640.17 346.72 647.22 342.66 647.22 350.79 640.17 346.72"/><polygon class="cls-1" points="599.81 341.11 609.53 346.72 599.81 352.34 599.81 341.11"/><polygon class="cls-1" points="574.75 346.72 585.84 340.32 585.84 353.12 574.75 346.72"/><polygon class="cls-1" points="536.1 339.39 548.8 346.72 536.1 354.06 536.1 339.39"/><polygon class="cls-1" points="510.59 346.72 523.84 339.08 523.84 354.37 510.59 346.72"/><polygon class="cls-1" points="473.17 339.04 486.48 346.72 473.17 354.41 473.17 339.04"/><polygon class="cls-1" points="447.89 346.72 461.1 339.1 461.1 354.35 447.89 346.72"/><polygon class="cls-1" points="415.97 364.83 430.03 356.71 430.03 372.95 415.97 364.83"/><polygon class="cls-1" points="409.98 374.44 424.7 382.94 409.98 391.43 409.98 374.44"/><polygon class="cls-1" points="383.33 419.15 399.3 409.93 399.3 428.37 383.33 419.15"/><polygon class="cls-1" points="377.96 427.63 394.64 437.26 377.96 446.88 377.96 427.63"/><polygon class="cls-1" points="350.19 473.47 368.83 462.7 368.83 484.24 350.19 473.47"/><polygon class="cls-1" points="345.69 480.37 365.11 491.57 345.69 502.78 345.69 480.37"/><polygon class="cls-1" points="317.76 527.79 338 516.1 338 539.48 317.76 527.79"/><polygon class="cls-1" points="313.86 533.87 334.68 545.89 313.86 557.91 313.86 533.87"/><polygon class="cls-1" points="314.61 571.39 333.18 582.11 314.61 592.83 314.61 571.39"/><polygon class="cls-1" points="320.98 600.21 336.39 591.31 336.39 609.11 320.98 600.21"/><polygon class="cls-1" points="349.27 631.41 357.95 636.43 349.27 641.44 349.27 631.41"/><polygon class="cls-1" points="358.86 654.53 364.5 651.28 364.5 657.78 358.86 654.53"/><polygon class="cls-1" points="383.03 689.89 384.51 690.75 383.03 691.6 383.03 689.89"/><polygon class="cls-1" points="393.98 708.85 393.98 708.85 393.98 708.85 393.98 708.85"/><polygon class="cls-1" points="728.4 418.99 728.68 419.15 728.4 419.31 728.4 418.99"/><polygon class="cls-1" points="706.2 382.94 708.28 381.73 708.28 384.14 706.2 382.94"/><polygon class="cls-1" points="696.07 362.99 699.26 364.83 696.07 366.68 696.07 362.99"/><polygon class="cls-1" points="695.66 326.06 700.08 328.62 695.66 331.17 695.66 326.06"/><polygon class="cls-1" points="672.53 328.62 678.08 325.41 678.08 331.82 672.53 328.62"/><polygon class="cls-1" points="631.73 323.97 639.78 328.62 631.73 333.26 631.73 323.97"/><polygon class="cls-1" points="607.38 328.62 616.57 323.31 616.57 333.92 607.38 328.62"/><polygon class="cls-1" points="567.94 322.12 579.2 328.62 567.94 335.12 567.94 322.12"/><polygon class="cls-1" points="542.87 328.62 554.74 321.76 554.74 335.47 542.87 328.62"/><polygon class="cls-1" points="504.87 321.52 517.16 328.62 504.87 335.71 504.87 321.52"/><polygon class="cls-1" points="479.97 328.62 492.11 321.61 492.11 335.62 479.97 328.62"/><polygon class="cls-1" points="442.34 321.86 454.06 328.62 442.34 335.38 442.34 321.86"/><polygon class="cls-1" points="417.81 328.62 429.1 322.1 429.1 335.14 417.81 328.62"/><polygon class="cls-1" points="410.65 339.39 423.36 346.72 410.65 354.06 410.65 339.39"/><polygon class="cls-1" points="384.04 382.94 398.95 374.33 398.95 391.54 384.04 382.94"/><polygon class="cls-1" points="378.3 392 393.97 401.04 378.3 410.09 378.3 392"/><polygon class="cls-1" points="350.84 437.26 368.51 427.05 368.51 447.46 350.84 437.26"/><polygon class="cls-1" points="345.87 444.45 364.76 455.36 345.87 466.27 345.87 444.45"/><polygon class="cls-1" points="317.19 491.57 338.29 479.39 338.29 503.76 317.19 491.57"/><polygon class="cls-1" points="313.5 497.02 335.42 509.68 313.5 522.34 313.5 497.02"/><polygon class="cls-1" points="284.84 545.89 307.42 532.86 307.42 558.93 284.84 545.89"/><polygon class="cls-1" points="281.86 550.86 304.61 564 281.86 577.14 281.86 550.86"/><polygon class="cls-1" points="285.97 582.11 306.86 570.04 306.86 594.17 285.97 582.11"/><polygon class="cls-1" points="315.89 609.82 330.62 618.32 315.89 626.82 315.89 609.82"/><polygon class="cls-1" points="323.86 636.43 334.95 630.02 334.95 642.83 323.86 636.43"/><polygon class="cls-1" points="350.5 669.76 355.49 672.64 350.5 675.52 350.5 669.76"/><polygon class="cls-1" points="360.69 690.75 363.58 689.07 363.58 692.42 360.69 690.75"/><polygon class="cls-1" points="738.57 401.04 739.14 400.72 739.14 401.37 738.57 401.04"/><polygon class="cls-1" points="728.06 382.18 729.37 382.94 728.06 383.69 728.06 382.18"/><polygon class="cls-1" points="705.29 346.72 708.74 344.73 708.74 348.71 705.29 346.72"/><polygon class="cls-1" points="704.71 310.51 709.03 308.01 709.03 313.01 704.71 310.51"/><polygon class="cls-1" points="663.66 306.84 670.01 310.51 663.66 314.18 663.66 306.84"/><polygon class="cls-1" points="639.9 310.51 647.35 306.21 647.35 314.81 639.9 310.51"/><polygon class="cls-1" points="599.95 305.14 609.25 310.51 599.95 315.88 599.95 305.14"/><polygon class="cls-1" points="575.44 310.51 585.5 304.7 585.5 316.32 575.44 310.51"/><polygon class="cls-1" points="536.78 304.37 547.43 310.51 536.78 316.66 536.78 304.37"/><polygon class="cls-1" points="512.19 310.51 523.04 304.25 523.04 316.77 512.19 310.51"/><polygon class="cls-1" points="474.17 304.56 484.48 310.51 474.17 316.46 474.17 304.56"/><polygon class="cls-1" points="449.94 310.51 460.08 304.66 460.08 316.36 449.94 310.51"/><polygon class="cls-1" points="411.79 305.14 421.09 310.51 411.79 315.88 411.79 305.14"/><polygon class="cls-1" points="385.71 346.72 398.11 339.56 398.11 353.89 385.71 346.72"/><polygon class="cls-1" points="378.88 356.78 392.82 364.83 378.88 372.88 378.88 356.78"/><polygon class="cls-1" points="351.96 401.04 367.95 391.81 367.95 410.27 351.96 401.04"/><polygon class="cls-1" points="346.45 409.25 363.6 419.15 346.45 429.05 346.45 409.25"/><polygon class="cls-1" points="317.96 455.36 337.9 443.85 337.9 466.88 317.96 455.36"/><polygon class="cls-1" points="313.69 461.15 335.02 473.47 313.69 485.78 313.69 461.15"/><polygon class="cls-1" points="284.35 509.68 307.67 496.22 307.67 523.14 284.35 509.68"/><polygon class="cls-1" points="281.59 514.18 305.15 527.79 281.59 541.39 281.59 514.18"/><polygon class="cls-1" points="252.67 564 276.46 550.26 276.46 577.74 252.67 564"/><polygon class="cls-1" points="282.77 588.66 302.79 600.21 282.77 611.77 282.77 588.66"/><polygon class="cls-1" points="288.55 618.32 305.57 608.49 305.57 628.15 288.55 618.32"/><polygon class="cls-1" points="317.46 648.74 327.49 654.53 317.46 660.32 317.46 648.74"/><polygon class="cls-1" points="326.62 672.64 333.57 668.62 333.57 676.65 326.62 672.64"/><polygon class="cls-1" points="351.41 707.54 353.67 708.85 351.41 710.16 351.41 707.54"/><polygon class="cls-1" points="362.24 726.96 362.81 726.63 362.81 727.29 362.24 726.96"/><polygon class="cls-1" points="759.77 400.88 760.04 401.04 759.77 401.2 759.77 400.88"/><polygon class="cls-1" points="737.91 364.83 739.47 363.93 739.47 365.74 737.91 364.83"/><polygon class="cls-1" points="727.66 345.27 730.17 346.72 727.66 348.17 727.66 345.27"/><polygon class="cls-1" points="695.5 289.57 700.41 292.4 695.5 295.24 695.5 289.57"/><polygon class="cls-1" points="672.42 292.4 678.13 289.11 678.13 295.7 672.42 292.4"/><polygon class="cls-1" points="631.93 288.1 639.38 292.4 631.93 296.71 631.93 288.1"/><polygon class="cls-1" points="608.11 292.4 616.21 287.73 616.21 297.08 608.11 292.4"/><polygon class="cls-1" points="568.65 287.14 577.77 292.4 568.65 297.67 568.65 287.14"/><polygon class="cls-1" points="544.61 292.4 553.87 287.06 553.87 297.75 544.61 292.4"/><polygon class="cls-1" points="505.93 287.13 515.05 292.4 505.93 297.67 505.93 287.13"/><polygon class="cls-1" points="482.19 292.4 491 287.32 491 297.49 482.19 292.4"/><polygon class="cls-1" points="443.51 287.67 451.72 292.4 443.51 297.14 443.51 287.67"/><polygon class="cls-1" points="420.18 292.4 427.92 287.94 427.92 296.88 420.18 292.4"/><polygon class="cls-1" points="387.91 310.51 397.01 305.25 397.01 315.77 387.91 310.51"/><polygon class="cls-1" points="379.95 322.43 390.68 328.62 379.95 334.81 379.95 322.43"/><polygon class="cls-1" points="353.37 364.83 367.24 356.82 367.24 372.84 353.37 364.83"/><polygon class="cls-1" points="347.12 374.2 362.25 382.94 347.12 391.67 347.12 374.2"/><polygon class="cls-1" points="319.51 419.15 337.13 408.98 337.13 429.32 319.51 419.15"/><polygon class="cls-1" points="314.44 426.23 333.53 437.26 314.44 448.28 314.44 426.23"/><polygon class="cls-1" points="285.19 473.47 307.25 460.74 307.25 486.2 285.19 473.47"/><polygon class="cls-1" points="281.67 478.12 304.98 491.57 281.67 505.03 281.67 478.12"/><polygon class="cls-1" points="252.35 527.79 276.62 513.78 276.62 541.8 252.35 527.79"/><polygon class="cls-1" points="249.93 531.78 274.38 545.89 249.93 560.01 249.93 531.78"/><polygon class="cls-1" points="250.4 568.79 273.45 582.11 250.4 595.42 250.4 568.79"/><polygon class="cls-1" points="254.41 600.21 275.6 587.98 275.6 612.45 254.41 600.21"/><polygon class="cls-1" points="284.3 627.52 299.73 636.43 284.3 645.34 284.3 627.52"/><polygon class="cls-1" points="291.81 654.53 303.94 647.54 303.94 661.53 291.81 654.53"/><polygon class="cls-1" points="318.68 687.07 325.04 690.75 318.68 694.42 318.68 687.07"/><polygon class="cls-1" points="328.76 708.85 332.5 706.69 332.5 711.01 328.76 708.85"/><polygon class="cls-1" points="352.16 745.06 352.17 745.06 352.16 745.07 352.16 745.06"/><polygon class="cls-1" points="769.97 382.94 770.48 382.64 770.48 383.23 769.97 382.94"/><polygon class="cls-1" points="759.52 364.24 760.54 364.83 759.52 365.42 759.52 364.24"/><polygon class="cls-1" points="737.25 328.62 739.8 327.14 739.8 330.09 737.25 328.62"/><polygon class="cls-1" points="727.37 308.56 730.75 310.51 727.37 312.46 727.37 308.56"/><polygon class="cls-1" points="727.29 272.2 730.92 274.3 727.29 276.39 727.29 272.2"/><polygon class="cls-1" points="704.71 274.3 709.03 271.8 709.03 276.79 704.71 274.3"/><polygon class="cls-1" points="663.87 271 669.58 274.3 663.87 277.6 663.87 271"/><polygon class="cls-1" points="640.62 274.3 646.99 270.62 646.99 277.98 640.62 274.3"/><polygon class="cls-1" points="600.61 270.06 607.94 274.3 600.61 278.53 600.61 270.06"/><polygon class="cls-1" points="577.08 274.3 584.68 269.91 584.68 278.68 577.08 274.3"/><polygon class="cls-1" points="537.78 269.88 545.44 274.3 537.78 278.72 537.78 269.88"/><polygon class="cls-1" points="514.42 274.3 521.93 269.96 521.93 278.63 514.42 274.3"/><polygon class="cls-1" points="475.27 270.25 482.28 274.3 475.27 278.35 475.27 270.25"/><polygon class="cls-1" points="452.25 274.3 458.93 270.44 458.93 278.15 452.25 274.3"/><polygon class="cls-1" points="412.85 270.78 418.95 274.3 412.85 277.82 412.85 270.78"/><polygon class="cls-1" points="389.9 274.3 396.02 270.77 396.02 277.83 389.9 274.3"/><polygon class="cls-1" points="381.01 288.05 388.56 292.4 381.01 296.76 381.01 288.05"/><polygon class="cls-1" points="355.57 328.62 366.14 322.51 366.14 334.72 355.57 328.62"/><polygon class="cls-1" points="348.11 339.71 360.27 346.72 348.11 353.74 348.11 339.71"/><polygon class="cls-1" points="321.08 382.94 336.35 374.12 336.35 391.75 321.08 382.94"/><polygon class="cls-1" points="315.32 391.55 331.76 401.04 315.32 410.53 315.32 391.55"/><polygon class="cls-1" points="286.98 437.26 306.35 426.07 306.35 448.44 286.98 437.26"/><polygon class="cls-1" points="282.48 443.31 303.36 455.36 282.48 467.41 282.48 443.31"/><polygon class="cls-1" points="252.82 491.57 276.39 477.97 276.39 505.18 252.82 491.57"/><polygon class="cls-1" points="249.97 495.64 274.3 509.68 249.97 523.72 249.97 495.64"/><polygon class="cls-1" points="220.87 545.89 245.32 531.78 245.32 560.01 220.87 545.89"/><polygon class="cls-1" points="218.73 550.16 242.7 564 218.73 577.84 218.73 550.16"/><polygon class="cls-1" points="221.66 582.11 244.93 568.68 244.93 595.54 221.66 582.11"/><polygon class="cls-1" points="251.62 607.13 271.01 618.32 251.62 629.51 251.62 607.13"/><polygon class="cls-1" points="257.52 636.43 274.04 626.89 274.04 645.97 257.52 636.43"/><polygon class="cls-1" points="285.93 666.56 296.47 672.64 285.93 678.72 285.93 666.56"/><polygon class="cls-1" points="294.56 690.75 302.56 686.12 302.56 695.37 294.56 690.75"/><polygon class="cls-1" points="319.89 725.38 322.63 726.96 319.89 728.53 319.89 725.38"/><polygon class="cls-1" points="330.68 745.06 331.55 744.56 331.55 745.57 330.68 745.06"/><polygon class="cls-1" points="801.67 401.04 801.68 401.04 801.68 401.05 801.67 401.04"/><polygon class="cls-1" points="791.13 382.77 791.41 382.94 791.13 383.1 791.13 382.77"/><polygon class="cls-1" points="769.47 346.72 770.73 345.99 770.73 347.45 769.47 346.72"/><polygon class="cls-1" points="759.23 327.53 761.11 328.62 759.23 329.7 759.23 327.53"/><polygon class="cls-1" points="736.86 292.4 740 290.59 740 294.22 736.86 292.4"/><polygon class="cls-1" points="736.81 256.19 740.02 254.34 740.02 258.05 736.81 256.19"/><polygon class="cls-1" points="695.7 253.7 700.02 256.19 695.7 258.69 695.7 253.7"/><polygon class="cls-1" points="673.03 256.19 677.83 253.43 677.83 258.96 673.03 256.19"/><polygon class="cls-1" points="632.5 252.87 638.25 256.19 632.5 259.52 632.5 252.87"/><polygon class="cls-1" points="609.46 256.19 615.53 252.69 615.53 259.7 609.46 256.19"/><polygon class="cls-1" points="569.55 252.48 575.98 256.19 569.55 259.9 569.55 252.48"/><polygon class="cls-1" points="546.58 256.19 552.89 252.54 552.89 259.84 546.58 256.19"/><polygon class="cls-1" points="506.94 252.68 513.02 256.19 506.94 259.7 506.94 252.68"/><polygon class="cls-1" points="484.19 256.19 490 252.84 490 259.54 484.19 256.19"/><polygon class="cls-1" points="444.49 253.14 449.76 256.19 444.49 259.24 444.49 253.14"/><polygon class="cls-1" points="422.04 256.19 426.99 253.34 426.99 259.05 422.04 256.19"/><polygon class="cls-1" points="381.83 253.25 386.91 256.19 381.83 259.13 381.83 253.25"/><polygon class="cls-1" points="357.61 292.4 365.12 288.06 365.12 296.74 357.61 292.4"/><polygon class="cls-1" points="349.15 305.3 358.18 310.51 349.15 315.72 349.15 305.3"/><polygon class="cls-1" points="323.24 346.72 335.26 339.78 335.26 353.67 323.24 346.72"/><polygon class="cls-1" points="316.23 356.91 329.95 364.83 316.23 372.75 316.23 356.91"/><polygon class="cls-1" points="289.09 401.04 305.3 391.68 305.3 410.4 289.09 401.04"/><polygon class="cls-1" points="283.63 409.09 301.06 419.15 283.63 429.21 283.63 409.09"/><polygon class="cls-1" points="254.75 455.36 275.42 443.43 275.42 467.3 254.75 455.36"/><polygon class="cls-1" points="250.69 460.66 272.87 473.47 250.69 486.27 250.69 460.66"/><polygon class="cls-1" points="221.07 509.68 245.22 495.74 245.22 523.62 221.07 509.68"/><polygon class="cls-1" points="218.65 513.81 242.85 527.79 218.65 541.76 218.65 513.81"/><polygon class="cls-1" points="190.25 564 213.59 550.53 213.59 577.47 190.25 564"/><polygon class="cls-1" points="219.58 587.85 241 600.21 219.58 612.58 219.58 587.85"/><polygon class="cls-1" points="224.2 618.32 243.66 607.08 243.66 629.55 224.2 618.32"/><polygon class="cls-1" points="253.45 646.52 267.33 654.53 253.45 662.55 253.45 646.52"/><polygon class="cls-1" points="260.94 672.64 272.33 666.06 272.33 679.21 260.94 672.64"/><polygon class="cls-1" points="287.29 705.12 293.75 708.85 287.29 712.58 287.29 705.12"/><polygon class="cls-1" points="297.32 726.96 301.18 724.73 301.18 729.19 297.32 726.96"/><polygon class="cls-1" points="320.74 763.07 320.92 763.17 320.74 763.28 320.74 763.07"/><polygon class="cls-1" points="801.33 364.83 801.84 364.54 801.84 365.13 801.33 364.83"/><polygon class="cls-1" points="790.93 346.22 791.8 346.72 790.93 347.23 790.93 346.22"/><polygon class="cls-1" points="769.02 310.51 770.96 309.39 770.96 311.63 769.02 310.51"/><polygon class="cls-1" points="759.05 291.01 761.47 292.4 759.05 293.8 759.05 291.01"/><polygon class="cls-1" points="727.4 236.17 730.7 238.09 727.4 239.99 727.4 236.17"/><polygon class="cls-1" points="705.14 238.09 708.81 235.96 708.81 240.21 705.14 238.09"/><polygon class="cls-1" points="664.34 235.6 668.64 238.09 664.34 240.57 664.34 235.6"/><polygon class="cls-1" points="641.78 238.09 646.41 235.41 646.41 240.76 641.78 238.09"/><polygon class="cls-1" points="601.37 235.18 606.41 238.09 601.37 240.99 601.37 235.18"/><polygon class="cls-1" points="578.76 238.09 583.84 235.15 583.84 241.02 578.76 238.09"/><polygon class="cls-1" points="538.66 235.19 543.67 238.09 538.66 240.98 538.66 235.19"/><polygon class="cls-1" points="516.19 238.09 521.04 235.28 521.04 240.89 516.19 238.09"/><polygon class="cls-1" points="476.1 235.47 480.63 238.09 476.1 240.7 476.1 235.47"/><polygon class="cls-1" points="453.9 238.09 458.1 235.66 458.1 240.51 453.9 238.09"/><polygon class="cls-1" points="413.59 235.83 417.48 238.09 413.59 240.33 413.59 235.83"/><polygon class="cls-1" points="391.34 238.09 395.3 235.8 395.3 240.38 391.34 238.09"/><polygon class="cls-1" points="359.07 256.19 364.39 253.12 364.39 259.26 359.07 256.19"/><polygon class="cls-1" points="350.06 270.65 356.38 274.3 350.06 277.95 350.06 270.65"/><polygon class="cls-1" points="325.27 310.51 334.25 305.33 334.25 315.69 325.27 310.51"/><polygon class="cls-1" points="317.38 322.68 327.65 328.62 317.38 334.55 317.38 322.68"/><polygon class="cls-1" points="291.06 364.83 304.31 357.18 304.31 372.48 291.06 364.83"/><polygon class="cls-1" points="284.62 374.59 299.08 382.94 284.62 391.28 284.62 374.59"/><polygon class="cls-1" points="257.28 419.15 274.16 409.4 274.16 428.89 257.28 419.15"/><polygon class="cls-1" points="251.9 426.55 270.44 437.26 251.9 447.96 251.9 426.55"/><polygon class="cls-1" points="222.69 473.47 244.41 460.92 244.41 486.01 222.69 473.47"/><polygon class="cls-1" points="219.07 478.33 242.01 491.57 219.07 504.82 219.07 478.33"/><polygon class="cls-1" points="190.17 527.79 213.63 514.24 213.63 541.34 190.17 527.79"/><polygon class="cls-1" points="187.58 532.42 210.92 545.89 187.58 559.37 187.58 532.42"/><polygon class="cls-1" points="188.08 569.51 209.91 582.11 188.08 594.71 188.08 569.51"/><polygon class="cls-1" points="191.96 600.21 212.74 588.22 212.74 612.21 191.96 600.21"/><polygon class="cls-1" points="221.13 626.76 237.88 636.43 221.13 646.09 221.13 626.76"/><polygon class="cls-1" points="227.8 654.53 241.86 646.42 241.86 662.65 227.8 654.53"/><polygon class="cls-1" points="254.96 685.34 264.32 690.75 254.96 696.14 254.96 685.34"/><polygon class="cls-1" points="263.96 708.85 270.82 704.89 270.82 712.81 263.96 708.85"/><polygon class="cls-1" points="288.64 743.67 291.05 745.06 288.64 746.46 288.64 743.67"/><polygon class="cls-1" points="299.32 763.17 300.19 762.67 300.19 763.67 299.32 763.17"/><polygon class="cls-1" points="801 328.62 802.01 328.03 802.01 329.2 801 328.62"/><polygon class="cls-1" points="790.74 309.68 792.17 310.51 790.74 311.34 790.74 309.68"/><polygon class="cls-1" points="768.81 274.3 771.06 272.99 771.06 275.6 768.81 274.3"/><polygon class="cls-1" points="759 254.71 761.58 256.19 759 257.68 759 254.71"/><polygon class="cls-1" points="759.11 218.67 761.37 219.98 759.11 221.28 759.11 218.67"/><polygon class="cls-1" points="737.13 219.98 739.86 218.4 739.86 221.56 737.13 219.98"/><polygon class="cls-1" points="696.07 218.13 699.26 219.98 696.07 221.82 696.07 218.13"/><polygon class="cls-1" points="673.99 219.98 677.35 218.04 677.35 221.91 673.99 219.98"/><polygon class="cls-1" points="633.2 217.87 636.85 219.98 633.2 222.09 633.2 217.87"/><polygon class="cls-1" points="610.97 219.98 614.77 217.78 614.77 222.17 610.97 219.98"/><polygon class="cls-1" points="570.42 217.78 574.23 219.98 570.42 222.17 570.42 217.78"/><polygon class="cls-1" points="548.26 219.98 552.05 217.79 552.05 222.16 548.26 219.98"/><polygon class="cls-1" points="507.76 217.89 511.38 219.98 507.76 222.07 507.76 217.89"/><polygon class="cls-1" points="485.69 219.98 489.25 217.93 489.25 222.03 485.69 219.98"/><polygon class="cls-1" points="445.19 218.16 448.35 219.98 445.19 221.8 445.19 218.16"/><polygon class="cls-1" points="423.34 219.98 426.34 218.25 426.34 221.71 423.34 219.98"/><polygon class="cls-1" points="382.41 218.05 385.75 219.98 382.41 221.91 382.41 218.05"/><polygon class="cls-1" points="360.15 219.98 363.85 217.84 363.85 222.12 360.15 219.98"/><polygon class="cls-1" points="350.6 235.38 355.28 238.09 350.6 240.79 350.6 235.38"/><polygon class="cls-1" points="326.9 274.3 333.44 270.52 333.44 278.07 326.9 274.3"/><polygon class="cls-1" points="318.27 288.01 325.87 292.4 318.27 296.8 318.27 288.01"/><polygon class="cls-1" points="293.29 328.62 303.2 322.9 303.2 334.34 293.29 328.62"/><polygon class="cls-1" points="285.74 340.32 296.84 346.72 285.74 353.13 285.74 340.32"/><polygon class="cls-1" points="259.36 382.94 273.12 374.99 273.12 390.88 259.36 382.94"/><polygon class="cls-1" points="253.14 392.48 267.96 401.04 253.14 409.6 253.14 392.48"/><polygon class="cls-1" points="225.27 437.26 243.12 426.95 243.12 447.56 225.27 437.26"/><polygon class="cls-1" points="220.21 444.09 239.74 455.36 220.21 466.63 220.21 444.09"/><polygon class="cls-1" points="191.02 491.57 213.21 478.77 213.21 504.38 191.02 491.57"/><polygon class="cls-1" points="187.76 496.53 210.54 509.68 187.76 522.83 187.76 496.53"/><polygon class="cls-1" points="159.55 545.89 181.9 532.99 181.9 558.8 159.55 545.89"/><polygon class="cls-1" points="156.84 551.6 178.31 564 156.84 576.4 156.84 551.6"/><polygon class="cls-1" points="160.64 582.11 181.36 570.14 181.36 594.07 160.64 582.11"/><polygon class="cls-1" points="189.34 607.9 207.39 618.32 189.34 628.74 189.34 607.9"/><polygon class="cls-1" points="195.11 636.43 211.16 627.16 211.16 645.7 195.11 636.43"/><polygon class="cls-1" points="222.91 666.03 234.34 672.64 222.91 679.24 222.91 666.03"/><polygon class="cls-1" points="231 690.75 240.26 685.4 240.26 696.09 231 690.75"/><polygon class="cls-1" points="256.56 724.33 261.12 726.96 256.56 729.59 256.56 724.33"/><polygon class="cls-1" points="266.72 745.06 269.44 743.5 269.44 746.63 266.72 745.06"/><polygon class="cls-1" points="289.44 781.27 289.45 781.27 289.44 781.28 289.44 781.27"/><polygon class="cls-1" points="800.73 292.4 802.15 291.59 802.15 293.22 800.73 292.4"/><polygon class="cls-1" points="790.64 273.29 792.38 274.3 790.64 275.3 790.64 273.29"/><polygon class="cls-1" points="768.81 238.09 771.06 236.78 771.06 239.39 768.81 238.09"/><polygon class="cls-1" points="769.12 201.87 770.91 200.84 770.91 202.91 769.12 201.87"/><polygon class="cls-1" points="727.74 200.57 730 201.87 727.74 203.18 727.74 200.57"/><polygon class="cls-1" points="705.99 201.87 708.39 200.49 708.39 203.25 705.99 201.87"/><polygon class="cls-1" points="664.98 200.49 667.37 201.87 664.98 203.25 664.98 200.49"/><polygon class="cls-1" points="643.21 201.87 645.7 200.44 645.7 203.31 643.21 201.87"/><polygon class="cls-1" points="602.21 200.41 604.75 201.87 602.21 203.34 602.21 200.41"/><polygon class="cls-1" points="580.46 201.87 582.99 200.42 582.99 203.33 580.46 201.87"/><polygon class="cls-1" points="539.49 200.42 542.01 201.87 539.49 203.33 539.49 200.42"/><polygon class="cls-1" points="517.85 201.87 520.21 200.51 520.21 203.24 517.85 201.87"/><polygon class="cls-1" points="476.82 200.51 479.18 201.87 476.82 203.24 476.82 200.51"/><polygon class="cls-1" points="455.23 201.87 457.43 200.6 457.43 203.14 455.23 201.87"/><polygon class="cls-1" points="414.15 200.6 416.36 201.87 414.15 203.14 414.15 200.6"/><polygon class="cls-1" points="392.36 201.87 394.79 200.47 394.79 203.27 392.36 201.87"/><polygon class="cls-1" points="351.07 199.97 354.36 201.87 351.07 203.77 351.07 199.97"/><polygon class="cls-1" points="327.98 238.09 332.89 235.25 332.89 240.92 327.98 238.09"/><polygon class="cls-1" points="318.84 252.8 324.72 256.19 318.84 259.59 318.84 252.8"/><polygon class="cls-1" points="294.9 292.4 302.39 288.08 302.39 296.73 294.9 292.4"/><polygon class="cls-1" points="286.64 305.66 295.04 310.51 286.64 315.36 286.64 305.66"/><polygon class="cls-1" points="261.62 346.72 271.99 340.74 271.99 352.71 261.62 346.72"/><polygon class="cls-1" points="254.2 358.11 265.84 364.83 254.2 371.55 254.2 358.11"/><polygon class="cls-1" points="227.97 401.04 241.78 393.07 241.78 409.02 227.97 401.04"/><polygon class="cls-1" points="221.66 410.38 236.85 419.15 221.66 427.92 221.66 410.38"/><polygon class="cls-1" points="193.4 455.36 212.02 444.61 212.02 466.11 193.4 455.36"/><polygon class="cls-1" points="188.63 461.82 208.81 473.47 188.63 485.12 188.63 461.82"/><polygon class="cls-1" points="159.84 509.68 181.76 497.02 181.76 522.34 159.84 509.68"/><polygon class="cls-1" points="156.68 515.11 178.63 527.79 156.68 540.46 156.68 515.11"/><polygon class="cls-1" points="129.5 564 149.88 552.23 149.88 575.77 129.5 564"/><polygon class="cls-1" points="157.94 589.72 176.11 600.21 157.94 610.71 157.94 589.72"/><polygon class="cls-1" points="163.43 618.32 179.96 608.78 179.96 627.86 163.43 618.32"/><polygon class="cls-1" points="191.13 647.21 203.81 654.53 191.13 661.86 191.13 647.21"/><polygon class="cls-1" points="198.53 672.64 209.45 666.33 209.45 678.95 198.53 672.64"/><polygon class="cls-1" points="224.44 704.9 231.28 708.85 224.44 712.8 224.44 704.9"/><polygon class="cls-1" points="234.17 726.96 238.68 724.36 238.68 729.56 234.17 726.96"/><polygon class="cls-1" points="257.69 762.5 258.86 763.17 257.69 763.85 257.69 762.5"/><polygon class="cls-1" points="268.53 781.27 268.54 781.27 268.54 781.28 268.53 781.27"/><polygon class="cls-1" points="800.63 256.19 802.2 255.29 802.2 257.1 800.63 256.19"/><polygon class="cls-1" points="790.63 237.05 792.41 238.09 790.63 239.12 790.63 237.05"/><polygon class="cls-1" points="759.37 182.91 760.85 183.77 759.37 184.62 759.37 182.91"/><polygon class="cls-1" points="737.86 183.77 739.5 182.82 739.5 184.71 737.86 183.77"/><polygon class="cls-1" points="696.59 182.82 698.23 183.77 696.59 184.71 696.59 182.82"/><polygon class="cls-1" points="675.15 183.77 676.77 182.83 676.77 184.7 675.15 183.77"/><polygon class="cls-1" points="633.93 182.92 635.39 183.77 633.93 184.61 633.93 182.92"/><polygon class="cls-1" points="612.53 183.77 613.99 182.92 613.99 184.61 612.53 183.77"/><polygon class="cls-1" points="571.21 182.93 572.65 183.77 571.21 184.6 571.21 182.93"/><polygon class="cls-1" points="549.82 183.77 551.26 182.93 551.26 184.6 549.82 183.77"/><polygon class="cls-1" points="508.44 182.85 510.02 183.77 508.44 184.68 508.44 182.85"/><polygon class="cls-1" points="487 183.77 488.6 182.84 488.6 184.69 487 183.77"/><polygon class="cls-1" points="445.71 182.84 447.31 183.77 445.71 184.69 445.71 182.84"/><polygon class="cls-1" points="424.24 183.77 425.89 182.82 425.89 184.71 424.24 183.77"/><polygon class="cls-1" points="382.77 182.46 385.04 183.77 382.77 185.07 382.77 182.46"/><polygon class="cls-1" points="360.79 183.77 363.53 182.18 363.53 185.35 360.79 183.77"/><polygon class="cls-1" points="328.75 201.87 332.51 199.71 332.51 204.04 328.75 201.87"/><polygon class="cls-1" points="319.33 217.43 323.75 219.98 319.33 222.53 319.33 217.43"/><polygon class="cls-1" points="295.9 256.19 301.89 252.73 301.89 259.65 295.9 256.19"/><polygon class="cls-1" points="287.22 270.44 293.89 274.3 287.22 278.15 287.22 270.44"/><polygon class="cls-1" points="263.29 310.51 271.15 305.97 271.15 315.05 263.29 310.51"/><polygon class="cls-1" points="255.25 323.72 263.74 328.62 255.25 333.51 255.25 323.72"/><polygon class="cls-1" points="230.16 364.83 240.68 358.76 240.68 370.9 230.16 364.83"/><polygon class="cls-1" points="222.85 376.24 234.46 382.94 222.85 389.64 222.85 376.24"/><polygon class="cls-1" points="196.51 419.15 210.47 411.09 210.47 427.21 196.51 419.15"/><polygon class="cls-1" points="190.1 428.14 205.88 437.26 190.1 446.37 190.1 428.14"/><polygon class="cls-1" points="161.64 473.47 180.85 462.37 180.85 484.56 161.64 473.47"/><polygon class="cls-1" points="157.17 479.74 177.66 491.57 157.17 503.41 157.17 479.74"/><polygon class="cls-1" points="129.01 527.79 150.13 515.6 150.13 539.98 129.01 527.79"/><polygon class="cls-1" points="125.77 534.01 146.36 545.89 125.77 557.78 125.77 534.01"/><polygon class="cls-1" points="126.59 571.63 144.73 582.11 126.59 592.58 126.59 571.63"/><polygon class="cls-1" points="132 600.21 148.63 590.61 148.63 609.81 132 600.21"/><polygon class="cls-1" points="159.56 628.75 172.86 636.43 159.56 644.1 159.56 628.75"/><polygon class="cls-1" points="166.91 654.53 178.22 648 178.22 661.07 166.91 654.53"/><polygon class="cls-1" points="192.66 686.08 200.74 690.75 192.66 695.41 192.66 686.08"/><polygon class="cls-1" points="201.65 708.85 207.9 705.25 207.9 712.46 201.65 708.85"/><polygon class="cls-1" points="225.87 743.59 228.43 745.06 225.87 746.54 225.87 743.59"/><polygon class="cls-1" points="236.46 763.17 237.53 762.56 237.53 763.78 236.46 763.17"/><polygon class="cls-1" points="800.69 219.98 802.17 219.13 802.17 220.83 800.69 219.98"/><polygon class="cls-1" points="790.75 201.06 792.16 201.87 790.75 202.69 790.75 201.06"/><polygon class="cls-1" points="790.98 165.24 791.7 165.66 790.98 166.07 790.98 165.24"/><polygon class="cls-1" points="769.73 165.66 770.6 165.16 770.6 166.16 769.73 165.66"/><polygon class="cls-1" points="728.13 165.02 729.24 165.66 728.13 166.3 728.13 165.02"/><polygon class="cls-1" points="706.91 165.66 707.93 165.07 707.93 166.25 706.91 165.66"/><polygon class="cls-1" points="665.54 165.24 666.25 165.66 665.54 166.07 665.54 165.24"/><polygon class="cls-1" points="644.4 165.66 645.1 165.26 645.1 166.06 644.4 165.66"/><polygon class="cls-1" points="602.83 165.26 603.51 165.66 602.83 166.06 602.83 165.26"/><polygon class="cls-1" points="581.69 165.66 582.38 165.26 582.38 166.06 581.69 165.66"/><polygon class="cls-1" points="540.05 165.18 540.89 165.66 540.05 166.14 540.05 165.18"/><polygon class="cls-1" points="518.77 165.66 519.75 165.09 519.75 166.23 518.77 165.66"/><polygon class="cls-1" points="477.21 164.98 478.39 165.66 477.21 166.34 477.21 164.98"/><polygon class="cls-1" points="455.84 165.66 457.13 164.91 457.13 166.41 455.84 165.66"/><polygon class="cls-1" points="414.36 164.74 415.95 165.66 414.36 166.58 414.36 164.74"/><polygon class="cls-1" points="392.68 165.66 394.63 164.53 394.63 166.79 392.68 165.66"/><polygon class="cls-1" points="351.23 164.05 354.03 165.66 351.23 167.27 351.23 164.05"/><polygon class="cls-1" points="329.07 165.66 332.35 163.77 332.35 167.55 329.07 165.66"/><polygon class="cls-1" points="319.57 181.63 323.27 183.77 319.57 185.91 319.57 181.63"/><polygon class="cls-1" points="296.63 219.98 301.53 217.16 301.53 222.8 296.63 219.98"/><polygon class="cls-1" points="287.61 234.91 293.11 238.09 287.61 241.26 287.61 234.91"/><polygon class="cls-1" points="264.16 274.3 270.72 270.51 270.72 278.08 264.16 274.3"/><polygon class="cls-1" points="255.85 288.54 262.54 292.4 255.85 296.27 255.85 288.54"/><polygon class="cls-1" points="232.2 328.62 239.66 324.31 239.66 332.92 232.2 328.62"/><polygon class="cls-1" points="223.97 341.97 232.21 346.72 223.97 351.48 223.97 341.97"/><polygon class="cls-1" points="198.92 382.94 209.26 376.97 209.26 388.9 198.92 382.94"/><polygon class="cls-1" points="191.59 394.51 202.9 401.04 191.59 407.57 191.59 394.51"/><polygon class="cls-1" points="164.61 437.26 179.37 428.73 179.37 445.78 164.61 437.26"/><polygon class="cls-1" points="158.44 445.74 175.11 455.36 158.44 464.98 158.44 445.74"/><polygon class="cls-1" points="129.89 491.57 149.69 480.15 149.69 503 129.89 491.57"/><polygon class="cls-1" points="125.8 497.85 146.29 509.68 125.8 521.51 125.8 497.85"/><polygon class="cls-1" points="98.39 545.89 118.4 534.34 118.4 557.45 98.39 545.89"/><polygon class="cls-1" points="94.97 553.08 113.88 564 94.97 574.92 94.97 553.08"/><polygon class="cls-1" points="100.21 582.11 117.48 572.14 117.48 592.08 100.21 582.11"/><polygon class="cls-1" points="128.18 610.6 141.55 618.32 128.18 626.04 128.18 610.6"/><polygon class="cls-1" points="135.35 636.43 146.96 629.73 146.96 643.13 135.35 636.43"/><polygon class="cls-1" points="161.19 667.78 169.61 672.64 161.19 677.49 161.19 667.78"/><polygon class="cls-1" points="169.84 690.75 176.75 686.76 176.75 694.73 169.84 690.75"/><polygon class="cls-1" points="194.16 724.89 197.75 726.96 194.16 729.03 194.16 724.89"/><polygon class="cls-1" points="204.31 745.06 206.56 743.76 206.56 746.37 204.31 745.06"/><polygon class="cls-1" points="226.72 781.27 226.72 781.27 226.72 781.28 226.72 781.27"/><polygon class="cls-1" points="801.04 183.77 801.99 183.22 801.99 184.32 801.04 183.77"/><polygon class="cls-1" points="801.58 147.55 801.72 147.47 801.72 147.63 801.58 147.55"/><polygon class="cls-1" points="759.67 147.23 760.23 147.55 759.67 147.87 759.67 147.23"/><polygon class="cls-1" points="738.57 147.55 739.14 147.22 739.14 147.88 738.57 147.55"/><polygon class="cls-1" points="697 147.32 697.41 147.55 697 147.79 697 147.32"/><polygon class="cls-1" points="676.05 147.55 676.32 147.4 676.32 147.71 676.05 147.55"/><polygon class="cls-1" points="634.37 147.48 634.5 147.55 634.37 147.63 634.37 147.48"/><polygon class="cls-1" points="613.42 147.55 613.55 147.48 613.55 147.63 613.42 147.55"/><polygon class="cls-1" points="571.59 147.38 571.9 147.55 571.59 147.73 571.59 147.38"/><polygon class="cls-1" points="550.5 147.55 550.93 147.3 550.93 147.8 550.5 147.55"/><polygon class="cls-1" points="508.72 147.12 509.47 147.55 508.72 147.98 508.72 147.12"/><polygon class="cls-1" points="487.4 147.55 488.39 146.98 488.39 148.12 487.4 147.55"/><polygon class="cls-1" points="445.82 146.81 447.11 147.55 445.82 148.3 445.82 146.81"/><polygon class="cls-1" points="424.35 147.55 425.83 146.69 425.83 148.41 424.35 147.55"/><polygon class="cls-1" points="382.82 146.34 384.93 147.55 382.82 148.77 382.82 146.34"/><polygon class="cls-1" points="360.89 147.55 363.48 146.06 363.48 149.05 360.89 147.55"/><polygon class="cls-1" points="319.68 145.61 323.05 147.55 319.68 149.5 319.68 145.61"/><polygon class="cls-1" points="297.18 183.77 301.25 181.41 301.25 186.12 297.18 183.77"/><polygon class="cls-1" points="287.92 199.24 292.48 201.87 287.92 204.51 287.92 199.24"/><polygon class="cls-1" points="264.76 238.09 270.42 234.81 270.42 241.35 264.76 238.09"/><polygon class="cls-1" points="256.08 252.73 262.08 256.19 256.08 259.65 256.08 252.73"/><polygon class="cls-1" points="233.25 292.4 239.13 289 239.13 295.8 233.25 292.4"/><polygon class="cls-1" points="224.72 307.04 230.72 310.51 224.72 313.98 224.72 307.04"/><polygon class="cls-1" points="201.16 346.72 208.14 342.7 208.14 350.75 201.16 346.72"/><polygon class="cls-1" points="192.73 360.27 200.62 364.83 192.73 369.39 192.73 360.27"/><polygon class="cls-1" points="167.76 401.04 177.8 395.25 177.8 406.84 167.76 401.04"/><polygon class="cls-1" points="160.13 412.44 171.74 419.15 160.13 425.85 160.13 412.44"/><polygon class="cls-1" points="132.47 455.36 148.4 446.17 148.4 464.56 132.47 455.36"/><polygon class="cls-1" points="126.72 463.22 144.47 473.47 126.72 483.72 126.72 463.22"/><polygon class="cls-1" points="98.37 509.68 118.41 498.11 118.41 521.25 98.37 509.68"/><polygon class="cls-1" points="94.58 516.19 114.66 527.79 94.58 539.38 94.58 516.19"/><polygon class="cls-1" points="67.91 564 86.59 553.21 86.59 574.79 67.91 564"/><polygon class="cls-1" points="96.43 591.83 110.96 600.21 96.43 608.6 96.43 591.83"/><polygon class="cls-1" points="103.6 618.32 115.79 611.28 115.79 625.36 103.6 618.32"/><polygon class="cls-1" points="129.87 649.74 138.17 654.53 129.87 659.32 129.87 649.74"/><polygon class="cls-1" points="138.48 672.64 145.39 668.65 145.39 676.63 138.48 672.64"/><polygon class="cls-1" points="162.59 706.41 166.82 708.85 162.59 711.29 162.59 706.41"/><polygon class="cls-1" points="172.6 726.96 175.38 725.35 175.38 728.56 172.6 726.96"/><polygon class="cls-1" points="195.12 762.75 195.84 763.17 195.12 763.58 195.12 762.75"/><polygon class="cls-1" points="770.31 129.44 770.32 129.44 770.32 129.45 770.31 129.44"/><polygon class="cls-1" points="728.46 129.38 728.58 129.44 728.46 129.52 728.46 129.38"/><polygon class="cls-1" points="540.23 129.28 540.52 129.44 540.23 129.62 540.23 129.28"/><polygon class="cls-1" points="519.07 129.44 519.6 129.14 519.6 129.76 519.07 129.44"/><polygon class="cls-1" points="477.28 128.88 478.26 129.44 477.28 130.02 477.28 128.88"/><polygon class="cls-1" points="455.91 129.44 457.09 128.76 457.09 130.13 455.91 129.44"/><polygon class="cls-1" points="414.34 128.51 415.97 129.44 414.34 130.38 414.34 128.51"/><polygon class="cls-1" points="392.68 129.44 394.63 128.32 394.63 130.58 392.68 129.44"/><polygon class="cls-1" points="351.28 127.93 353.92 129.44 351.28 130.97 351.28 127.93"/><polygon class="cls-1" points="329.29 129.44 332.24 127.74 332.24 131.15 329.29 129.44"/><polygon class="cls-1" points="297.39 147.55 301.15 145.38 301.15 149.72 297.39 147.55"/><polygon class="cls-1" points="288.08 163.3 292.16 165.66 288.08 168.01 288.08 163.3"/><polygon class="cls-1" points="265.27 201.87 270.17 199.05 270.17 204.7 265.27 201.87"/><polygon class="cls-1" points="256.32 216.93 261.6 219.98 256.32 223.03 256.32 216.93"/><polygon class="cls-1" points="233.6 256.19 238.96 253.1 238.96 259.28 233.6 256.19"/><polygon class="cls-1" points="225 271.32 230.16 274.3 225 277.28 225 271.32"/><polygon class="cls-1" points="202.56 310.51 207.44 307.69 207.44 313.32 202.56 310.51"/><polygon class="cls-1" points="193.69 325.73 198.7 328.62 193.69 331.51 193.69 325.73"/><polygon class="cls-1" points="170.09 364.83 176.63 361.06 176.63 368.6 170.09 364.83"/><polygon class="cls-1" points="161.44 378.52 169.1 382.94 161.44 387.35 161.44 378.52"/><polygon class="cls-1" points="136.04 419.15 146.61 413.05 146.61 425.25 136.04 419.15"/><polygon class="cls-1" points="128.32 429.79 141.26 437.26 128.32 444.73 128.32 429.79"/><polygon class="cls-1" points="100.2 473.47 117.49 463.49 117.49 483.45 100.2 473.47"/><polygon class="cls-1" points="95.01 480.73 113.8 491.57 95.01 502.42 95.01 480.73"/><polygon class="cls-1" points="67.05 527.79 87.03 516.25 87.03 539.32 67.05 527.79"/><polygon class="cls-1" points="63.31 534.46 83.11 545.89 63.31 557.33 63.31 534.46"/><polygon class="cls-1" points="64.42 572.58 80.91 582.11 64.42 591.63 64.42 572.58"/><polygon class="cls-1" points="71.06 600.21 85.02 592.16 85.02 608.27 71.06 600.21"/><polygon class="cls-1" points="98.17 631.05 107.48 636.43 98.17 641.8 98.17 631.05"/><polygon class="cls-1" points="106.9 654.53 114.14 650.35 114.14 658.71 106.9 654.53"/><polygon class="cls-1" points="131.17 688.21 135.56 690.75 131.17 693.28 131.17 688.21"/><polygon class="cls-1" points="141.02 708.85 144.12 707.06 144.12 710.64 141.02 708.85"/><polygon class="cls-1" points="163.66 744.48 164.68 745.06 163.66 745.65 163.66 744.48"/><polygon class="cls-1" points="174.27 763.17 174.54 763.01 174.54 763.33 174.27 763.17"/><polygon class="cls-1" points="550.71 111.34 550.82 111.28 550.82 111.4 550.71 111.34"/><polygon class="cls-1" points="508.79 111.03 509.32 111.34 508.79 111.65 508.79 111.03"/><polygon class="cls-1" points="487.57 111.34 488.3 110.92 488.3 111.76 487.57 111.34"/><polygon class="cls-1" points="445.85 110.66 447.04 111.34 445.85 112.02 445.85 110.66"/><polygon class="cls-1" points="424.42 111.34 425.8 110.54 425.8 112.14 424.42 111.34"/><polygon class="cls-1" points="382.87 110.21 384.83 111.34 382.87 112.47 382.87 110.21"/><polygon class="cls-1" points="361.07 111.34 363.39 110 363.39 112.68 361.07 111.34"/><polygon class="cls-1" points="319.83 109.66 322.74 111.34 319.83 113.02 319.83 109.66"/><polygon class="cls-1" points="297.82 111.34 300.93 109.54 300.93 113.14 297.82 111.34"/><polygon class="cls-1" points="288.24 127.37 291.84 129.44 288.24 131.52 288.24 127.37"/><polygon class="cls-1" points="265.6 165.66 270 163.12 270 168.2 265.6 165.66"/><polygon class="cls-1" points="256.5 181.04 261.23 183.77 256.5 186.5 256.5 181.04"/><polygon class="cls-1" points="233.87 219.98 238.83 217.12 238.83 222.84 233.87 219.98"/><polygon class="cls-1" points="225.11 235.3 229.93 238.09 225.11 240.86 225.11 235.3"/><polygon class="cls-1" points="203.06 274.3 207.19 271.91 207.19 276.69 203.06 274.3"/><polygon class="cls-1" points="194.1 290.22 197.88 292.4 194.1 294.59 194.1 290.22"/><polygon class="cls-1" points="171.89 328.62 175.73 326.4 175.73 330.84 171.89 328.62"/><polygon class="cls-1" points="162.55 344.21 166.89 346.72 162.55 349.23 162.55 344.21"/><polygon class="cls-1" points="138.8 382.94 145.24 379.22 145.24 386.65 138.8 382.94"/><polygon class="cls-1" points="130.02 396.52 137.86 401.04 130.02 405.57 130.02 396.52"/><polygon class="cls-1" points="103.52 437.26 115.83 430.14 115.83 444.37 103.52 437.26"/><polygon class="cls-1" points="96.32 446.79 111.17 455.36 96.32 463.94 96.32 446.79"/><polygon class="cls-1" points="67.95 491.57 86.58 480.82 86.58 502.33 67.95 491.57"/><polygon class="cls-1" points="63.3 498.24 83.13 509.68 63.3 521.13 63.3 498.24"/><polygon class="cls-1" points="35.49 545.89 55.77 534.19 55.77 557.6 35.49 545.89"/><polygon class="cls-1" points="32.12 552.86 51.42 564 32.12 575.14 32.12 552.86"/><polygon class="cls-1" points="37.81 582.11 54.6 572.41 54.6 591.8 37.81 582.11"/><polygon class="cls-1" points="66.22 611.93 77.29 618.32 66.22 624.71 66.22 611.93"/><polygon class="cls-1" points="74.6 636.43 83.25 631.43 83.25 641.42 74.6 636.43"/><polygon class="cls-1" points="99.65 669.82 104.53 672.64 99.65 675.46 99.65 669.82"/><polygon class="cls-1" points="109.45 690.75 112.87 688.77 112.87 692.72 109.45 690.75"/><polygon class="cls-1" points="132.28 726.34 133.35 726.96 132.28 727.57 132.28 726.34"/><polygon class="cls-1" points="142.81 745.06 143.23 744.82 143.23 745.31 142.81 745.06"/><polygon class="cls-1" points="540.28 93.15 540.43 93.23 540.28 93.32 540.28 93.15"/><polygon class="cls-1" points="519.23 93.23 519.52 93.07 519.52 93.4 519.23 93.23"/><polygon class="cls-1" points="477.36 92.81 478.1 93.23 477.36 93.66 477.36 92.81"/><polygon class="cls-1" points="456.01 93.23 457.04 92.64 457.04 93.83 456.01 93.23"/><polygon class="cls-1" points="414.39 92.37 415.88 93.23 414.39 94.09 414.39 92.37"/><polygon class="cls-1" points="392.79 93.23 394.57 92.2 394.57 94.26 392.79 93.23"/><polygon class="cls-1" points="351.41 91.92 353.68 93.23 351.41 94.55 351.41 91.92"/><polygon class="cls-1" points="329.55 93.23 332.11 91.75 332.11 94.72 329.55 93.23"/><polygon class="cls-1" points="288.43 91.47 291.47 93.23 288.43 94.99 288.43 91.47"/><polygon class="cls-1" points="265.94 129.44 269.83 127.2 269.83 131.7 265.94 129.44"/><polygon class="cls-1" points="256.67 145.1 260.91 147.55 256.67 150 256.67 145.1"/><polygon class="cls-1" points="234.13 183.77 238.69 181.13 238.69 186.4 234.13 183.77"/><polygon class="cls-1" points="225.23 199.29 229.7 201.87 225.23 204.45 225.23 199.29"/><polygon class="cls-1" points="203.14 238.09 207.15 235.78 207.15 240.4 203.14 238.09"/><polygon class="cls-1" points="194.16 254.11 197.76 256.19 194.16 258.27 194.16 254.11"/><polygon class="cls-1" points="172.65 292.4 175.35 290.85 175.35 293.96 172.65 292.4"/><polygon class="cls-1" points="163.15 309.03 165.7 310.51 163.15 311.99 163.15 309.03"/><polygon class="cls-1" points="140.96 346.72 144.15 344.88 144.15 348.56 140.96 346.72"/><polygon class="cls-1" points="131.27 362.46 135.38 364.83 131.27 367.2 131.27 362.46"/><polygon class="cls-1" points="107.13 401.04 114.03 397.06 114.03 405.03 107.13 401.04"/><polygon class="cls-1" points="98.29 413.98 107.25 419.15 98.29 424.32 98.29 413.98"/><polygon class="cls-1" points="70.69 455.36 85.2 446.99 85.2 463.74 70.69 455.36"/><polygon class="cls-1" points="64.3 463.74 81.15 473.47 64.3 483.2 64.3 463.74"/><polygon class="cls-1" points="35.47 509.68 55.77 497.96 55.77 521.4 35.47 509.68"/><polygon class="cls-1" points="31.59 515.74 52.47 527.79 31.59 539.84 31.59 515.74"/><polygon class="cls-1" points="4.35 564 24.29 552.48 24.29 575.51 4.35 564"/><polygon class="cls-1" points="33.82 592.01 48.02 600.21 33.82 608.41 33.82 592.01"/><polygon class="cls-1" points="41.63 618.32 52.7 611.93 52.7 624.71 41.63 618.32"/><polygon class="cls-1" points="67.93 651.11 73.87 654.53 67.93 657.96 67.93 651.11"/><polygon class="cls-1" points="77.55 672.64 81.78 670.2 81.78 675.08 77.55 672.64"/><polygon class="cls-1" points="100.73 707.91 102.36 708.85 100.73 709.79 100.73 707.91"/><polygon class="cls-1" points="111.35 726.96 111.92 726.63 111.92 727.29 111.35 726.96"/><polygon class="cls-1" points="550.77 75.13 550.79 75.12 550.79 75.14 550.77 75.13"/><polygon class="cls-1" points="508.83 74.88 509.26 75.13 508.83 75.38 508.83 74.88"/><polygon class="cls-1" points="487.68 75.13 488.25 74.79 488.25 75.46 487.68 75.13"/><polygon class="cls-1" points="445.9 74.53 446.93 75.13 445.9 75.72 445.9 74.53"/><polygon class="cls-1" points="424.45 75.13 425.79 74.36 425.79 75.9 424.45 75.13"/><polygon class="cls-1" points="382.93 74.09 384.73 75.13 382.93 76.17 382.93 74.09"/><polygon class="cls-1" points="361.22 75.13 363.31 73.92 363.31 76.34 361.22 75.13"/><polygon class="cls-1" points="319.94 73.65 322.51 75.13 319.94 76.61 319.94 73.65"/><polygon class="cls-1" points="298.07 75.13 300.81 73.55 300.81 76.71 298.07 75.13"/><polygon class="cls-1" points="266.4 93.23 269.6 91.38 269.6 95.09 266.4 93.23"/><polygon class="cls-1" points="256.89 109.28 260.46 111.34 256.89 113.41 256.89 109.28"/><polygon class="cls-1" points="234.36 147.55 238.58 145.11 238.58 149.99 234.36 147.55"/><polygon class="cls-1" points="225.31 163.21 229.55 165.66 225.31 168.11 225.31 163.21"/><polygon class="cls-1" points="203.15 201.87 207.14 199.57 207.14 204.17 203.15 201.87"/><polygon class="cls-1" points="194.13 217.86 197.81 219.98 194.13 222.1 194.13 217.86"/><polygon class="cls-1" points="172.62 256.19 175.37 254.6 175.37 257.78 172.62 256.19"/><polygon class="cls-1" points="163.26 273.02 165.47 274.3 163.26 275.57 163.26 273.02"/><polygon class="cls-1" points="142.1 310.51 143.58 309.66 143.58 311.37 142.1 310.51"/><polygon class="cls-1" points="132.07 327.64 133.77 328.62 132.07 329.6 132.07 327.64"/><polygon class="cls-1" points="109.59 364.83 112.8 362.98 112.8 366.68 109.59 364.83"/><polygon class="cls-1" points="99.73 380.27 104.35 382.94 99.73 385.6 99.73 380.27"/><polygon class="cls-1" points="74.73 419.15 83.18 414.27 83.18 424.03 74.73 419.15"/><polygon class="cls-1" points="66.09 430.64 77.55 437.26 66.09 443.87 66.09 430.64"/><polygon class="cls-1" points="37.61 473.47 54.71 463.6 54.71 483.34 37.61 473.47"/><polygon class="cls-1" points="32.13 480.45 51.4 491.57 32.13 502.7 32.13 480.45"/><polygon class="cls-1" points="3.3 527.79 24.82 515.36 24.82 540.22 3.3 527.79"/><polygon class="cls-1" points="0 533.44 21.57 545.89 0 558.35 0 533.44"/><polygon class="cls-1" points="1.17 571.67 19.24 582.11 1.17 592.54 1.17 571.67"/><polygon class="cls-1" points="7.82 600.21 22.55 591.71 22.55 608.72 7.82 600.21"/><polygon class="cls-1" points="35.78 631.63 44.09 636.43 35.78 641.23 35.78 631.63"/><polygon class="cls-1" points="45.16 654.53 50.93 651.2 50.93 657.86 45.16 654.53"/><polygon class="cls-1" points="69.14 689.4 71.46 690.75 69.14 692.09 69.14 689.4"/><polygon class="cls-1" points="79.59 708.85 80.76 708.18 80.76 709.53 79.59 708.85"/><polygon class="cls-1" points="540.28 56.94 540.43 57.02 540.28 57.11 540.28 56.94"/><polygon class="cls-1" points="519.23 57.02 519.52 56.85 519.52 57.19 519.23 57.02"/><polygon class="cls-1" points="477.36 56.6 478.1 57.02 477.36 57.44 477.36 56.6"/><polygon class="cls-1" points="456.11 57.02 456.99 56.51 456.99 57.53 456.11 57.02"/><polygon class="cls-1" points="414.44 56.25 415.78 57.02 414.44 57.79 414.44 56.25"/><polygon class="cls-1" points="392.88 57.02 394.52 56.07 394.52 57.97 392.88 57.02"/><polygon class="cls-1" points="351.46 55.8 353.57 57.02 351.46 58.24 351.46 55.8"/><polygon class="cls-1" points="329.74 57.02 332.01 55.71 332.01 58.33 329.74 57.02"/><polygon class="cls-1" points="288.56 55.5 291.2 57.02 288.56 58.54 288.56 55.5"/><polygon class="cls-1" points="266.67 57.02 269.46 55.41 269.46 58.63 266.67 57.02"/><polygon class="cls-1" points="257.06 73.36 260.12 75.13 257.06 76.9 257.06 73.36"/><polygon class="cls-1" points="234.78 111.34 238.37 109.27 238.37 113.42 234.78 111.34"/><polygon class="cls-1" points="225.41 127.19 229.33 129.44 225.41 131.71 225.41 127.19"/><polygon class="cls-1" points="203.2 165.66 207.12 163.4 207.12 167.92 203.2 165.66"/><polygon class="cls-1" points="194.1 181.6 197.86 183.77 194.1 185.93 194.1 181.6"/><polygon class="cls-1" points="172.46 219.98 175.45 218.25 175.45 221.7 172.46 219.98"/><polygon class="cls-1" points="163.15 236.63 165.68 238.09 163.15 239.55 163.15 236.63"/><polygon class="cls-1" points="142.17 274.3 143.55 273.5 143.55 275.1 142.17 274.3"/><polygon class="cls-1" points="132.35 291.9 133.21 292.4 132.35 292.9 132.35 291.9"/><polygon class="cls-1" points="111.13 328.62 112.03 328.1 112.03 329.14 111.13 328.62"/><polygon class="cls-1" points="100.8 345.9 102.22 346.72 100.8 347.55 100.8 345.9"/><polygon class="cls-1" points="77.72 382.94 81.69 380.65 81.69 385.22 77.72 382.94"/><polygon class="cls-1" points="68 397.73 73.74 401.04 68 404.36 68 397.73"/><polygon class="cls-1" points="41.43 437.26 52.79 430.7 52.79 443.81 41.43 437.26"/><polygon class="cls-1" points="33.69 446.95 48.27 455.36 33.69 463.78 33.69 446.95"/><polygon class="cls-1" points="4.52 491.57 24.21 480.21 24.21 502.94 4.52 491.57"/><polygon class="cls-1" points="0.04 497.28 21.5 509.68 0.04 522.08 0.04 497.28"/><polygon class="cls-1" points="3.23 611.47 15.1 618.32 3.23 625.17 3.23 611.47"/><polygon class="cls-1" points="11.88 636.43 20.53 631.43 20.53 641.42 11.88 636.43"/><polygon class="cls-1" points="37.3 670.47 41.06 672.64 37.3 674.81 37.3 670.47"/><polygon class="cls-1" points="47.6 690.75 49.71 689.53 49.71 691.96 47.6 690.75"/><polygon class="cls-1" points="69.91 726.96 69.92 726.96 69.91 726.96 69.91 726.96"/><polygon class="cls-1" points="571.69 38.91 571.7 38.91 571.69 38.92 571.69 38.91"/><polygon class="cls-1" points="550.69 38.91 550.84 38.83 550.84 39 550.69 38.91"/><polygon class="cls-1" points="508.82 38.66 509.27 38.91 508.82 39.18 508.82 38.66"/><polygon class="cls-1" points="487.57 38.91 488.3 38.49 488.3 39.34 487.57 38.91"/><polygon class="cls-1" points="445.9 38.32 446.93 38.91 445.9 39.51 445.9 38.32"/><polygon class="cls-1" points="424.45 38.91 425.79 38.15 425.79 39.69 424.45 38.91"/><polygon class="cls-1" points="382.96 37.94 384.65 38.91 382.96 39.89 382.96 37.94"/><polygon class="cls-1" points="361.31 38.91 363.27 37.78 363.27 40.04 361.31 38.91"/><polygon class="cls-1" points="320.03 37.58 322.35 38.91 320.03 40.25 320.03 37.58"/><polygon class="cls-1" points="298.25 38.91 300.72 37.49 300.72 40.34 298.25 38.91"/><polygon class="cls-1" points="257.15 37.3 259.94 38.91 257.15 40.53 257.15 37.3"/><polygon class="cls-1" points="235.1 75.13 238.21 73.33 238.21 76.92 235.1 75.13"/><polygon class="cls-1" points="225.6 91.29 228.96 93.23 225.6 95.18 225.6 91.29"/><polygon class="cls-1" points="203.31 129.44 207.06 127.28 207.06 131.61 203.31 129.44"/><polygon class="cls-1" points="194.1 145.38 197.86 147.55 194.1 149.72 194.1 145.38"/><polygon class="cls-1" points="172.26 183.77 175.55 181.87 175.55 185.66 172.26 183.77"/><polygon class="cls-1" points="163 200.15 165.99 201.87 163 203.6 163 200.15"/><polygon class="cls-1" points="141.81 238.09 143.73 236.98 143.73 239.19 141.81 238.09"/><polygon class="cls-1" points="132.2 255.43 133.51 256.19 132.2 256.95 132.2 255.43"/><polygon class="cls-1" points="111.57 292.4 111.81 292.27 111.81 292.54 111.57 292.4"/><polygon class="cls-1" points="101.22 310.41 101.39 310.51 101.22 310.61 101.22 310.41"/><polygon class="cls-1" points="79.78 346.72 80.66 346.22 80.66 347.23 79.78 346.72"/><polygon class="cls-1" points="69.25 363.68 71.25 364.83 69.25 365.98 69.25 363.68"/><polygon class="cls-1" points="45.35 401.04 50.83 397.88 50.83 404.2 45.35 401.04"/><polygon class="cls-1" points="35.88 414.53 43.88 419.15 35.88 423.77 35.88 414.53"/><polygon class="cls-1" points="7.77 455.36 22.58 446.81 22.58 463.91 7.77 455.36"/><polygon class="cls-1" points="1.23 463.14 19.12 473.47 1.23 483.8 1.23 463.14"/><polygon class="cls-1" points="5.16 651.01 11.26 654.53 5.16 658.05 5.16 651.01"/><polygon class="cls-1" points="15.04 672.64 18.95 670.38 18.95 674.89 15.04 672.64"/><polygon class="cls-1" points="38.29 708.4 39.07 708.85 38.29 709.3 38.29 708.4"/><polygon class="cls-1" points="582.14 20.81 582.15 20.8 582.15 20.82 582.14 20.81"/><polygon class="cls-1" points="540.23 20.64 540.52 20.81 540.23 20.97 540.23 20.64"/><polygon class="cls-1" points="519.13 20.81 519.57 20.56 519.57 21.06 519.13 20.81"/><polygon class="cls-1" points="477.36 20.39 478.1 20.81 477.36 21.23 477.36 20.39"/><polygon class="cls-1" points="456.01 20.81 457.04 20.21 457.04 21.4 456.01 20.81"/><polygon class="cls-1" points="414.39 19.96 415.87 20.81 414.39 21.66 414.39 19.96"/><polygon class="cls-1" points="392.88 20.81 394.52 19.86 394.52 21.76 392.88 20.81"/><polygon class="cls-1" points="351.51 19.68 353.47 20.81 351.51 21.93 351.51 19.68"/><polygon class="cls-1" points="329.82 20.81 331.98 19.56 331.98 22.05 329.82 20.81"/><polygon class="cls-1" points="288.58 19.31 291.17 20.81 288.58 22.3 288.58 19.31"/><polygon class="cls-1" points="266.7 20.81 269.45 19.22 269.45 22.39 266.7 20.81"/><polygon class="cls-1" points="235.24 38.91 238.14 37.24 238.14 40.59 235.24 38.91"/><polygon class="cls-1" points="225.7 55.25 228.76 57.02 225.7 58.79 225.7 55.25"/><polygon class="cls-1" points="203.56 93.23 206.94 91.28 206.94 95.19 203.56 93.23"/><polygon class="cls-1" points="194.18 109.31 197.71 111.34 194.18 113.38 194.18 109.31"/><polygon class="cls-1" points="172.05 147.55 175.65 145.48 175.65 149.63 172.05 147.55"/><polygon class="cls-1" points="162.9 163.76 166.19 165.66 162.9 167.56 162.9 163.76"/><polygon class="cls-1" points="141.41 201.87 143.93 200.42 143.93 203.32 141.41 201.87"/><polygon class="cls-1" points="132 218.87 133.91 219.98 132 221.09 132 218.87"/><polygon class="cls-1" points="111.24 256.19 111.97 255.77 111.97 256.61 111.24 256.19"/><polygon class="cls-1" points="101.19 274.15 101.45 274.3 101.19 274.45 101.19 274.15"/><polygon class="cls-1" points="69.91 328.61 69.92 328.62 69.91 328.62 69.91 328.61"/><polygon class="cls-1" points="47.84 364.83 49.59 363.82 49.59 365.84 47.84 364.83"/><polygon class="cls-1" points="37.48 381.07 40.7 382.94 37.48 384.8 37.48 381.07"/><polygon class="cls-1" points="12.28 419.15 20.33 414.5 20.33 423.8 12.28 419.15"/><polygon class="cls-1" points="3.34 430.58 14.89 437.26 3.34 443.93 3.34 430.58"/><polygon class="cls-1" points="6.44 689.44 8.7 690.75 6.44 692.05 6.44 689.44"/><polygon class="cls-1" points="17.07 708.85 17.93 708.35 17.93 709.35 17.07 708.85"/><polygon class="cls-1" points="571.68 2.69 571.71 2.7 571.68 2.72 571.68 2.69"/><polygon class="cls-1" points="550.67 2.7 550.84 2.61 550.84 2.8 550.67 2.7"/><polygon class="cls-1" points="508.77 2.37 509.36 2.7 508.77 3.04 508.77 2.37"/><polygon class="cls-1" points="487.57 2.7 488.3 2.28 488.3 3.12 487.57 2.7"/><polygon class="cls-1" points="445.85 2.02 447.04 2.7 445.85 3.38 445.85 2.02"/><polygon class="cls-1" points="424.45 2.7 425.79 1.93 425.79 3.47 424.45 2.7"/><polygon class="cls-1" points="382.98 1.75 384.62 2.7 382.98 3.65 382.98 1.75"/><polygon class="cls-1" points="361.31 2.7 363.27 1.57 363.27 3.83 361.31 2.7"/><polygon class="cls-1" points="320.05 1.39 322.32 2.7 320.05 4.01 320.05 1.39"/><polygon class="cls-1" points="298.28 2.7 300.71 1.3 300.71 4.11 298.28 2.7"/><polygon class="cls-1" points="257.16 1.11 259.91 2.7 257.16 4.29 257.16 1.11"/><polygon class="cls-1" points="235.24 2.7 238.14 1.02 238.14 4.38 235.24 2.7"/><polygon class="cls-1" points="225.7 19.04 228.76 20.81 225.7 22.58 225.7 19.04"/><polygon class="cls-1" points="203.66 57.02 206.88 55.16 206.88 58.88 203.66 57.02"/><polygon class="cls-1" points="194.27 73.24 197.54 75.13 194.27 77.02 194.27 73.24"/><polygon class="cls-1" points="172.16 111.34 175.59 109.36 175.59 113.32 172.16 111.34"/><polygon class="cls-1" points="162.82 127.41 166.35 129.44 162.82 131.49 162.82 127.41"/><polygon class="cls-1" points="141.05 165.66 144.11 163.89 144.11 167.43 141.05 165.66"/><polygon class="cls-1" points="131.76 182.25 134.38 183.77 131.76 185.28 131.76 182.25"/><polygon class="cls-1" points="110.69 219.98 112.25 219.08 112.25 220.88 110.69 219.98"/><polygon class="cls-1" points="100.95 237.53 101.92 238.09 100.95 238.64 100.95 237.53"/><polygon class="cls-1" points="80.36 274.3 80.37 274.3 80.37 274.3 80.36 274.3"/><polygon class="cls-1" points="38.45 346.55 38.75 346.72 38.45 346.9 38.45 346.55"/><polygon class="cls-1" points="15.57 382.94 18.68 381.14 18.68 384.73 15.57 382.94"/><polygon class="cls-1" points="5.44 398.01 10.69 401.04 5.44 404.07 5.44 398.01"/><polygon class="cls-1" points="203.66 20.81 206.88 18.95 206.88 22.67 203.66 20.81"/><polygon class="cls-1" points="194.28 37.05 197.51 38.91 194.28 40.77 194.28 37.05"/><polygon class="cls-1" points="172.19 75.13 175.58 73.17 175.58 77.08 172.19 75.13"/><polygon class="cls-1" points="162.85 91.25 166.29 93.23 162.85 95.21 162.85 91.25"/><polygon class="cls-1" points="140.8 129.44 144.23 127.46 144.23 131.43 140.8 129.44"/><polygon class="cls-1" points="131.56 145.69 134.78 147.55 131.56 149.42 131.56 145.69"/><polygon class="cls-1" points="110.16 183.77 112.51 182.41 112.51 185.12 110.16 183.77"/><polygon class="cls-1" points="100.66 200.8 102.51 201.87 100.66 202.94 100.66 200.8"/><polygon class="cls-1" points="79.81 238.09 80.64 237.61 80.64 238.56 79.81 238.09"/><polygon class="cls-1" points="69.79 255.99 70.15 256.19 69.79 256.4 69.79 255.99"/><polygon class="cls-1" points="17.51 346.72 17.71 346.61 17.71 346.84 17.51 346.72"/><polygon class="cls-1" points="6.71 364 8.15 364.83 6.71 365.66 6.71 364"/><polygon class="cls-1" points="194.27 0.81 197.54 2.7 194.27 4.59 194.27 0.81"/><polygon class="cls-1" points="172.19 38.91 175.58 36.96 175.58 40.87 172.19 38.91"/><polygon class="cls-1" points="162.87 55.07 166.25 57.02 162.87 58.98 162.87 55.07"/><polygon class="cls-1" points="140.74 93.23 144.27 91.2 144.27 95.27 140.74 93.23"/><polygon class="cls-1" points="131.49 109.36 134.92 111.34 131.49 113.32 131.49 109.36"/><polygon class="cls-1" points="109.69 147.55 112.75 145.78 112.75 149.32 109.69 147.55"/><polygon class="cls-1" points="100.39 164.12 103.05 165.66 100.39 167.2 100.39 164.12"/><polygon class="cls-1" points="79.16 201.87 80.97 200.83 80.97 202.91 79.16 201.87"/><polygon class="cls-1" points="69.46 219.19 70.82 219.98 69.46 220.76 69.46 219.19"/><polygon class="cls-1" points="48.77 256.19 49.13 255.99 49.13 256.4 48.77 256.19"/><polygon class="cls-1" points="172.16 2.7 175.59 0.72 175.59 4.68 172.16 2.7"/><polygon class="cls-1" points="162.82 18.77 166.35 20.81 162.82 22.84 162.82 18.77"/><polygon class="cls-1" points="140.73 57.02 144.27 54.97 144.27 59.07 140.73 57.02"/><polygon class="cls-1" points="131.45 73.08 135 75.13 131.45 77.17 131.45 73.08"/><polygon class="cls-1" points="109.44 111.34 112.87 109.36 112.87 113.32 109.44 111.34"/><polygon class="cls-1" points="100.18 127.55 103.47 129.44 100.18 131.35 100.18 127.55"/><polygon class="cls-1" points="78.62 165.66 81.24 164.15 81.24 167.17 78.62 165.66"/><polygon class="cls-1" points="69.14 182.44 71.45 183.77 69.14 185.1 69.14 182.44"/><polygon class="cls-1" points="48.09 219.98 49.46 219.18 49.46 220.77 48.09 219.98"/><polygon class="cls-1" points="38.25 237.57 39.15 238.09 38.25 238.6 38.25 237.57"/><polygon class="cls-1" points="140.62 20.81 144.32 18.67 144.32 22.95 140.62 20.81"/><polygon class="cls-1" points="131.4 36.77 135.11 38.91 131.4 41.06 131.4 36.77"/><polygon class="cls-1" points="109.26 75.13 112.96 72.99 112.96 77.27 109.26 75.13"/><polygon class="cls-1" points="100.08 91.16 103.67 93.23 100.08 95.31 100.08 91.16"/><polygon class="cls-1" points="78.11 129.44 81.5 127.49 81.5 131.4 78.11 129.44"/><polygon class="cls-1" points="68.88 145.77 71.97 147.55 68.88 149.33 68.88 145.77"/><polygon class="cls-1" points="47.4 183.77 49.81 182.37 49.81 185.16 47.4 183.77"/><polygon class="cls-1" points="37.89 200.73 39.87 201.87 37.89 203.02 37.89 200.73"/><polygon class="cls-1" points="17.04 238.09 17.95 237.56 17.95 238.61 17.04 238.09"/><polygon class="cls-1" points="7.03 255.92 7.51 256.19 7.03 256.47 7.03 255.92"/><polygon class="cls-1" points="131.38 0.53 135.14 2.7 131.38 4.87 131.38 0.53"/><polygon class="cls-1" points="109.15 38.91 113.02 36.68 113.02 41.15 109.15 38.91"/><polygon class="cls-1" points="99.98 54.79 103.85 57.02 99.98 59.26 99.98 54.79"/><polygon class="cls-1" points="77.9 93.23 81.6 91.09 81.6 95.37 77.9 93.23"/><polygon class="cls-1" points="68.71 109.25 72.32 111.34 68.71 113.43 68.71 109.25"/><polygon class="cls-1" points="46.84 147.55 50.09 145.68 50.09 149.43 46.84 147.55"/><polygon class="cls-1" points="37.59 163.99 40.48 165.66 37.59 167.33 37.59 163.99"/><polygon class="cls-1" points="16.22 201.87 18.36 200.64 18.36 203.11 16.22 201.87"/><polygon class="cls-1" points="6.67 219.08 8.22 219.98 6.67 220.87 6.67 219.08"/><polygon class="cls-1" points="109.15 2.7 113.02 0.47 113.02 4.93 109.15 2.7"/><polygon class="cls-1" points="99.93 18.48 103.96 20.81 99.93 23.14 99.93 18.48"/><polygon class="cls-1" points="77.68 57.02 81.71 54.7 81.71 59.35 77.68 57.02"/><polygon class="cls-1" points="68.62 72.89 72.49 75.13 68.62 77.36 68.62 72.89"/><polygon class="cls-1" points="46.53 111.34 50.24 109.2 50.24 113.48 46.53 111.34"/><polygon class="cls-1" points="37.36 127.39 40.93 129.44 37.36 131.51 37.36 127.39"/><polygon class="cls-1" points="15.68 165.66 18.62 163.96 18.62 167.36 15.68 165.66"/><polygon class="cls-1" points="6.33 182.27 8.92 183.77 6.33 185.26 6.33 182.27"/><polygon class="cls-1" points="77.57 20.81 81.76 18.39 81.76 23.23 77.57 20.81"/><polygon class="cls-1" points="68.52 36.49 72.71 38.91 68.52 41.34 68.52 36.49"/><polygon class="cls-1" points="46.32 75.13 50.35 72.8 50.35 77.45 46.32 75.13"/><polygon class="cls-1" points="37.21 90.91 41.24 93.23 37.21 95.56 37.21 90.91"/><polygon class="cls-1" points="15.17 129.44 18.88 127.31 18.88 131.59 15.17 129.44"/><polygon class="cls-1" points="6.06 145.59 9.46 147.55 6.06 149.52 6.06 145.59"/><polygon class="cls-1" points="68.52 0.28 72.71 2.7 68.52 5.12 68.52 0.28"/><polygon class="cls-1" points="46.12 38.91 50.45 36.41 50.45 41.42 46.12 38.91"/><polygon class="cls-1" points="37.14 54.57 41.38 57.02 37.14 59.47 37.14 54.57"/><polygon class="cls-1" points="14.96 93.23 18.99 90.91 18.99 95.56 14.96 93.23"/><polygon class="cls-1" points="5.85 109.01 9.88 111.34 5.85 113.67 5.85 109.01"/><polygon class="cls-1" points="46.1 2.7 50.46 0.19 50.46 5.22 46.1 2.7"/><polygon class="cls-1" points="37.05 18.21 41.55 20.81 37.05 23.41 37.05 18.21"/><polygon class="cls-1" points="14.74 57.02 19.1 54.51 19.1 59.54 14.74 57.02"/><polygon class="cls-1" points="5.74 72.62 10.08 75.13 5.74 77.63 5.74 72.62"/><polygon class="cls-1" points="14.63 20.81 19.15 18.2 19.15 23.42 14.63 20.81"/><polygon class="cls-1" points="5.68 36.31 10.2 38.91 5.68 41.52 5.68 36.31"/><polygon class="cls-1" points="5.63 0 10.31 2.7 5.63 5.4 5.63 0"/></svg>