<svg id="Layer_1" data-name="Layer 1" xmlns="http://www.w3.org/2000/svg" viewBox="0 0 802.2 781.28"><defs><style>.cls-1{fill:#fff;}</style></defs><polygon class="cls-1" points="230.53 545.84 230.44 545.89 230.53 545.95 230.53 545.84"/><polygon class="cls-1" points="251.73 545.89 251.25 545.62 251.25 546.17 251.73 545.89"/><polygon class="cls-1" points="220.55 527.79 219.8 527.35 219.8 528.22 220.55 527.79"/><polygon class="cls-1" points="262.47 526.74 260.65 527.79 262.47 528.84 262.47 526.74"/><polygon class="cls-1" points="282.91 564 282.71 563.88 282.71 564.12 282.91 564"/><polygon class="cls-1" points="231.23 508.43 229.06 509.68 231.23 510.93 231.23 508.43"/><polygon class="cls-1" points="253.31 509.68 250.46 508.04 250.46 511.32 253.31 509.68"/><polygon class="cls-1" points="284.38 527.79 281.97 526.4 281.97 529.18 284.38 527.79"/><polygon class="cls-1" points="293.75 544.98 292.18 545.89 293.75 546.8 293.75 544.98"/><polygon class="cls-1" points="199.22 527.65 198.99 527.79 199.22 527.92 199.22 527.65"/><polygon class="cls-1" points="199.88 490.3 197.67 491.57 199.88 492.85 199.88 490.3"/><polygon class="cls-1" points="222.19 491.57 218.98 489.72 218.98 493.43 222.19 491.57"/><polygon class="cls-1" points="263.51 488.73 258.58 491.57 263.51 494.42 263.51 488.73"/><polygon class="cls-1" points="286.64 491.57 280.84 488.23 280.84 494.92 286.64 491.57"/><polygon class="cls-1" points="294.7 507.14 290.29 509.68 294.7 512.23 294.7 507.14"/><polygon class="cls-1" points="315.89 545.89 313.26 544.37 313.26 547.41 315.89 545.89"/><polygon class="cls-1" points="325.24 562.87 323.29 564 325.24 565.13 325.24 562.87"/><polygon class="cls-1" points="314.34 582.11 314.03 581.93 314.03 582.28 314.34 582.11"/><polygon class="cls-1" points="189.13 509.68 188.47 509.3 188.47 510.06 189.13 509.68"/><polygon class="cls-1" points="190.59 473.47 187.74 471.82 187.74 475.11 190.59 473.47"/><polygon class="cls-1" points="232.29 470.38 226.94 473.47 232.29 476.56 232.29 470.38"/><polygon class="cls-1" points="255.72 473.47 249.26 469.74 249.26 477.2 255.72 473.47"/><polygon class="cls-1" points="296.02 468.64 287.65 473.47 296.02 478.3 296.02 468.64"/><polygon class="cls-1" points="317.73 509.68 312.34 506.57 312.34 512.79 317.73 509.68"/><polygon class="cls-1" points="326.06 525.23 321.64 527.79 326.06 530.34 326.06 525.23"/><polygon class="cls-1" points="347.69 564 344.4 562.1 344.4 565.9 347.69 564"/><polygon class="cls-1" points="167.79 509.67 167.77 509.68 167.79 509.69 167.79 509.67"/><polygon class="cls-1" points="200.72 452.64 196 455.36 200.72 458.09 200.72 452.64"/><polygon class="cls-1" points="224.22 455.36 217.97 451.75 217.97 458.97 224.22 455.36"/><polygon class="cls-1" points="264.77 450.33 256.06 455.36 264.77 460.39 264.77 450.33"/><polygon class="cls-1" points="289.19 455.36 279.56 449.81 279.56 460.92 289.19 455.36"/><polygon class="cls-1" points="320.42 473.47 310.99 468.03 310.99 478.91 320.42 473.47"/><polygon class="cls-1" points="327.24 486.98 319.29 491.57 327.24 496.16 327.24 486.98"/><polygon class="cls-1" points="349.43 527.79 343.53 524.38 343.53 531.2 349.43 527.79"/><polygon class="cls-1" points="357.8 542.7 352.25 545.89 357.8 549.1 357.8 542.7"/><polygon class="cls-1" points="356.92 580.42 354 582.11 356.92 583.79 356.92 580.42"/><polygon class="cls-1" points="346.13 600.21 345.18 599.66 345.18 600.76 346.13 600.21"/><polygon class="cls-1" points="157.62 491.57 157.19 491.32 157.19 491.82 157.62 491.57"/><polygon class="cls-1" points="168.35 472.48 166.64 473.47 168.35 474.46 168.35 472.48"/><polygon class="cls-1" points="169.02 435.11 165.31 437.26 169.02 439.4 169.02 435.11"/><polygon class="cls-1" points="192.05 437.26 187.01 434.34 187.01 440.17 192.05 437.26"/><polygon class="cls-1" points="233.27 432.47 224.98 437.26 233.27 442.04 233.27 432.47"/><polygon class="cls-1" points="257.81 437.26 248.21 431.71 248.21 442.8 257.81 437.26"/><polygon class="cls-1" points="297.08 430.57 285.51 437.26 297.08 443.93 297.08 430.57"/><polygon class="cls-1" points="322.38 437.26 310.01 430.11 310.01 444.4 322.38 437.26"/><polygon class="cls-1" points="328.42 448.73 316.93 455.36 328.42 461.99 328.42 448.73"/><polygon class="cls-1" points="351.7 491.57 342.39 486.19 342.39 496.95 351.7 491.57"/><polygon class="cls-1" points="358.75 504.83 350.35 509.68 358.75 514.53 358.75 504.83"/><polygon class="cls-1" points="382.02 545.89 374.27 541.42 374.27 550.37 382.02 545.89"/><polygon class="cls-1" points="389.84 559.62 382.25 564 389.84 568.38 389.84 559.62"/><polygon class="cls-1" points="380.21 582.11 375.18 579.21 375.18 585.01 380.21 582.11"/><polygon class="cls-1" points="356.19 617.9 355.47 618.32 356.19 618.73 356.19 617.9"/><polygon class="cls-1" points="158.78 455.36 156.6 454.1 156.6 456.62 158.78 455.36"/><polygon class="cls-1" points="159.96 419.15 156.01 416.87 156.01 421.42 159.96 419.15"/><polygon class="cls-1" points="201.5 415.08 194.44 419.15 201.5 423.22 201.5 415.08"/><polygon class="cls-1" points="225.84 419.15 217.16 414.13 217.16 424.17 225.84 419.15"/><polygon class="cls-1" points="265.64 412.61 254.31 419.15 265.64 425.69 265.64 412.61"/><polygon class="cls-1" points="290.96 419.15 278.68 412.06 278.68 426.24 290.96 419.15"/><polygon class="cls-1" points="329.09 411.34 315.57 419.15 329.09 426.95 329.09 411.34"/><polygon class="cls-1" points="353.81 455.36 341.34 448.16 341.34 462.56 353.81 455.36"/><polygon class="cls-1" points="359.89 466.64 348.07 473.47 359.89 480.29 359.89 466.64"/><polygon class="cls-1" points="383.84 509.68 373.37 503.64 373.37 515.73 383.84 509.68"/><polygon class="cls-1" points="390.7 521.92 380.54 527.79 390.7 533.65 390.7 521.92"/><polygon class="cls-1" points="415.12 564 404.77 558.03 404.77 569.97 415.12 564"/><polygon class="cls-1" points="388.89 597.47 384.14 600.21 388.89 602.95 388.89 597.47"/><polygon class="cls-1" points="378.46 618.32 376.06 616.94 376.06 619.7 378.46 618.32"/><polygon class="cls-1" points="136.78 454.74 135.71 455.36 136.78 455.98 136.78 454.74"/><polygon class="cls-1" points="169.61 397.87 164.12 401.04 169.61 404.21 169.61 397.87"/><polygon class="cls-1" points="193.36 401.04 186.35 397 186.35 405.09 193.36 401.04"/><polygon class="cls-1" points="233.93 395.1 223.65 401.04 233.93 406.98 233.93 395.1"/><polygon class="cls-1" points="259.15 401.04 247.55 394.34 247.55 407.74 259.15 401.04"/><polygon class="cls-1" points="297.66 393.36 284.36 401.04 297.66 408.73 297.66 393.36"/><polygon class="cls-1" points="323.31 401.04 309.54 393.09 309.54 409 323.31 401.04"/><polygon class="cls-1" points="354.97 419.15 340.76 410.95 340.76 427.35 354.97 419.15"/><polygon class="cls-1" points="360.6 429.2 346.65 437.26 360.6 445.31 360.6 429.2"/><polygon class="cls-1" points="385.74 473.47 372.42 465.77 372.42 481.17 385.74 473.47"/><polygon class="cls-1" points="391.65 484.06 378.64 491.57 391.65 499.08 391.65 484.06"/><polygon class="cls-1" points="416.76 527.79 403.95 520.39 403.95 535.18 416.76 527.79"/><polygon class="cls-1" points="423.06 538.3 409.9 545.89 423.06 553.49 423.06 538.3"/><polygon class="cls-1" points="422.15 576.08 411.71 582.11 422.15 588.14 422.15 576.08"/><polygon class="cls-1" points="413.06 600.21 405.8 596.01 405.8 604.41 413.06 600.21"/><polygon class="cls-1" points="388.01 635.21 385.91 636.43 388.01 637.64 388.01 635.21"/><polygon class="cls-1" points="377.14 654.53 376.72 654.29 376.72 654.77 377.14 654.53"/><polygon class="cls-1" points="126.86 437.26 125.52 436.49 125.52 438.03 126.86 437.26"/><polygon class="cls-1" points="137.33 417.58 134.6 419.15 137.33 420.72 137.33 417.58"/><polygon class="cls-1" points="137.81 380.53 133.64 382.94 137.81 385.35 137.81 380.53"/><polygon class="cls-1" points="161.04 382.94 155.47 379.72 155.47 386.15 161.04 382.94"/><polygon class="cls-1" points="202.01 377.97 193.41 382.94 202.01 387.9 202.01 377.97"/><polygon class="cls-1" points="226.87 382.94 216.64 377.03 216.64 388.85 226.87 382.94"/><polygon class="cls-1" points="266.03 375.72 253.53 382.94 266.03 390.16 266.03 375.72"/><polygon class="cls-1" points="291.67 382.94 278.33 375.23 278.33 390.64 291.67 382.94"/><polygon class="cls-1" points="329.31 374.76 315.14 382.94 329.31 391.12 329.31 374.76"/><polygon class="cls-1" points="355.1 382.94 340.69 374.62 340.69 391.26 355.1 382.94"/><polygon class="cls-1" points="360.84 392.57 346.17 401.04 360.84 409.51 360.84 392.57"/><polygon class="cls-1" points="386.71 437.26 371.93 428.72 371.93 445.79 386.71 437.26"/><polygon class="cls-1" points="392.25 446.8 377.43 455.36 392.25 463.92 392.25 446.8"/><polygon class="cls-1" points="418.38 491.57 403.14 482.77 403.14 500.38 418.38 491.57"/><polygon class="cls-1" points="423.84 500.74 408.35 509.68 423.84 518.63 423.84 500.74"/><polygon class="cls-1" points="450.15 545.89 434.29 536.74 434.29 555.05 450.15 545.89"/><polygon class="cls-1" points="455.39 554.72 439.31 564 455.39 573.29 455.39 554.72"/><polygon class="cls-1" points="448.41 582.11 435.16 574.46 435.16 589.75 448.41 582.11"/><polygon class="cls-1" points="420.99 614.3 414.03 618.32 420.99 622.34 420.99 614.3"/><polygon class="cls-1" points="410.99 636.43 406.83 634.02 406.83 638.83 410.99 636.43"/><polygon class="cls-1" points="387.4 672.48 387.12 672.64 387.4 672.8 387.4 672.48"/><polygon class="cls-1" points="105.23 436.96 104.72 437.26 105.23 437.55 105.23 436.96"/><polygon class="cls-1" points="127.84 401.04 125.03 399.42 125.03 402.67 127.84 401.04"/><polygon class="cls-1" points="128.79 364.83 124.55 362.38 124.55 367.28 128.79 364.83"/><polygon class="cls-1" points="170.13 360.77 163.1 364.83 170.13 368.89 170.13 360.77"/><polygon class="cls-1" points="194.3 364.83 185.88 359.97 185.88 369.69 194.3 364.83"/><polygon class="cls-1" points="234.27 358.3 222.97 364.83 234.27 371.36 234.27 358.3"/><polygon class="cls-1" points="259.72 364.83 247.26 357.64 247.26 372.02 259.72 364.83"/><polygon class="cls-1" points="297.81 356.9 284.07 364.83 297.81 372.76 297.81 356.9"/><polygon class="cls-1" points="323.45 364.83 309.48 356.76 309.48 372.9 323.45 364.83"/><polygon class="cls-1" points="360.7 356.61 346.46 364.83 360.7 373.05 360.7 356.61"/><polygon class="cls-1" points="386.85 401.04 371.86 392.39 371.86 409.69 386.85 401.04"/><polygon class="cls-1" points="392.43 410.29 377.08 419.15 392.43 428.01 392.43 410.29"/><polygon class="cls-1" points="419.02 455.36 402.81 446 402.81 464.72 419.02 455.36"/><polygon class="cls-1" points="424.29 463.74 407.44 473.47 424.29 483.2 424.29 463.74"/><polygon class="cls-1" points="451.44 509.68 433.65 499.41 433.65 519.96 451.44 509.68"/><polygon class="cls-1" points="456.06 517.34 437.97 527.79 456.06 538.23 456.06 517.34"/><polygon class="cls-1" points="483.39 564 464.72 553.22 464.72 574.78 483.39 564"/><polygon class="cls-1" points="454.29 592.83 441.51 600.21 454.29 607.59 454.29 592.83"/><polygon class="cls-1" points="445.93 618.32 436.4 612.82 436.4 623.82 445.93 618.32"/><polygon class="cls-1" points="419.9 652.4 416.21 654.53 419.9 656.67 419.9 652.4"/><polygon class="cls-1" points="409.31 672.64 407.67 671.69 407.67 673.58 409.31 672.64"/><polygon class="cls-1" points="95.17 419.15 94.32 418.66 94.32 419.64 95.17 419.15"/><polygon class="cls-1" points="105.68 399.97 103.82 401.04 105.68 402.12 105.68 399.97"/><polygon class="cls-1" points="138.3 343.47 132.66 346.72 138.3 349.98 138.3 343.47"/><polygon class="cls-1" points="162.03 346.72 154.98 342.66 154.98 350.79 162.03 346.72"/><polygon class="cls-1" points="202.38 341.11 192.66 346.72 202.38 352.34 202.38 341.11"/><polygon class="cls-1" points="227.44 346.72 216.35 340.32 216.35 353.12 227.44 346.72"/><polygon class="cls-1" points="266.1 339.39 253.4 346.72 266.1 354.06 266.1 339.39"/><polygon class="cls-1" points="291.6 346.72 278.36 339.08 278.36 354.37 291.6 346.72"/><polygon class="cls-1" points="329.03 339.04 315.71 346.72 329.03 354.41 329.03 339.04"/><polygon class="cls-1" points="354.3 346.72 341.09 339.1 341.09 354.35 354.3 346.72"/><polygon class="cls-1" points="386.23 364.83 372.17 356.71 372.17 372.95 386.23 364.83"/><polygon class="cls-1" points="392.21 374.44 377.5 382.94 392.21 391.43 392.21 374.44"/><polygon class="cls-1" points="418.86 419.15 402.9 409.93 402.9 428.37 418.86 419.15"/><polygon class="cls-1" points="424.23 427.63 407.55 437.26 424.23 446.88 424.23 427.63"/><polygon class="cls-1" points="452.01 473.47 433.36 462.7 433.36 484.24 452.01 473.47"/><polygon class="cls-1" points="456.5 480.37 437.09 491.57 456.5 502.78 456.5 480.37"/><polygon class="cls-1" points="484.43 527.79 464.19 516.1 464.19 539.48 484.43 527.79"/><polygon class="cls-1" points="488.33 533.87 467.51 545.89 488.33 557.91 488.33 533.87"/><polygon class="cls-1" points="487.58 571.39 469.02 582.11 487.58 592.83 487.58 571.39"/><polygon class="cls-1" points="481.21 600.21 465.8 591.31 465.8 609.11 481.21 600.21"/><polygon class="cls-1" points="452.93 631.41 444.25 636.43 452.93 641.44 452.93 631.41"/><polygon class="cls-1" points="443.34 654.53 437.7 651.28 437.7 657.78 443.34 654.53"/><polygon class="cls-1" points="419.16 689.89 417.69 690.75 419.16 691.6 419.16 689.89"/><polygon class="cls-1" points="408.22 708.85 408.22 708.85 408.22 708.85 408.22 708.85"/><polygon class="cls-1" points="73.79 418.99 73.51 419.15 73.79 419.31 73.79 418.99"/><polygon class="cls-1" points="96 382.94 93.91 381.73 93.91 384.14 96 382.94"/><polygon class="cls-1" points="106.12 362.99 102.93 364.83 106.12 366.68 106.12 362.99"/><polygon class="cls-1" points="106.53 326.06 102.11 328.62 106.53 331.17 106.53 326.06"/><polygon class="cls-1" points="129.66 328.62 124.12 325.41 124.12 331.82 129.66 328.62"/><polygon class="cls-1" points="170.46 323.97 162.42 328.62 170.46 333.26 170.46 323.97"/><polygon class="cls-1" points="194.81 328.62 185.63 323.31 185.63 333.92 194.81 328.62"/><polygon class="cls-1" points="234.26 322.12 223 328.62 234.26 335.12 234.26 322.12"/><polygon class="cls-1" points="259.32 328.62 247.46 321.76 247.46 335.47 259.32 328.62"/><polygon class="cls-1" points="297.32 321.52 285.04 328.62 297.32 335.71 297.32 321.52"/><polygon class="cls-1" points="322.23 328.62 310.09 321.61 310.09 335.62 322.23 328.62"/><polygon class="cls-1" points="359.85 321.86 348.14 328.62 359.85 335.38 359.85 321.86"/><polygon class="cls-1" points="384.39 328.62 373.09 322.1 373.09 335.14 384.39 328.62"/><polygon class="cls-1" points="391.55 339.39 378.84 346.72 391.55 354.06 391.55 339.39"/><polygon class="cls-1" points="418.16 382.94 403.25 374.33 403.25 391.54 418.16 382.94"/><polygon class="cls-1" points="423.89 392 408.23 401.04 423.89 410.09 423.89 392"/><polygon class="cls-1" points="451.36 437.26 433.69 427.05 433.69 447.46 451.36 437.26"/><polygon class="cls-1" points="456.33 444.45 437.44 455.36 456.33 466.27 456.33 444.45"/><polygon class="cls-1" points="485 491.57 463.91 479.39 463.91 503.76 485 491.57"/><polygon class="cls-1" points="488.7 497.02 466.78 509.68 488.7 522.34 488.7 497.02"/><polygon class="cls-1" points="517.35 545.89 494.77 532.86 494.77 558.93 517.35 545.89"/><polygon class="cls-1" points="520.34 550.86 497.59 564 520.34 577.14 520.34 550.86"/><polygon class="cls-1" points="516.23 582.11 495.34 570.04 495.34 594.17 516.23 582.11"/><polygon class="cls-1" points="486.3 609.82 471.58 618.32 486.3 626.82 486.3 609.82"/><polygon class="cls-1" points="478.34 636.43 467.24 630.02 467.24 642.83 478.34 636.43"/><polygon class="cls-1" points="451.7 669.76 446.7 672.64 451.7 675.52 451.7 669.76"/><polygon class="cls-1" points="441.51 690.75 438.61 689.07 438.61 692.42 441.51 690.75"/><polygon class="cls-1" points="63.63 401.04 63.05 400.72 63.05 401.37 63.63 401.04"/><polygon class="cls-1" points="74.13 382.18 72.83 382.94 74.13 383.69 74.13 382.18"/><polygon class="cls-1" points="96.91 346.72 93.46 344.73 93.46 348.71 96.91 346.72"/><polygon class="cls-1" points="97.49 310.51 93.16 308.01 93.16 313.01 97.49 310.51"/><polygon class="cls-1" points="138.54 306.84 132.19 310.51 138.54 314.18 138.54 306.84"/><polygon class="cls-1" points="162.29 310.51 154.85 306.21 154.85 314.81 162.29 310.51"/><polygon class="cls-1" points="202.24 305.14 192.94 310.51 202.24 315.88 202.24 305.14"/><polygon class="cls-1" points="226.76 310.51 216.7 304.7 216.7 316.32 226.76 310.51"/><polygon class="cls-1" points="265.42 304.37 254.77 310.51 265.42 316.66 265.42 304.37"/><polygon class="cls-1" points="290 310.51 279.16 304.25 279.16 316.77 290 310.51"/><polygon class="cls-1" points="328.02 304.56 317.72 310.51 328.02 316.46 328.02 304.56"/><polygon class="cls-1" points="352.25 310.51 342.12 304.66 342.12 316.36 352.25 310.51"/><polygon class="cls-1" points="390.41 305.14 381.11 310.51 390.41 315.88 390.41 305.14"/><polygon class="cls-1" points="416.49 346.72 404.08 339.56 404.08 353.89 416.49 346.72"/><polygon class="cls-1" points="423.32 356.78 409.37 364.83 423.32 372.88 423.32 356.78"/><polygon class="cls-1" points="450.24 401.04 434.25 391.81 434.25 410.27 450.24 401.04"/><polygon class="cls-1" points="455.75 409.25 438.6 419.15 455.75 429.05 455.75 409.25"/><polygon class="cls-1" points="484.24 455.36 464.29 443.85 464.29 466.88 484.24 455.36"/><polygon class="cls-1" points="488.5 461.15 467.18 473.47 488.5 485.78 488.5 461.15"/><polygon class="cls-1" points="517.84 509.68 494.53 496.22 494.53 523.14 517.84 509.68"/><polygon class="cls-1" points="520.61 514.18 497.05 527.79 520.61 541.39 520.61 514.18"/><polygon class="cls-1" points="549.52 564 525.73 550.26 525.73 577.74 549.52 564"/><polygon class="cls-1" points="519.43 588.66 499.41 600.21 519.43 611.77 519.43 588.66"/><polygon class="cls-1" points="513.65 618.32 496.63 608.49 496.63 628.15 513.65 618.32"/><polygon class="cls-1" points="484.74 648.74 474.71 654.53 484.74 660.32 484.74 648.74"/><polygon class="cls-1" points="475.58 672.64 468.62 668.62 468.62 676.65 475.58 672.64"/><polygon class="cls-1" points="450.79 707.54 448.53 708.85 450.79 710.16 450.79 707.54"/><polygon class="cls-1" points="439.96 726.96 439.39 726.63 439.39 727.29 439.96 726.96"/><polygon class="cls-1" points="42.43 400.88 42.15 401.04 42.43 401.2 42.43 400.88"/><polygon class="cls-1" points="64.29 364.83 62.72 363.93 62.72 365.74 64.29 364.83"/><polygon class="cls-1" points="74.53 345.27 72.03 346.72 74.53 348.17 74.53 345.27"/><polygon class="cls-1" points="106.7 289.57 101.79 292.4 106.7 295.24 106.7 289.57"/><polygon class="cls-1" points="129.78 292.4 124.06 289.11 124.06 295.7 129.78 292.4"/><polygon class="cls-1" points="170.26 288.1 162.82 292.4 170.26 296.71 170.26 288.1"/><polygon class="cls-1" points="194.09 292.4 185.99 287.73 185.99 297.08 194.09 292.4"/><polygon class="cls-1" points="233.54 287.14 224.43 292.4 233.54 297.67 233.54 287.14"/><polygon class="cls-1" points="257.59 292.4 248.32 287.06 248.32 297.75 257.59 292.4"/><polygon class="cls-1" points="296.27 287.13 287.14 292.4 296.27 297.67 296.27 287.13"/><polygon class="cls-1" points="320.01 292.4 311.2 287.32 311.2 297.49 320.01 292.4"/><polygon class="cls-1" points="358.69 287.67 350.48 292.4 358.69 297.14 358.69 287.67"/><polygon class="cls-1" points="382.02 292.4 374.28 287.94 374.28 296.88 382.02 292.4"/><polygon class="cls-1" points="414.29 310.51 405.18 305.25 405.18 315.77 414.29 310.51"/><polygon class="cls-1" points="422.25 322.43 411.52 328.62 422.25 334.81 422.25 322.43"/><polygon class="cls-1" points="448.82 364.83 434.95 356.82 434.95 372.84 448.82 364.83"/><polygon class="cls-1" points="455.07 374.2 439.95 382.94 455.07 391.67 455.07 374.2"/><polygon class="cls-1" points="482.69 419.15 465.06 408.98 465.06 429.32 482.69 419.15"/><polygon class="cls-1" points="487.76 426.23 468.67 437.26 487.76 448.28 487.76 426.23"/><polygon class="cls-1" points="517 473.47 494.95 460.74 494.95 486.2 517 473.47"/><polygon class="cls-1" points="520.53 478.12 497.21 491.57 520.53 505.03 520.53 478.12"/><polygon class="cls-1" points="549.84 527.79 525.58 513.78 525.58 541.8 549.84 527.79"/><polygon class="cls-1" points="552.26 531.78 527.82 545.89 552.26 560.01 552.26 531.78"/><polygon class="cls-1" points="551.8 568.79 528.75 582.11 551.8 595.42 551.8 568.79"/><polygon class="cls-1" points="547.79 600.21 526.6 587.98 526.6 612.45 547.79 600.21"/><polygon class="cls-1" points="517.9 627.52 502.46 636.43 517.9 645.34 517.9 627.52"/><polygon class="cls-1" points="510.38 654.53 498.26 647.54 498.26 661.53 510.38 654.53"/><polygon class="cls-1" points="483.51 687.07 477.15 690.75 483.51 694.42 483.51 687.07"/><polygon class="cls-1" points="473.44 708.85 469.69 706.69 469.69 711.01 473.44 708.85"/><polygon class="cls-1" points="450.03 745.06 450.03 745.06 450.03 745.07 450.03 745.06"/><polygon class="cls-1" points="32.22 382.94 31.71 382.64 31.71 383.23 32.22 382.94"/><polygon class="cls-1" points="42.68 364.24 41.66 364.83 42.68 365.42 42.68 364.24"/><polygon class="cls-1" points="64.95 328.62 62.39 327.14 62.39 330.09 64.95 328.62"/><polygon class="cls-1" points="74.83 308.56 71.45 310.51 74.83 312.46 74.83 308.56"/><polygon class="cls-1" points="74.91 272.2 71.28 274.3 74.91 276.39 74.91 272.2"/><polygon class="cls-1" points="97.49 274.3 93.16 271.8 93.16 276.79 97.49 274.3"/><polygon class="cls-1" points="138.33 271 132.61 274.3 138.33 277.6 138.33 271"/><polygon class="cls-1" points="161.58 274.3 155.21 270.62 155.21 277.98 161.58 274.3"/><polygon class="cls-1" points="201.59 270.06 194.25 274.3 201.59 278.53 201.59 270.06"/><polygon class="cls-1" points="225.11 274.3 217.52 269.91 217.52 278.68 225.11 274.3"/><polygon class="cls-1" points="264.42 269.88 256.76 274.3 264.42 278.72 264.42 269.88"/><polygon class="cls-1" points="287.78 274.3 280.27 269.96 280.27 278.63 287.78 274.3"/><polygon class="cls-1" points="326.92 270.25 319.92 274.3 326.92 278.35 326.92 270.25"/><polygon class="cls-1" points="349.95 274.3 343.27 270.44 343.27 278.15 349.95 274.3"/><polygon class="cls-1" points="389.34 270.78 383.24 274.3 389.34 277.82 389.34 270.78"/><polygon class="cls-1" points="412.3 274.3 406.18 270.77 406.18 277.83 412.3 274.3"/><polygon class="cls-1" points="421.19 288.05 413.64 292.4 421.19 296.76 421.19 288.05"/><polygon class="cls-1" points="446.63 328.62 436.05 322.51 436.05 334.72 446.63 328.62"/><polygon class="cls-1" points="454.09 339.71 441.93 346.72 454.09 353.74 454.09 339.71"/><polygon class="cls-1" points="481.12 382.94 465.85 374.12 465.85 391.75 481.12 382.94"/><polygon class="cls-1" points="486.87 391.55 470.44 401.04 486.87 410.53 486.87 391.55"/><polygon class="cls-1" points="515.22 437.26 495.85 426.07 495.85 448.44 515.22 437.26"/><polygon class="cls-1" points="519.71 443.31 498.84 455.36 519.71 467.41 519.71 443.31"/><polygon class="cls-1" points="549.37 491.57 525.81 477.97 525.81 505.18 549.37 491.57"/><polygon class="cls-1" points="552.22 495.64 527.9 509.68 552.22 523.72 552.22 495.64"/><polygon class="cls-1" points="581.32 545.89 556.87 531.78 556.87 560.01 581.32 545.89"/><polygon class="cls-1" points="583.47 550.16 559.5 564 583.47 577.84 583.47 550.16"/><polygon class="cls-1" points="580.53 582.11 557.27 568.68 557.27 595.54 580.53 582.11"/><polygon class="cls-1" points="550.58 607.13 531.19 618.32 550.58 629.51 550.58 607.13"/><polygon class="cls-1" points="544.68 636.43 528.15 626.89 528.15 645.97 544.68 636.43"/><polygon class="cls-1" points="516.27 666.56 505.73 672.64 516.27 678.72 516.27 666.56"/><polygon class="cls-1" points="507.64 690.75 499.63 686.12 499.63 695.37 507.64 690.75"/><polygon class="cls-1" points="482.3 725.38 479.57 726.96 482.3 728.53 482.3 725.38"/><polygon class="cls-1" points="471.52 745.06 470.65 744.56 470.65 745.57 471.52 745.06"/><polygon class="cls-1" points="0.53 401.04 0.52 401.04 0.52 401.05 0.53 401.04"/><polygon class="cls-1" points="11.07 382.77 10.79 382.94 11.07 383.1 11.07 382.77"/><polygon class="cls-1" points="32.73 346.72 31.46 345.99 31.46 347.45 32.73 346.72"/><polygon class="cls-1" points="42.97 327.53 41.09 328.62 42.97 329.7 42.97 327.53"/><polygon class="cls-1" points="65.34 292.4 62.2 290.59 62.2 294.22 65.34 292.4"/><polygon class="cls-1" points="65.39 256.19 62.17 254.34 62.17 258.05 65.39 256.19"/><polygon class="cls-1" points="106.5 253.7 102.18 256.19 106.5 258.69 106.5 253.7"/><polygon class="cls-1" points="129.16 256.19 124.37 253.43 124.37 258.96 129.16 256.19"/><polygon class="cls-1" points="169.7 252.87 163.94 256.19 169.7 259.52 169.7 252.87"/><polygon class="cls-1" points="192.74 256.19 186.67 252.69 186.67 259.7 192.74 256.19"/><polygon class="cls-1" points="232.65 252.48 226.22 256.19 232.65 259.9 232.65 252.48"/><polygon class="cls-1" points="255.62 256.19 249.31 252.54 249.31 259.84 255.62 256.19"/><polygon class="cls-1" points="295.25 252.68 289.17 256.19 295.25 259.7 295.25 252.68"/><polygon class="cls-1" points="318 256.19 312.2 252.84 312.2 259.54 318 256.19"/><polygon class="cls-1" points="357.71 253.14 352.43 256.19 357.71 259.24 357.71 253.14"/><polygon class="cls-1" points="380.16 256.19 375.21 253.34 375.21 259.05 380.16 256.19"/><polygon class="cls-1" points="420.37 253.25 415.28 256.19 420.37 259.13 420.37 253.25"/><polygon class="cls-1" points="444.59 292.4 437.07 288.06 437.07 296.74 444.59 292.4"/><polygon class="cls-1" points="453.04 305.3 444.01 310.51 453.04 315.72 453.04 305.3"/><polygon class="cls-1" points="478.96 346.72 466.93 339.78 466.93 353.67 478.96 346.72"/><polygon class="cls-1" points="485.97 356.91 472.25 364.83 485.97 372.75 485.97 356.91"/><polygon class="cls-1" points="513.11 401.04 496.9 391.68 496.9 410.4 513.11 401.04"/><polygon class="cls-1" points="518.56 409.09 501.14 419.15 518.56 429.21 518.56 409.09"/><polygon class="cls-1" points="547.44 455.36 526.77 443.43 526.77 467.3 547.44 455.36"/><polygon class="cls-1" points="551.51 460.66 529.33 473.47 551.51 486.27 551.51 460.66"/><polygon class="cls-1" points="581.12 509.68 556.98 495.74 556.98 523.62 581.12 509.68"/><polygon class="cls-1" points="583.54 513.81 559.34 527.79 583.54 541.76 583.54 513.81"/><polygon class="cls-1" points="611.94 564 588.61 550.53 588.61 577.47 611.94 564"/><polygon class="cls-1" points="582.62 587.85 561.2 600.21 582.62 612.58 582.62 587.85"/><polygon class="cls-1" points="578 618.32 558.54 607.08 558.54 629.55 578 618.32"/><polygon class="cls-1" points="548.75 646.52 534.86 654.53 548.75 662.55 548.75 646.52"/><polygon class="cls-1" points="541.25 672.64 529.87 666.06 529.87 679.21 541.25 672.64"/><polygon class="cls-1" points="514.91 705.12 508.45 708.85 514.91 712.58 514.91 705.12"/><polygon class="cls-1" points="504.87 726.96 501.01 724.73 501.01 729.19 504.87 726.96"/><polygon class="cls-1" points="481.45 763.07 481.27 763.17 481.45 763.28 481.45 763.07"/><polygon class="cls-1" points="0.86 364.83 0.35 364.54 0.35 365.13 0.86 364.83"/><polygon class="cls-1" points="11.27 346.22 10.4 346.72 11.27 347.23 11.27 346.22"/><polygon class="cls-1" points="33.18 310.51 31.23 309.39 31.23 311.63 33.18 310.51"/><polygon class="cls-1" points="43.14 291.01 40.73 292.4 43.14 293.8 43.14 291.01"/><polygon class="cls-1" points="74.8 236.17 71.49 238.09 74.8 239.99 74.8 236.17"/><polygon class="cls-1" points="97.06 238.09 93.38 235.96 93.38 240.21 97.06 238.09"/><polygon class="cls-1" points="137.86 235.6 133.55 238.09 137.86 240.57 137.86 235.6"/><polygon class="cls-1" points="160.42 238.09 155.79 235.41 155.79 240.76 160.42 238.09"/><polygon class="cls-1" points="200.82 235.18 195.78 238.09 200.82 240.99 200.82 235.18"/><polygon class="cls-1" points="223.44 238.09 218.35 235.15 218.35 241.02 223.44 238.09"/><polygon class="cls-1" points="263.54 235.19 258.52 238.09 263.54 240.98 263.54 235.19"/><polygon class="cls-1" points="286.01 238.09 281.15 235.28 281.15 240.89 286.01 238.09"/><polygon class="cls-1" points="326.1 235.47 321.57 238.09 326.1 240.7 326.1 235.47"/><polygon class="cls-1" points="348.3 238.09 344.1 235.66 344.1 240.51 348.3 238.09"/><polygon class="cls-1" points="388.61 235.83 384.71 238.09 388.61 240.33 388.61 235.83"/><polygon class="cls-1" points="410.86 238.09 406.89 235.8 406.89 240.38 410.86 238.09"/><polygon class="cls-1" points="443.12 256.19 437.81 253.12 437.81 259.26 443.12 256.19"/><polygon class="cls-1" points="452.14 270.65 445.82 274.3 452.14 277.95 452.14 270.65"/><polygon class="cls-1" points="476.92 310.51 467.95 305.33 467.95 315.69 476.92 310.51"/><polygon class="cls-1" points="484.82 322.68 474.54 328.62 484.82 334.55 484.82 322.68"/><polygon class="cls-1" points="511.13 364.83 497.88 357.18 497.88 372.48 511.13 364.83"/><polygon class="cls-1" points="517.57 374.59 503.12 382.94 517.57 391.28 517.57 374.59"/><polygon class="cls-1" points="544.91 419.15 528.04 409.4 528.04 428.89 544.91 419.15"/><polygon class="cls-1" points="550.3 426.55 531.75 437.26 550.3 447.96 550.3 426.55"/><polygon class="cls-1" points="579.51 473.47 557.78 460.92 557.78 486.01 579.51 473.47"/><polygon class="cls-1" points="583.12 478.33 560.18 491.57 583.12 504.82 583.12 478.33"/><polygon class="cls-1" points="612.03 527.79 588.56 514.24 588.56 541.34 612.03 527.79"/><polygon class="cls-1" points="614.62 532.42 591.28 545.89 614.62 559.37 614.62 532.42"/><polygon class="cls-1" points="614.11 569.51 592.29 582.11 614.11 594.71 614.11 569.51"/><polygon class="cls-1" points="610.23 600.21 589.46 588.22 589.46 612.21 610.23 600.21"/><polygon class="cls-1" points="581.06 626.76 564.31 636.43 581.06 646.09 581.06 626.76"/><polygon class="cls-1" points="574.39 654.53 560.34 646.42 560.34 662.65 574.39 654.53"/><polygon class="cls-1" points="547.23 685.34 537.88 690.75 547.23 696.14 547.23 685.34"/><polygon class="cls-1" points="538.24 708.85 531.38 704.89 531.38 712.81 538.24 708.85"/><polygon class="cls-1" points="513.56 743.67 511.14 745.06 513.56 746.46 513.56 743.67"/><polygon class="cls-1" points="502.88 763.17 502.01 762.67 502.01 763.67 502.88 763.17"/><polygon class="cls-1" points="1.2 328.62 0.18 328.03 0.18 329.2 1.2 328.62"/><polygon class="cls-1" points="11.45 309.68 10.02 310.51 11.45 311.34 11.45 309.68"/><polygon class="cls-1" points="33.39 274.3 31.13 272.99 31.13 275.6 33.39 274.3"/><polygon class="cls-1" points="43.2 254.71 40.62 256.19 43.2 257.68 43.2 254.71"/><polygon class="cls-1" points="43.09 218.67 40.83 219.98 43.09 221.28 43.09 218.67"/><polygon class="cls-1" points="65.07 219.98 62.34 218.4 62.34 221.56 65.07 219.98"/><polygon class="cls-1" points="106.12 218.13 102.93 219.98 106.12 221.82 106.12 218.13"/><polygon class="cls-1" points="128.21 219.98 124.85 218.04 124.85 221.91 128.21 219.98"/><polygon class="cls-1" points="169 217.87 165.34 219.98 169 222.09 169 217.87"/><polygon class="cls-1" points="191.22 219.98 187.42 217.78 187.42 222.17 191.22 219.98"/><polygon class="cls-1" points="231.77 217.78 227.97 219.98 231.77 222.17 231.77 217.78"/><polygon class="cls-1" points="253.94 219.98 250.15 217.79 250.15 222.16 253.94 219.98"/><polygon class="cls-1" points="294.43 217.89 290.81 219.98 294.43 222.07 294.43 217.89"/><polygon class="cls-1" points="316.5 219.98 312.95 217.93 312.95 222.03 316.5 219.98"/><polygon class="cls-1" points="357 218.16 353.84 219.98 357 221.8 357 218.16"/><polygon class="cls-1" points="378.86 219.98 375.86 218.25 375.86 221.71 378.86 219.98"/><polygon class="cls-1" points="419.78 218.05 416.45 219.98 419.78 221.91 419.78 218.05"/><polygon class="cls-1" points="442.05 219.98 438.34 217.84 438.34 222.12 442.05 219.98"/><polygon class="cls-1" points="451.6 235.38 446.91 238.09 451.6 240.79 451.6 235.38"/><polygon class="cls-1" points="475.3 274.3 468.76 270.52 468.76 278.07 475.3 274.3"/><polygon class="cls-1" points="483.93 288.01 476.32 292.4 483.93 296.8 483.93 288.01"/><polygon class="cls-1" points="508.91 328.62 499 322.9 499 334.34 508.91 328.62"/><polygon class="cls-1" points="516.46 340.32 505.36 346.72 516.46 353.13 516.46 340.32"/><polygon class="cls-1" points="542.84 382.94 529.08 374.99 529.08 390.88 542.84 382.94"/><polygon class="cls-1" points="549.06 392.48 534.24 401.04 549.06 409.6 549.06 392.48"/><polygon class="cls-1" points="576.93 437.26 559.07 426.95 559.07 447.56 576.93 437.26"/><polygon class="cls-1" points="581.99 444.09 562.46 455.36 581.99 466.63 581.99 444.09"/><polygon class="cls-1" points="611.18 491.57 588.99 478.77 588.99 504.38 611.18 491.57"/><polygon class="cls-1" points="614.43 496.53 591.65 509.68 614.43 522.83 614.43 496.53"/><polygon class="cls-1" points="642.65 545.89 620.29 532.99 620.29 558.8 642.65 545.89"/><polygon class="cls-1" points="645.36 551.6 623.88 564 645.36 576.4 645.36 551.6"/><polygon class="cls-1" points="641.56 582.11 620.84 570.14 620.84 594.07 641.56 582.11"/><polygon class="cls-1" points="612.85 607.9 594.81 618.32 612.85 628.74 612.85 607.9"/><polygon class="cls-1" points="607.09 636.43 591.03 627.16 591.03 645.7 607.09 636.43"/><polygon class="cls-1" points="579.29 666.03 567.85 672.64 579.29 679.24 579.29 666.03"/><polygon class="cls-1" points="571.19 690.75 561.94 685.4 561.94 696.09 571.19 690.75"/><polygon class="cls-1" points="545.63 724.33 541.08 726.96 545.63 729.59 545.63 724.33"/><polygon class="cls-1" points="535.48 745.06 532.76 743.5 532.76 746.63 535.48 745.06"/><polygon class="cls-1" points="512.76 781.27 512.75 781.27 512.76 781.28 512.76 781.27"/><polygon class="cls-1" points="1.47 292.4 0.05 291.59 0.05 293.22 1.47 292.4"/><polygon class="cls-1" points="11.56 273.29 9.81 274.3 11.56 275.3 11.56 273.29"/><polygon class="cls-1" points="33.39 238.09 31.13 236.78 31.13 239.39 33.39 238.09"/><polygon class="cls-1" points="33.08 201.87 31.29 200.84 31.29 202.91 33.08 201.87"/><polygon class="cls-1" points="74.45 200.57 72.19 201.87 74.45 203.18 74.45 200.57"/><polygon class="cls-1" points="96.2 201.87 93.81 200.49 93.81 203.25 96.2 201.87"/><polygon class="cls-1" points="137.22 200.49 134.82 201.87 137.22 203.25 137.22 200.49"/><polygon class="cls-1" points="158.99 201.87 156.5 200.44 156.5 203.31 158.99 201.87"/><polygon class="cls-1" points="199.99 200.41 197.45 201.87 199.99 203.34 199.99 200.41"/><polygon class="cls-1" points="221.73 201.87 219.21 200.42 219.21 203.33 221.73 201.87"/><polygon class="cls-1" points="262.71 200.42 260.18 201.87 262.71 203.33 262.71 200.42"/><polygon class="cls-1" points="284.35 201.87 281.99 200.51 281.99 203.24 284.35 201.87"/><polygon class="cls-1" points="325.38 200.51 323.01 201.87 325.38 203.24 325.38 200.51"/><polygon class="cls-1" points="346.97 201.87 344.76 200.6 344.76 203.14 346.97 201.87"/><polygon class="cls-1" points="388.05 200.6 385.84 201.87 388.05 203.14 388.05 200.6"/><polygon class="cls-1" points="409.84 201.87 407.41 200.47 407.41 203.27 409.84 201.87"/><polygon class="cls-1" points="451.13 199.97 447.84 201.87 451.13 203.77 451.13 199.97"/><polygon class="cls-1" points="474.21 238.09 469.31 235.25 469.31 240.92 474.21 238.09"/><polygon class="cls-1" points="483.35 252.8 477.48 256.19 483.35 259.59 483.35 252.8"/><polygon class="cls-1" points="507.29 292.4 499.81 288.08 499.81 296.73 507.29 292.4"/><polygon class="cls-1" points="515.55 305.66 507.16 310.51 515.55 315.36 515.55 305.66"/><polygon class="cls-1" points="540.58 346.72 530.21 340.74 530.21 352.71 540.58 346.72"/><polygon class="cls-1" points="547.99 358.11 536.36 364.83 547.99 371.55 547.99 358.11"/><polygon class="cls-1" points="574.23 401.04 560.42 393.07 560.42 409.02 574.23 401.04"/><polygon class="cls-1" points="580.54 410.38 565.35 419.15 580.54 427.92 580.54 410.38"/><polygon class="cls-1" points="608.8 455.36 590.18 444.61 590.18 466.11 608.8 455.36"/><polygon class="cls-1" points="613.56 461.82 593.39 473.47 613.56 485.12 613.56 461.82"/><polygon class="cls-1" points="642.36 509.68 620.44 497.02 620.44 522.34 642.36 509.68"/><polygon class="cls-1" points="645.52 515.11 623.56 527.79 645.52 540.46 645.52 515.11"/><polygon class="cls-1" points="672.7 564 652.31 552.23 652.31 575.77 672.7 564"/><polygon class="cls-1" points="644.26 589.72 626.09 600.21 644.26 610.71 644.26 589.72"/><polygon class="cls-1" points="638.76 618.32 622.24 608.78 622.24 627.86 638.76 618.32"/><polygon class="cls-1" points="611.07 647.21 598.38 654.53 611.07 661.86 611.07 647.21"/><polygon class="cls-1" points="603.67 672.64 592.74 666.33 592.74 678.95 603.67 672.64"/><polygon class="cls-1" points="577.76 704.9 570.92 708.85 577.76 712.8 577.76 704.9"/><polygon class="cls-1" points="568.03 726.96 563.52 724.36 563.52 729.56 568.03 726.96"/><polygon class="cls-1" points="544.51 762.5 543.34 763.17 544.51 763.85 544.51 762.5"/><polygon class="cls-1" points="533.67 781.27 533.66 781.27 533.66 781.28 533.67 781.27"/><polygon class="cls-1" points="1.57 256.19 0 255.29 0 257.1 1.57 256.19"/><polygon class="cls-1" points="11.57 237.05 9.78 238.09 11.57 239.12 11.57 237.05"/><polygon class="cls-1" points="42.83 182.91 41.35 183.77 42.83 184.62 42.83 182.91"/><polygon class="cls-1" points="64.33 183.77 62.7 182.82 62.7 184.71 64.33 183.77"/><polygon class="cls-1" points="105.6 182.82 103.97 183.77 105.6 184.71 105.6 182.82"/><polygon class="cls-1" points="127.05 183.77 125.43 182.83 125.43 184.7 127.05 183.77"/><polygon class="cls-1" points="168.27 182.92 166.81 183.77 168.27 184.61 168.27 182.92"/><polygon class="cls-1" points="189.66 183.77 188.2 182.92 188.2 184.61 189.66 183.77"/><polygon class="cls-1" points="230.99 182.93 229.54 183.77 230.99 184.6 230.99 182.93"/><polygon class="cls-1" points="252.37 183.77 250.93 182.93 250.93 184.6 252.37 183.77"/><polygon class="cls-1" points="293.75 182.85 292.17 183.77 293.75 184.68 293.75 182.85"/><polygon class="cls-1" points="315.2 183.77 313.6 182.84 313.6 184.69 315.2 183.77"/><polygon class="cls-1" points="356.48 182.84 354.88 183.77 356.48 184.69 356.48 182.84"/><polygon class="cls-1" points="377.95 183.77 376.31 182.82 376.31 184.71 377.95 183.77"/><polygon class="cls-1" points="419.43 182.46 417.16 183.77 419.43 185.07 419.43 182.46"/><polygon class="cls-1" points="441.41 183.77 438.66 182.18 438.66 185.35 441.41 183.77"/><polygon class="cls-1" points="473.44 201.87 469.69 199.71 469.69 204.04 473.44 201.87"/><polygon class="cls-1" points="482.87 217.43 478.45 219.98 482.87 222.53 482.87 217.43"/><polygon class="cls-1" points="506.3 256.19 500.3 252.73 500.3 259.65 506.3 256.19"/><polygon class="cls-1" points="514.98 270.44 508.31 274.3 514.98 278.15 514.98 270.44"/><polygon class="cls-1" points="538.91 310.51 531.04 305.97 531.04 315.05 538.91 310.51"/><polygon class="cls-1" points="546.94 323.72 538.46 328.62 546.94 333.51 546.94 323.72"/><polygon class="cls-1" points="572.03 364.83 561.52 358.76 561.52 370.9 572.03 364.83"/><polygon class="cls-1" points="579.35 376.24 567.74 382.94 579.35 389.64 579.35 376.24"/><polygon class="cls-1" points="605.69 419.15 591.73 411.09 591.73 427.21 605.69 419.15"/><polygon class="cls-1" points="612.1 428.14 596.32 437.26 612.1 446.37 612.1 428.14"/><polygon class="cls-1" points="640.56 473.47 621.34 462.37 621.34 484.56 640.56 473.47"/><polygon class="cls-1" points="645.03 479.74 624.54 491.57 645.03 503.41 645.03 479.74"/><polygon class="cls-1" points="673.18 527.79 652.07 515.6 652.07 539.98 673.18 527.79"/><polygon class="cls-1" points="676.42 534.01 655.84 545.89 676.42 557.78 676.42 534.01"/><polygon class="cls-1" points="675.61 571.63 657.47 582.11 675.61 592.58 675.61 571.63"/><polygon class="cls-1" points="670.19 600.21 653.56 590.61 653.56 609.81 670.19 600.21"/><polygon class="cls-1" points="642.63 628.75 629.34 636.43 642.63 644.1 642.63 628.75"/><polygon class="cls-1" points="635.29 654.53 623.97 648 623.97 661.07 635.29 654.53"/><polygon class="cls-1" points="609.53 686.08 601.45 690.75 609.53 695.41 609.53 686.08"/><polygon class="cls-1" points="600.55 708.85 594.3 705.25 594.3 712.46 600.55 708.85"/><polygon class="cls-1" points="576.33 743.59 573.77 745.06 576.33 746.54 576.33 743.59"/><polygon class="cls-1" points="565.73 763.17 564.67 762.56 564.67 763.78 565.73 763.17"/><polygon class="cls-1" points="1.51 219.98 0.03 219.13 0.03 220.83 1.51 219.98"/><polygon class="cls-1" points="11.45 201.06 10.03 201.87 11.45 202.69 11.45 201.06"/><polygon class="cls-1" points="11.21 165.24 10.5 165.66 11.21 166.07 11.21 165.24"/><polygon class="cls-1" points="32.46 165.66 31.59 165.16 31.59 166.16 32.46 165.66"/><polygon class="cls-1" points="74.07 165.02 72.96 165.66 74.07 166.3 74.07 165.02"/><polygon class="cls-1" points="95.29 165.66 94.27 165.07 94.27 166.25 95.29 165.66"/><polygon class="cls-1" points="136.66 165.24 135.94 165.66 136.66 166.07 136.66 165.24"/><polygon class="cls-1" points="157.8 165.66 157.1 165.26 157.1 166.06 157.8 165.66"/><polygon class="cls-1" points="199.37 165.26 198.69 165.66 199.37 166.06 199.37 165.26"/><polygon class="cls-1" points="220.51 165.66 219.82 165.26 219.82 166.06 220.51 165.66"/><polygon class="cls-1" points="262.14 165.18 261.31 165.66 262.14 166.14 262.14 165.18"/><polygon class="cls-1" points="283.43 165.66 282.45 165.09 282.45 166.23 283.43 165.66"/><polygon class="cls-1" points="324.98 164.98 323.8 165.66 324.98 166.34 324.98 164.98"/><polygon class="cls-1" points="346.36 165.66 345.06 164.91 345.06 166.41 346.36 165.66"/><polygon class="cls-1" points="387.84 164.74 386.25 165.66 387.84 166.58 387.84 164.74"/><polygon class="cls-1" points="409.52 165.66 407.57 164.53 407.57 166.79 409.52 165.66"/><polygon class="cls-1" points="450.96 164.05 448.17 165.66 450.96 167.27 450.96 164.05"/><polygon class="cls-1" points="473.12 165.66 469.85 163.77 469.85 167.55 473.12 165.66"/><polygon class="cls-1" points="482.63 181.63 478.92 183.77 482.63 185.91 482.63 181.63"/><polygon class="cls-1" points="505.56 219.98 500.67 217.16 500.67 222.8 505.56 219.98"/><polygon class="cls-1" points="514.59 234.91 509.09 238.09 514.59 241.26 514.59 234.91"/><polygon class="cls-1" points="538.03 274.3 531.48 270.51 531.48 278.08 538.03 274.3"/><polygon class="cls-1" points="546.35 288.54 539.65 292.4 546.35 296.27 546.35 288.54"/><polygon class="cls-1" points="569.99 328.62 562.54 324.31 562.54 332.92 569.99 328.62"/><polygon class="cls-1" points="578.23 341.97 569.98 346.72 578.23 351.48 578.23 341.97"/><polygon class="cls-1" points="603.27 382.94 592.94 376.97 592.94 388.9 603.27 382.94"/><polygon class="cls-1" points="610.61 394.51 599.3 401.04 610.61 407.57 610.61 394.51"/><polygon class="cls-1" points="637.59 437.26 622.83 428.73 622.83 445.78 637.59 437.26"/><polygon class="cls-1" points="643.75 445.74 627.09 455.36 643.75 464.98 643.75 445.74"/><polygon class="cls-1" points="672.3 491.57 652.51 480.15 652.51 503 672.3 491.57"/><polygon class="cls-1" points="676.39 497.85 655.9 509.68 676.39 521.51 676.39 497.85"/><polygon class="cls-1" points="703.81 545.89 683.8 534.34 683.8 557.45 703.81 545.89"/><polygon class="cls-1" points="707.23 553.08 688.32 564 707.23 574.92 707.23 553.08"/><polygon class="cls-1" points="701.98 582.11 684.71 572.14 684.71 592.08 701.98 582.11"/><polygon class="cls-1" points="674.02 610.6 660.65 618.32 674.02 626.04 674.02 610.6"/><polygon class="cls-1" points="666.85 636.43 655.24 629.73 655.24 643.13 666.85 636.43"/><polygon class="cls-1" points="641 667.78 632.59 672.64 641 677.49 641 667.78"/><polygon class="cls-1" points="632.35 690.75 625.44 686.76 625.44 694.73 632.35 690.75"/><polygon class="cls-1" points="608.03 724.89 604.45 726.96 608.03 729.03 608.03 724.89"/><polygon class="cls-1" points="597.89 745.06 595.63 743.76 595.63 746.37 597.89 745.06"/><polygon class="cls-1" points="575.48 781.27 575.47 781.27 575.48 781.28 575.48 781.27"/><polygon class="cls-1" points="1.16 183.77 0.2 183.22 0.2 184.32 1.16 183.77"/><polygon class="cls-1" points="0.62 147.55 0.48 147.47 0.48 147.63 0.62 147.55"/><polygon class="cls-1" points="42.52 147.23 41.97 147.55 42.52 147.87 42.52 147.23"/><polygon class="cls-1" points="63.63 147.55 63.05 147.22 63.05 147.88 63.63 147.55"/><polygon class="cls-1" points="105.2 147.32 104.79 147.55 105.2 147.79 105.2 147.32"/><polygon class="cls-1" points="126.14 147.55 125.88 147.4 125.88 147.71 126.14 147.55"/><polygon class="cls-1" points="167.82 147.48 167.7 147.55 167.82 147.63 167.82 147.48"/><polygon class="cls-1" points="188.77 147.55 188.65 147.48 188.65 147.63 188.77 147.55"/><polygon class="cls-1" points="230.6 147.38 230.3 147.55 230.6 147.73 230.6 147.38"/><polygon class="cls-1" points="251.7 147.55 251.27 147.3 251.27 147.8 251.7 147.55"/><polygon class="cls-1" points="293.47 147.12 292.73 147.55 293.47 147.98 293.47 147.12"/><polygon class="cls-1" points="314.79 147.55 313.81 146.98 313.81 148.12 314.79 147.55"/><polygon class="cls-1" points="356.38 146.81 355.09 147.55 356.38 148.3 356.38 146.81"/><polygon class="cls-1" points="377.85 147.55 376.36 146.69 376.36 148.41 377.85 147.55"/><polygon class="cls-1" points="419.38 146.34 417.26 147.55 419.38 148.77 419.38 146.34"/><polygon class="cls-1" points="441.3 147.55 438.71 146.06 438.71 149.05 441.3 147.55"/><polygon class="cls-1" points="482.52 145.61 479.15 147.55 482.52 149.5 482.52 145.61"/><polygon class="cls-1" points="505.02 183.77 500.94 181.41 500.94 186.12 505.02 183.77"/><polygon class="cls-1" points="514.28 199.24 509.71 201.87 514.28 204.51 514.28 199.24"/><polygon class="cls-1" points="537.44 238.09 531.77 234.81 531.77 241.35 537.44 238.09"/><polygon class="cls-1" points="546.11 252.73 540.12 256.19 546.11 259.65 546.11 252.73"/><polygon class="cls-1" points="568.95 292.4 563.06 289 563.06 295.8 568.95 292.4"/><polygon class="cls-1" points="577.48 307.04 571.47 310.51 577.48 313.98 577.48 307.04"/><polygon class="cls-1" points="601.03 346.72 594.06 342.7 594.06 350.75 601.03 346.72"/><polygon class="cls-1" points="609.47 360.27 601.57 364.83 609.47 369.39 609.47 360.27"/><polygon class="cls-1" points="634.44 401.04 624.4 395.25 624.4 406.84 634.44 401.04"/><polygon class="cls-1" points="642.07 412.44 630.46 419.15 642.07 425.85 642.07 412.44"/><polygon class="cls-1" points="669.72 455.36 653.8 446.17 653.8 464.56 669.72 455.36"/><polygon class="cls-1" points="675.48 463.22 657.72 473.47 675.48 483.72 675.48 463.22"/><polygon class="cls-1" points="703.83 509.68 683.79 498.11 683.79 521.25 703.83 509.68"/><polygon class="cls-1" points="707.62 516.19 687.53 527.79 707.62 539.38 707.62 516.19"/><polygon class="cls-1" points="734.29 564 715.6 553.21 715.6 574.79 734.29 564"/><polygon class="cls-1" points="705.76 591.83 691.24 600.21 705.76 608.6 705.76 591.83"/><polygon class="cls-1" points="698.6 618.32 686.4 611.28 686.4 625.36 698.6 618.32"/><polygon class="cls-1" points="672.33 649.74 664.03 654.53 672.33 659.32 672.33 649.74"/><polygon class="cls-1" points="663.71 672.64 656.8 668.65 656.8 676.63 663.71 672.64"/><polygon class="cls-1" points="639.61 706.41 635.38 708.85 639.61 711.29 639.61 706.41"/><polygon class="cls-1" points="629.6 726.96 626.82 725.35 626.82 728.56 629.6 726.96"/><polygon class="cls-1" points="607.08 762.75 606.36 763.17 607.08 763.58 607.08 762.75"/><polygon class="cls-1" points="31.89 129.44 31.88 129.44 31.88 129.45 31.89 129.44"/><polygon class="cls-1" points="73.74 129.38 73.62 129.44 73.74 129.52 73.74 129.38"/><polygon class="cls-1" points="261.96 129.28 261.67 129.44 261.96 129.62 261.96 129.28"/><polygon class="cls-1" points="283.13 129.44 282.59 129.14 282.59 129.76 283.13 129.44"/><polygon class="cls-1" points="324.92 128.88 323.93 129.44 324.92 130.02 324.92 128.88"/><polygon class="cls-1" points="346.28 129.44 345.1 128.76 345.1 130.13 346.28 129.44"/><polygon class="cls-1" points="387.86 128.51 386.23 129.44 387.86 130.38 387.86 128.51"/><polygon class="cls-1" points="409.52 129.44 407.57 128.32 407.57 130.58 409.52 129.44"/><polygon class="cls-1" points="450.91 127.93 448.28 129.44 450.91 130.97 450.91 127.93"/><polygon class="cls-1" points="472.91 129.44 469.96 127.74 469.96 131.15 472.91 129.44"/><polygon class="cls-1" points="504.81 147.55 501.05 145.38 501.05 149.72 504.81 147.55"/><polygon class="cls-1" points="514.11 163.3 510.04 165.66 514.11 168.01 514.11 163.3"/><polygon class="cls-1" points="536.92 201.87 532.03 199.05 532.03 204.7 536.92 201.87"/><polygon class="cls-1" points="545.88 216.93 540.59 219.98 545.88 223.03 545.88 216.93"/><polygon class="cls-1" points="568.6 256.19 563.24 253.1 563.24 259.28 568.6 256.19"/><polygon class="cls-1" points="577.2 271.32 572.03 274.3 577.2 277.28 577.2 271.32"/><polygon class="cls-1" points="599.63 310.51 594.76 307.69 594.76 313.32 599.63 310.51"/><polygon class="cls-1" points="608.51 325.73 603.5 328.62 608.51 331.51 608.51 325.73"/><polygon class="cls-1" points="632.1 364.83 625.57 361.06 625.57 368.6 632.1 364.83"/><polygon class="cls-1" points="640.75 378.52 633.1 382.94 640.75 387.35 640.75 378.52"/><polygon class="cls-1" points="666.15 419.15 655.59 413.05 655.59 425.25 666.15 419.15"/><polygon class="cls-1" points="673.87 429.79 660.94 437.26 673.87 444.73 673.87 429.79"/><polygon class="cls-1" points="701.99 473.47 684.7 463.49 684.7 483.45 701.99 473.47"/><polygon class="cls-1" points="707.18 480.73 688.4 491.57 707.18 502.42 707.18 480.73"/><polygon class="cls-1" points="735.15 527.79 715.17 516.25 715.17 539.32 735.15 527.79"/><polygon class="cls-1" points="738.88 534.46 719.08 545.89 738.88 557.33 738.88 534.46"/><polygon class="cls-1" points="737.78 572.58 721.29 582.11 737.78 591.63 737.78 572.58"/><polygon class="cls-1" points="731.13 600.21 717.18 592.16 717.18 608.27 731.13 600.21"/><polygon class="cls-1" points="704.02 631.05 694.72 636.43 704.02 641.8 704.02 631.05"/><polygon class="cls-1" points="695.3 654.53 688.06 650.35 688.06 658.71 695.3 654.53"/><polygon class="cls-1" points="671.02 688.21 666.63 690.75 671.02 693.28 671.02 688.21"/><polygon class="cls-1" points="661.17 708.85 658.07 707.06 658.07 710.64 661.17 708.85"/><polygon class="cls-1" points="638.54 744.48 637.52 745.06 638.54 745.65 638.54 744.48"/><polygon class="cls-1" points="627.93 763.17 627.65 763.01 627.65 763.33 627.93 763.17"/><polygon class="cls-1" points="251.48 111.34 251.38 111.28 251.38 111.4 251.48 111.34"/><polygon class="cls-1" points="293.4 111.03 292.87 111.34 293.4 111.65 293.4 111.03"/><polygon class="cls-1" points="314.62 111.34 313.89 110.92 313.89 111.76 314.62 111.34"/><polygon class="cls-1" points="356.34 110.66 355.16 111.34 356.34 112.02 356.34 110.66"/><polygon class="cls-1" points="377.78 111.34 376.4 110.54 376.4 112.14 377.78 111.34"/><polygon class="cls-1" points="419.32 110.21 417.37 111.34 419.32 112.47 419.32 110.21"/><polygon class="cls-1" points="441.12 111.34 438.81 110 438.81 112.68 441.12 111.34"/><polygon class="cls-1" points="482.36 109.66 479.46 111.34 482.36 113.02 482.36 109.66"/><polygon class="cls-1" points="504.38 111.34 501.26 109.54 501.26 113.14 504.38 111.34"/><polygon class="cls-1" points="513.95 127.37 510.36 129.44 513.95 131.52 513.95 127.37"/><polygon class="cls-1" points="536.6 165.66 532.2 163.12 532.2 168.2 536.6 165.66"/><polygon class="cls-1" points="545.69 181.04 540.96 183.77 545.69 186.5 545.69 181.04"/><polygon class="cls-1" points="568.33 219.98 563.37 217.12 563.37 222.84 568.33 219.98"/><polygon class="cls-1" points="577.08 235.3 572.27 238.09 577.08 240.86 577.08 235.3"/><polygon class="cls-1" points="599.14 274.3 595.01 271.91 595.01 276.69 599.14 274.3"/><polygon class="cls-1" points="608.1 290.22 604.32 292.4 608.1 294.59 608.1 290.22"/><polygon class="cls-1" points="630.31 328.62 626.47 326.4 626.47 330.84 630.31 328.62"/><polygon class="cls-1" points="639.65 344.21 635.3 346.72 639.65 349.23 639.65 344.21"/><polygon class="cls-1" points="663.4 382.94 656.96 379.22 656.96 386.65 663.4 382.94"/><polygon class="cls-1" points="672.17 396.52 664.34 401.04 672.17 405.57 672.17 396.52"/><polygon class="cls-1" points="698.68 437.26 686.36 430.14 686.36 444.37 698.68 437.26"/><polygon class="cls-1" points="705.88 446.79 691.02 455.36 705.88 463.94 705.88 446.79"/><polygon class="cls-1" points="734.25 491.57 715.62 480.82 715.62 502.33 734.25 491.57"/><polygon class="cls-1" points="738.89 498.24 719.07 509.68 738.89 521.13 738.89 498.24"/><polygon class="cls-1" points="766.71 545.89 746.43 534.19 746.43 557.6 766.71 545.89"/><polygon class="cls-1" points="770.08 552.86 750.78 564 770.08 575.14 770.08 552.86"/><polygon class="cls-1" points="764.39 582.11 747.59 572.41 747.59 591.8 764.39 582.11"/><polygon class="cls-1" points="735.97 611.93 724.9 618.32 735.97 624.71 735.97 611.93"/><polygon class="cls-1" points="727.6 636.43 718.95 631.43 718.95 641.42 727.6 636.43"/><polygon class="cls-1" points="702.55 669.82 697.67 672.64 702.55 675.46 702.55 669.82"/><polygon class="cls-1" points="692.75 690.75 689.33 688.77 689.33 692.72 692.75 690.75"/><polygon class="cls-1" points="669.91 726.34 668.85 726.96 669.91 727.57 669.91 726.34"/><polygon class="cls-1" points="659.39 745.06 658.97 744.82 658.97 745.31 659.39 745.06"/><polygon class="cls-1" points="261.92 93.15 261.77 93.23 261.92 93.32 261.92 93.15"/><polygon class="cls-1" points="282.97 93.23 282.68 93.07 282.68 93.4 282.97 93.23"/><polygon class="cls-1" points="324.83 92.81 324.1 93.23 324.83 93.66 324.83 92.81"/><polygon class="cls-1" points="346.18 93.23 345.15 92.64 345.15 93.83 346.18 93.23"/><polygon class="cls-1" points="387.81 92.37 386.32 93.23 387.81 94.09 387.81 92.37"/><polygon class="cls-1" points="409.41 93.23 407.62 92.2 407.62 94.26 409.41 93.23"/><polygon class="cls-1" points="450.79 91.92 448.52 93.23 450.79 94.55 450.79 91.92"/><polygon class="cls-1" points="472.65 93.23 470.08 91.75 470.08 94.72 472.65 93.23"/><polygon class="cls-1" points="513.77 91.47 510.72 93.23 513.77 94.99 513.77 91.47"/><polygon class="cls-1" points="536.26 129.44 532.36 127.2 532.36 131.7 536.26 129.44"/><polygon class="cls-1" points="545.53 145.1 541.29 147.55 545.53 150 545.53 145.1"/><polygon class="cls-1" points="568.07 183.77 563.5 181.13 563.5 186.4 568.07 183.77"/><polygon class="cls-1" points="576.97 199.29 572.5 201.87 576.97 204.45 576.97 199.29"/><polygon class="cls-1" points="599.05 238.09 595.05 235.78 595.05 240.4 599.05 238.09"/><polygon class="cls-1" points="608.04 254.11 604.44 256.19 608.04 258.27 608.04 254.11"/><polygon class="cls-1" points="629.54 292.4 626.85 290.85 626.85 293.96 629.54 292.4"/><polygon class="cls-1" points="639.05 309.03 636.49 310.51 639.05 311.99 639.05 309.03"/><polygon class="cls-1" points="661.23 346.72 658.04 344.88 658.04 348.56 661.23 346.72"/><polygon class="cls-1" points="670.93 362.46 666.82 364.83 670.93 367.2 670.93 362.46"/><polygon class="cls-1" points="695.07 401.04 688.17 397.06 688.17 405.03 695.07 401.04"/><polygon class="cls-1" points="703.91 413.98 694.95 419.15 703.91 424.32 703.91 413.98"/><polygon class="cls-1" points="731.5 455.36 716.99 446.99 716.99 463.74 731.5 455.36"/><polygon class="cls-1" points="737.9 463.74 721.05 473.47 737.9 483.2 737.9 463.74"/><polygon class="cls-1" points="766.72 509.68 746.43 497.96 746.43 521.4 766.72 509.68"/><polygon class="cls-1" points="770.6 515.74 749.73 527.79 770.6 539.84 770.6 515.74"/><polygon class="cls-1" points="797.85 564 777.9 552.48 777.9 575.51 797.85 564"/><polygon class="cls-1" points="768.38 592.01 754.18 600.21 768.38 608.41 768.38 592.01"/><polygon class="cls-1" points="760.57 618.32 749.5 611.93 749.5 624.71 760.57 618.32"/><polygon class="cls-1" points="734.26 651.11 728.33 654.53 734.26 657.96 734.26 651.11"/><polygon class="cls-1" points="724.65 672.64 720.42 670.2 720.42 675.08 724.65 672.64"/><polygon class="cls-1" points="701.47 707.91 699.83 708.85 701.47 709.79 701.47 707.91"/><polygon class="cls-1" points="690.85 726.96 690.28 726.63 690.28 727.29 690.85 726.96"/><polygon class="cls-1" points="251.42 75.13 251.41 75.12 251.41 75.14 251.42 75.13"/><polygon class="cls-1" points="293.37 74.88 292.94 75.13 293.37 75.38 293.37 74.88"/><polygon class="cls-1" points="314.52 75.13 313.94 74.79 313.94 75.46 314.52 75.13"/><polygon class="cls-1" points="356.29 74.53 355.26 75.13 356.29 75.72 356.29 74.53"/><polygon class="cls-1" points="377.75 75.13 376.41 74.36 376.41 75.9 377.75 75.13"/><polygon class="cls-1" points="419.27 74.09 417.47 75.13 419.27 76.17 419.27 74.09"/><polygon class="cls-1" points="440.98 75.13 438.88 73.92 438.88 76.34 440.98 75.13"/><polygon class="cls-1" points="482.25 73.65 479.68 75.13 482.25 76.61 482.25 73.65"/><polygon class="cls-1" points="504.13 75.13 501.38 73.55 501.38 76.71 504.13 75.13"/><polygon class="cls-1" points="535.8 93.23 532.59 91.38 532.59 95.09 535.8 93.23"/><polygon class="cls-1" points="545.31 109.28 541.73 111.34 545.31 113.41 545.31 109.28"/><polygon class="cls-1" points="567.84 147.55 563.62 145.11 563.62 149.99 567.84 147.55"/><polygon class="cls-1" points="576.89 163.21 572.65 165.66 576.89 168.11 576.89 163.21"/><polygon class="cls-1" points="599.04 201.87 595.06 199.57 595.06 204.17 599.04 201.87"/><polygon class="cls-1" points="608.06 217.86 604.39 219.98 608.06 222.1 608.06 217.86"/><polygon class="cls-1" points="629.58 256.19 626.83 254.6 626.83 257.78 629.58 256.19"/><polygon class="cls-1" points="638.93 273.02 636.73 274.3 638.93 275.57 638.93 273.02"/><polygon class="cls-1" points="660.1 310.51 658.62 309.66 658.62 311.37 660.1 310.51"/><polygon class="cls-1" points="670.13 327.64 668.43 328.62 670.13 329.6 670.13 327.64"/><polygon class="cls-1" points="692.61 364.83 689.4 362.98 689.4 366.68 692.61 364.83"/><polygon class="cls-1" points="702.46 380.27 697.84 382.94 702.46 385.6 702.46 380.27"/><polygon class="cls-1" points="727.47 419.15 719.01 414.27 719.01 424.03 727.47 419.15"/><polygon class="cls-1" points="736.1 430.64 724.64 437.26 736.1 443.87 736.1 430.64"/><polygon class="cls-1" points="764.59 473.47 747.49 463.6 747.49 483.34 764.59 473.47"/><polygon class="cls-1" points="770.07 480.45 750.8 491.57 770.07 502.7 770.07 480.45"/><polygon class="cls-1" points="798.9 527.79 777.38 515.36 777.38 540.22 798.9 527.79"/><polygon class="cls-1" points="802.2 533.44 780.63 545.89 802.2 558.35 802.2 533.44"/><polygon class="cls-1" points="801.03 571.67 782.96 582.11 801.03 592.54 801.03 571.67"/><polygon class="cls-1" points="794.37 600.21 779.64 591.71 779.64 608.72 794.37 600.21"/><polygon class="cls-1" points="766.42 631.63 758.1 636.43 766.42 641.23 766.42 631.63"/><polygon class="cls-1" points="757.04 654.53 751.27 651.2 751.27 657.86 757.04 654.53"/><polygon class="cls-1" points="733.06 689.4 730.73 690.75 733.06 692.09 733.06 689.4"/><polygon class="cls-1" points="722.61 708.85 721.44 708.18 721.44 709.53 722.61 708.85"/><polygon class="cls-1" points="261.92 56.94 261.77 57.02 261.92 57.11 261.92 56.94"/><polygon class="cls-1" points="282.97 57.02 282.68 56.85 282.68 57.19 282.97 57.02"/><polygon class="cls-1" points="324.83 56.6 324.1 57.02 324.83 57.44 324.83 56.6"/><polygon class="cls-1" points="346.08 57.02 345.2 56.51 345.2 57.53 346.08 57.02"/><polygon class="cls-1" points="387.76 56.25 386.42 57.02 387.76 57.79 387.76 56.25"/><polygon class="cls-1" points="409.31 57.02 407.67 56.07 407.67 57.97 409.31 57.02"/><polygon class="cls-1" points="450.74 55.8 448.62 57.02 450.74 58.24 450.74 55.8"/><polygon class="cls-1" points="472.45 57.02 470.18 55.71 470.18 58.33 472.45 57.02"/><polygon class="cls-1" points="513.63 55.5 511 57.02 513.63 58.54 513.63 55.5"/><polygon class="cls-1" points="535.52 57.02 532.73 55.41 532.73 58.63 535.52 57.02"/><polygon class="cls-1" points="545.14 73.36 542.07 75.13 545.14 76.9 545.14 73.36"/><polygon class="cls-1" points="567.42 111.34 563.83 109.27 563.83 113.42 567.42 111.34"/><polygon class="cls-1" points="576.78 127.19 572.87 129.44 576.78 131.71 576.78 127.19"/><polygon class="cls-1" points="598.99 165.66 595.08 163.4 595.08 167.92 598.99 165.66"/><polygon class="cls-1" points="608.09 181.6 604.34 183.77 608.09 185.93 608.09 181.6"/><polygon class="cls-1" points="629.74 219.98 626.75 218.25 626.75 221.7 629.74 219.98"/><polygon class="cls-1" points="639.04 236.63 636.51 238.09 639.04 239.55 639.04 236.63"/><polygon class="cls-1" points="660.03 274.3 658.65 273.5 658.65 275.1 660.03 274.3"/><polygon class="cls-1" points="669.85 291.9 668.98 292.4 669.85 292.9 669.85 291.9"/><polygon class="cls-1" points="691.07 328.62 690.17 328.1 690.17 329.14 691.07 328.62"/><polygon class="cls-1" points="701.4 345.9 699.97 346.72 701.4 347.55 701.4 345.9"/><polygon class="cls-1" points="724.47 382.94 720.51 380.65 720.51 385.22 724.47 382.94"/><polygon class="cls-1" points="734.2 397.73 728.46 401.04 734.2 404.36 734.2 397.73"/><polygon class="cls-1" points="760.76 437.26 749.4 430.7 749.4 443.81 760.76 437.26"/><polygon class="cls-1" points="768.5 446.95 753.93 455.36 768.5 463.78 768.5 446.95"/><polygon class="cls-1" points="797.68 491.57 777.99 480.21 777.99 502.94 797.68 491.57"/><polygon class="cls-1" points="802.16 497.28 780.69 509.68 802.16 522.08 802.16 497.28"/><polygon class="cls-1" points="798.96 611.47 787.09 618.32 798.96 625.17 798.96 611.47"/><polygon class="cls-1" points="790.32 636.43 781.67 631.43 781.67 641.42 790.32 636.43"/><polygon class="cls-1" points="764.9 670.47 761.14 672.64 764.9 674.81 764.9 670.47"/><polygon class="cls-1" points="754.59 690.75 752.49 689.53 752.49 691.96 754.59 690.75"/><polygon class="cls-1" points="732.28 726.96 732.28 726.96 732.28 726.96 732.28 726.96"/><polygon class="cls-1" points="230.51 38.91 230.49 38.91 230.51 38.92 230.51 38.91"/><polygon class="cls-1" points="251.51 38.91 251.36 38.83 251.36 39 251.51 38.91"/><polygon class="cls-1" points="293.38 38.66 292.93 38.91 293.38 39.18 293.38 38.66"/><polygon class="cls-1" points="314.62 38.91 313.89 38.49 313.89 39.34 314.62 38.91"/><polygon class="cls-1" points="356.29 38.32 355.26 38.91 356.29 39.51 356.29 38.32"/><polygon class="cls-1" points="377.75 38.91 376.41 38.15 376.41 39.69 377.75 38.91"/><polygon class="cls-1" points="419.24 37.94 417.54 38.91 419.24 39.89 419.24 37.94"/><polygon class="cls-1" points="440.88 38.91 438.93 37.78 438.93 40.04 440.88 38.91"/><polygon class="cls-1" points="482.17 37.58 479.85 38.91 482.17 40.25 482.17 37.58"/><polygon class="cls-1" points="503.95 38.91 501.48 37.49 501.48 40.34 503.95 38.91"/><polygon class="cls-1" points="545.05 37.3 542.25 38.91 545.05 40.53 545.05 37.3"/><polygon class="cls-1" points="567.1 75.13 563.99 73.33 563.99 76.92 567.1 75.13"/><polygon class="cls-1" points="576.6 91.29 573.23 93.23 576.6 95.18 576.6 91.29"/><polygon class="cls-1" points="598.89 129.44 595.13 127.28 595.13 131.61 598.89 129.44"/><polygon class="cls-1" points="608.09 145.38 604.34 147.55 608.09 149.72 608.09 145.38"/><polygon class="cls-1" points="629.94 183.77 626.65 181.87 626.65 185.66 629.94 183.77"/><polygon class="cls-1" points="639.2 200.15 636.21 201.87 639.2 203.6 639.2 200.15"/><polygon class="cls-1" points="660.39 238.09 658.47 236.98 658.47 239.19 660.39 238.09"/><polygon class="cls-1" points="670 255.43 668.68 256.19 670 256.95 670 255.43"/><polygon class="cls-1" points="690.63 292.4 690.39 292.27 690.39 292.54 690.63 292.4"/><polygon class="cls-1" points="700.98 310.41 700.81 310.51 700.98 310.61 700.98 310.41"/><polygon class="cls-1" points="722.41 346.72 721.54 346.22 721.54 347.23 722.41 346.72"/><polygon class="cls-1" points="732.95 363.68 730.95 364.83 732.95 365.98 732.95 363.68"/><polygon class="cls-1" points="756.84 401.04 751.37 397.88 751.37 404.2 756.84 401.04"/><polygon class="cls-1" points="766.31 414.53 758.31 419.15 766.31 423.77 766.31 414.53"/><polygon class="cls-1" points="794.43 455.36 779.61 446.81 779.61 463.91 794.43 455.36"/><polygon class="cls-1" points="800.97 463.14 783.08 473.47 800.97 483.8 800.97 463.14"/><polygon class="cls-1" points="797.04 651.01 790.94 654.53 797.04 658.05 797.04 651.01"/><polygon class="cls-1" points="787.15 672.64 783.25 670.38 783.25 674.89 787.15 672.64"/><polygon class="cls-1" points="763.9 708.4 763.12 708.85 763.9 709.3 763.9 708.4"/><polygon class="cls-1" points="220.06 20.81 220.05 20.8 220.05 20.82 220.06 20.81"/><polygon class="cls-1" points="261.96 20.64 261.67 20.81 261.96 20.97 261.96 20.64"/><polygon class="cls-1" points="283.06 20.81 282.63 20.56 282.63 21.06 283.06 20.81"/><polygon class="cls-1" points="324.83 20.39 324.1 20.81 324.83 21.23 324.83 20.39"/><polygon class="cls-1" points="346.18 20.81 345.15 20.21 345.15 21.4 346.18 20.81"/><polygon class="cls-1" points="387.8 19.96 386.33 20.81 387.8 21.66 387.8 19.96"/><polygon class="cls-1" points="409.31 20.81 407.67 19.86 407.67 21.76 409.31 20.81"/><polygon class="cls-1" points="450.68 19.68 448.73 20.81 450.68 21.93 450.68 19.68"/><polygon class="cls-1" points="472.38 20.81 470.22 19.56 470.22 22.05 472.38 20.81"/><polygon class="cls-1" points="513.62 19.31 511.03 20.81 513.62 22.3 513.62 19.31"/><polygon class="cls-1" points="535.49 20.81 532.75 19.22 532.75 22.39 535.49 20.81"/><polygon class="cls-1" points="566.96 38.91 564.06 37.24 564.06 40.59 566.96 38.91"/><polygon class="cls-1" points="576.5 55.25 573.43 57.02 576.5 58.79 576.5 55.25"/><polygon class="cls-1" points="598.64 93.23 595.25 91.28 595.25 95.19 598.64 93.23"/><polygon class="cls-1" points="608.01 109.31 604.49 111.34 608.01 113.38 608.01 109.31"/><polygon class="cls-1" points="630.14 147.55 626.55 145.48 626.55 149.63 630.14 147.55"/><polygon class="cls-1" points="639.3 163.76 636.01 165.66 639.3 167.56 639.3 163.76"/><polygon class="cls-1" points="660.78 201.87 658.27 200.42 658.27 203.32 660.78 201.87"/><polygon class="cls-1" points="670.2 218.87 668.28 219.98 670.2 221.09 670.2 218.87"/><polygon class="cls-1" points="690.95 256.19 690.23 255.77 690.23 256.61 690.95 256.19"/><polygon class="cls-1" points="701.01 274.15 700.75 274.3 701.01 274.45 701.01 274.15"/><polygon class="cls-1" points="732.29 328.61 732.28 328.62 732.29 328.62 732.29 328.61"/><polygon class="cls-1" points="754.36 364.83 752.61 363.82 752.61 365.84 754.36 364.83"/><polygon class="cls-1" points="764.72 381.07 761.5 382.94 764.72 384.8 764.72 381.07"/><polygon class="cls-1" points="789.92 419.15 781.87 414.5 781.87 423.8 789.92 419.15"/><polygon class="cls-1" points="798.86 430.58 787.3 437.26 798.86 443.93 798.86 430.58"/><polygon class="cls-1" points="795.76 689.44 793.5 690.75 795.76 692.05 795.76 689.44"/><polygon class="cls-1" points="785.13 708.85 784.26 708.35 784.26 709.35 785.13 708.85"/><polygon class="cls-1" points="230.51 2.69 230.49 2.7 230.51 2.72 230.51 2.69"/><polygon class="cls-1" points="251.52 2.7 251.36 2.61 251.36 2.8 251.52 2.7"/><polygon class="cls-1" points="293.42 2.37 292.84 2.7 293.42 3.04 293.42 2.37"/><polygon class="cls-1" points="314.62 2.7 313.89 2.28 313.89 3.12 314.62 2.7"/><polygon class="cls-1" points="356.34 2.02 355.16 2.7 356.34 3.38 356.34 2.02"/><polygon class="cls-1" points="377.75 2.7 376.41 1.93 376.41 3.47 377.75 2.7"/><polygon class="cls-1" points="419.22 1.75 417.58 2.7 419.22 3.65 419.22 1.75"/><polygon class="cls-1" points="440.88 2.7 438.93 1.57 438.93 3.83 440.88 2.7"/><polygon class="cls-1" points="482.15 1.39 479.88 2.7 482.15 4.01 482.15 1.39"/><polygon class="cls-1" points="503.92 2.7 501.49 1.3 501.49 4.11 503.92 2.7"/><polygon class="cls-1" points="545.03 1.11 542.29 2.7 545.03 4.29 545.03 1.11"/><polygon class="cls-1" points="566.96 2.7 564.06 1.02 564.06 4.38 566.96 2.7"/><polygon class="cls-1" points="576.5 19.04 573.43 20.81 576.5 22.58 576.5 19.04"/><polygon class="cls-1" points="598.53 57.02 595.31 55.16 595.31 58.88 598.53 57.02"/><polygon class="cls-1" points="607.93 73.24 604.66 75.13 607.93 77.02 607.93 73.24"/><polygon class="cls-1" points="630.03 111.34 626.6 109.36 626.6 113.32 630.03 111.34"/><polygon class="cls-1" points="639.38 127.41 635.85 129.44 639.38 131.49 639.38 127.41"/><polygon class="cls-1" points="661.15 165.66 658.09 163.89 658.09 167.43 661.15 165.66"/><polygon class="cls-1" points="670.44 182.25 667.81 183.77 670.44 185.28 670.44 182.25"/><polygon class="cls-1" points="691.51 219.98 689.95 219.08 689.95 220.88 691.51 219.98"/><polygon class="cls-1" points="701.24 237.53 700.28 238.09 701.24 238.64 701.24 237.53"/><polygon class="cls-1" points="721.83 274.3 721.83 274.3 721.83 274.3 721.83 274.3"/><polygon class="cls-1" points="763.75 346.55 763.45 346.72 763.75 346.9 763.75 346.55"/><polygon class="cls-1" points="786.62 382.94 783.52 381.14 783.52 384.73 786.62 382.94"/><polygon class="cls-1" points="796.75 398.01 791.51 401.04 796.75 404.07 796.75 398.01"/><polygon class="cls-1" points="598.53 20.81 595.31 18.95 595.31 22.67 598.53 20.81"/><polygon class="cls-1" points="607.91 37.05 604.69 38.91 607.91 40.77 607.91 37.05"/><polygon class="cls-1" points="630 75.13 626.62 73.17 626.62 77.08 630 75.13"/><polygon class="cls-1" points="639.34 91.25 635.91 93.23 639.34 95.21 639.34 91.25"/><polygon class="cls-1" points="661.4 129.44 657.96 127.46 657.96 131.43 661.4 129.44"/><polygon class="cls-1" points="670.63 145.69 667.41 147.55 670.63 149.42 670.63 145.69"/><polygon class="cls-1" points="692.04 183.77 689.68 182.41 689.68 185.12 692.04 183.77"/><polygon class="cls-1" points="701.54 200.8 699.69 201.87 701.54 202.94 701.54 200.8"/><polygon class="cls-1" points="722.38 238.09 721.55 237.61 721.55 238.56 722.38 238.09"/><polygon class="cls-1" points="732.4 255.99 732.04 256.19 732.4 256.4 732.4 255.99"/><polygon class="cls-1" points="784.68 346.72 784.49 346.61 784.49 346.84 784.68 346.72"/><polygon class="cls-1" points="795.49 364 794.05 364.83 795.49 365.66 795.49 364"/><polygon class="cls-1" points="607.93 0.81 604.66 2.7 607.93 4.59 607.93 0.81"/><polygon class="cls-1" points="630 38.91 626.62 36.96 626.62 40.87 630 38.91"/><polygon class="cls-1" points="639.33 55.07 635.94 57.02 639.33 58.98 639.33 55.07"/><polygon class="cls-1" points="661.46 93.23 657.93 91.2 657.93 95.27 661.46 93.23"/><polygon class="cls-1" points="670.71 109.36 667.27 111.34 670.71 113.32 670.71 109.36"/><polygon class="cls-1" points="692.51 147.55 689.45 145.78 689.45 149.32 692.51 147.55"/><polygon class="cls-1" points="701.81 164.12 699.14 165.66 701.81 167.2 701.81 164.12"/><polygon class="cls-1" points="723.03 201.87 721.23 200.83 721.23 202.91 723.03 201.87"/><polygon class="cls-1" points="732.74 219.19 731.38 219.98 732.74 220.76 732.74 219.19"/><polygon class="cls-1" points="753.43 256.19 753.07 255.99 753.07 256.4 753.43 256.19"/><polygon class="cls-1" points="630.03 2.7 626.6 0.72 626.6 4.68 630.03 2.7"/><polygon class="cls-1" points="639.38 18.77 635.85 20.81 639.38 22.84 639.38 18.77"/><polygon class="cls-1" points="661.47 57.02 657.92 54.97 657.92 59.07 661.47 57.02"/><polygon class="cls-1" points="670.74 73.08 667.2 75.13 670.74 77.17 670.74 73.08"/><polygon class="cls-1" points="692.76 111.34 689.33 109.36 689.33 113.32 692.76 111.34"/><polygon class="cls-1" points="702.02 127.55 698.73 129.44 702.02 131.35 702.02 127.55"/><polygon class="cls-1" points="723.58 165.66 720.96 164.15 720.96 167.17 723.58 165.66"/><polygon class="cls-1" points="733.05 182.44 730.75 183.77 733.05 185.1 733.05 182.44"/><polygon class="cls-1" points="754.11 219.98 752.73 219.18 752.73 220.77 754.11 219.98"/><polygon class="cls-1" points="763.94 237.57 763.05 238.09 763.94 238.6 763.94 237.57"/><polygon class="cls-1" points="661.58 20.81 657.87 18.67 657.87 22.95 661.58 20.81"/><polygon class="cls-1" points="670.8 36.77 667.09 38.91 670.8 41.06 670.8 36.77"/><polygon class="cls-1" points="692.94 75.13 689.24 72.99 689.24 77.27 692.94 75.13"/><polygon class="cls-1" points="702.12 91.16 698.53 93.23 702.12 95.31 702.12 91.16"/><polygon class="cls-1" points="724.09 129.44 720.7 127.49 720.7 131.4 724.09 129.44"/><polygon class="cls-1" points="733.31 145.77 730.23 147.55 733.31 149.33 733.31 145.77"/><polygon class="cls-1" points="754.8 183.77 752.38 182.37 752.38 185.16 754.8 183.77"/><polygon class="cls-1" points="764.3 200.73 762.33 201.87 764.3 203.02 764.3 200.73"/><polygon class="cls-1" points="785.16 238.09 784.25 237.56 784.25 238.61 785.16 238.09"/><polygon class="cls-1" points="795.16 255.92 794.69 256.19 795.16 256.47 795.16 255.92"/><polygon class="cls-1" points="670.81 0.53 667.06 2.7 670.81 4.87 670.81 0.53"/><polygon class="cls-1" points="693.04 38.91 689.18 36.68 689.18 41.15 693.04 38.91"/><polygon class="cls-1" points="702.21 54.79 698.34 57.02 702.21 59.26 702.21 54.79"/><polygon class="cls-1" points="724.3 93.23 720.6 91.09 720.6 95.37 724.3 93.23"/><polygon class="cls-1" points="733.49 109.25 729.88 111.34 733.49 113.43 733.49 109.25"/><polygon class="cls-1" points="755.35 147.55 752.11 145.68 752.11 149.43 755.35 147.55"/><polygon class="cls-1" points="764.61 163.99 761.72 165.66 764.61 167.33 764.61 163.99"/><polygon class="cls-1" points="785.98 201.87 783.84 200.64 783.84 203.11 785.98 201.87"/><polygon class="cls-1" points="795.52 219.08 793.98 219.98 795.52 220.87 795.52 219.08"/><polygon class="cls-1" points="693.04 2.7 689.18 0.47 689.18 4.93 693.04 2.7"/><polygon class="cls-1" points="702.27 18.48 698.24 20.81 702.27 23.14 702.27 18.48"/><polygon class="cls-1" points="724.52 57.02 720.49 54.7 720.49 59.35 724.52 57.02"/><polygon class="cls-1" points="733.57 72.89 729.7 75.13 733.57 77.36 733.57 72.89"/><polygon class="cls-1" points="755.66 111.34 751.96 109.2 751.96 113.48 755.66 111.34"/><polygon class="cls-1" points="764.83 127.39 761.27 129.44 764.83 131.51 764.83 127.39"/><polygon class="cls-1" points="786.51 165.66 783.57 163.96 783.57 167.36 786.51 165.66"/><polygon class="cls-1" points="795.87 182.27 793.28 183.77 795.87 185.26 795.87 182.27"/><polygon class="cls-1" points="724.62 20.81 720.43 18.39 720.43 23.23 724.62 20.81"/><polygon class="cls-1" points="733.68 36.49 729.49 38.91 733.68 41.34 733.68 36.49"/><polygon class="cls-1" points="755.88 75.13 751.85 72.8 751.85 77.45 755.88 75.13"/><polygon class="cls-1" points="764.99 90.91 760.96 93.23 764.99 95.56 764.99 90.91"/><polygon class="cls-1" points="787.02 129.44 783.32 127.31 783.32 131.59 787.02 129.44"/><polygon class="cls-1" points="796.14 145.59 792.74 147.55 796.14 149.52 796.14 145.59"/><polygon class="cls-1" points="733.68 0.28 729.49 2.7 733.68 5.12 733.68 0.28"/><polygon class="cls-1" points="756.08 38.91 751.75 36.41 751.75 41.42 756.08 38.91"/><polygon class="cls-1" points="765.06 54.57 760.82 57.02 765.06 59.47 765.06 54.57"/><polygon class="cls-1" points="787.24 93.23 783.21 90.91 783.21 95.56 787.24 93.23"/><polygon class="cls-1" points="796.35 109.01 792.32 111.34 796.35 113.67 796.35 109.01"/><polygon class="cls-1" points="756.1 2.7 751.74 0.19 751.74 5.22 756.1 2.7"/><polygon class="cls-1" points="765.14 18.21 760.65 20.81 765.14 23.41 765.14 18.21"/><polygon class="cls-1" points="787.46 57.02 783.1 54.51 783.1 59.54 787.46 57.02"/><polygon class="cls-1" points="796.45 72.62 792.12 75.13 796.45 77.63 796.45 72.62"/><polygon class="cls-1" points="787.56 20.81 783.05 18.2 783.05 23.42 787.56 20.81"/><polygon class="cls-1" points="796.51 36.31 791.99 38.91 796.51 41.52 796.51 36.31"/><polygon class="cls-1" points="796.57 0 791.88 2.7 796.57 5.4 796.57 0"/></svg>