<svg id="Layer_1" data-name="Layer 1" xmlns="http://www.w3.org/2000/svg" viewBox="0 0 260 90"><defs><style>.cls-1{fill:#488fcc;}.cls-1,.cls-2,.cls-3,.cls-5{fill-rule:evenodd;}.cls-2{fill:#ccc;}.cls-3{fill:#e6e6e5;}.cls-4,.cls-6,.cls-7{fill:none;stroke-width:0.5px;}.cls-4{stroke:#fff;}.cls-5{fill:#5abf8b;}.cls-6{stroke:#5abf8b;}.cls-7{stroke:#488fcc;}</style></defs><path id="Fill-2063" class="cls-1" d="M252.33,58.19V50.86H242.27l9.5-18.71v-6H234v7.33h9.07L233.53,52.6v5.59ZM223.69,39.05h-3.36V35.26c0-1.43.69-2.24,1.68-2.24s1.68.81,1.68,2.24Zm8.14,10.38V47.19h-8.14v1.93c0,1.43-.68,2.23-1.68,2.23s-1.68-.8-1.68-2.23V44.39h11.5V34.93c0-5.84-3.73-9.26-9.82-9.26s-9.82,3.42-9.82,9.26v14.5c0,5.84,3.73,9.25,9.82,9.25s9.82-3.41,9.82-9.25ZM200.89,32.28c0,1.43-.75,2.17-1.74,2.17H197.1V24.82H199c1.18,0,1.93.81,1.93,2.3v5.16ZM210,58.19a12,12,0,0,1-1-4.72V44.39c0-2.92-1-5.4-3.29-6.15C208,37.5,209,35,209,32.09V26.87c0-6-3-9.19-10-9.19H189V58.19h8.14V41.79h2.05c1,0,1.74.74,1.74,2.17v9.75a10.87,10.87,0,0,0,.74,4.48Zm-23.74-9.32c0-5.53-3-7.52-6.77-9.38-3.48-1.68-4.53-2.43-4.53-4.6,0-1.55.49-2.67,1.67-2.67,1.49,0,1.62,1.55,1.62,3v1.49h7.7V35.14c0-5.53-3-9.57-9.32-9.57s-9.44,4-9.44,9.44c0,4.91,2.24,7.46,6.52,9.45,3.48,1.61,4.73,2.42,4.73,4.66,0,2-.81,2.67-1.93,2.67s-1.94-.62-1.94-2.86V47.31H166.7v2c0,5.6,3.48,9.51,9.7,9.51,6.4,0,9.81-4.35,9.81-9.94Zm-19.63,9.32-7.27-19.45,7-12.55h-8.39l-3.58,6.74a17.25,17.25,0,0,0-1.62,4.72V15.19h-8.14v43h8.14V46.76l.94-1.74,4.16,13.17Zm-25.35,0V34.64c0-6-2.67-8.95-7.39-8.95a5.19,5.19,0,0,0-4.42,2.49v-2h-8v32h8.14V35.26c0-1.43.75-2.24,1.74-2.24s1.74.81,1.74,2.24V58.19Zm-31.38,0H118v-32h-8.14Zm0-34.55H118v-7.2h-8.14Zm-2.11,34.55V50.86h-7.52V17.68H92V58.19Z"/><path id="Fill-2065" class="cls-2" d="M200.58,74.1a.14.14,0,0,1,0,.09.15.15,0,0,1-.09.06.48.48,0,0,1-.17,0h-.72a.16.16,0,0,1-.08-.06.14.14,0,0,1,0-.09V70.54a3.42,3.42,0,0,0-.08-.84,1.42,1.42,0,0,0-.24-.55.94.94,0,0,0-.39-.35,1.39,1.39,0,0,0-.57-.12,1.4,1.4,0,0,0-.83.3,4.48,4.48,0,0,0-.87.87V74.1a.14.14,0,0,1,0,.09.15.15,0,0,1-.09.06.48.48,0,0,1-.17,0h-.55a.48.48,0,0,1-.17,0,.18.18,0,0,1-.09-.06.14.14,0,0,1,0-.09v-9a.14.14,0,0,1,0-.09.2.2,0,0,1,.09-.07h.89a.22.22,0,0,1,.09.07.14.14,0,0,1,0,.09v3.63a3.64,3.64,0,0,1,1-.75,2.27,2.27,0,0,1,2,0,1.81,1.81,0,0,1,.67.55,2.06,2.06,0,0,1,.37.81,4.68,4.68,0,0,1,.11,1.12Zm-8.05-.45a.81.81,0,0,1,0,.31.35.35,0,0,1-.08.16.46.46,0,0,1-.16.11l-.25.07h-.6a2.5,2.5,0,0,1-.81-.13,1.4,1.4,0,0,1-.55-.38,1.61,1.61,0,0,1-.32-.64,4.6,4.6,0,0,1-.09-.91V68.78h-.86a.19.19,0,0,1-.16-.11.83.83,0,0,1-.06-.35.81.81,0,0,1,0-.22V68a.08.08,0,0,1,.07-.08h1V66.41a.14.14,0,0,1,0-.09l.09-.07a.48.48,0,0,1,.17,0h.55a.48.48,0,0,1,.17,0,.22.22,0,0,1,.09.07.14.14,0,0,1,0,.09v1.44h1.64a.18.18,0,0,1,.07.08.33.33,0,0,1,0,.14.81.81,0,0,1,0,.22.7.7,0,0,1-.06.35.23.23,0,0,1-.17.11h-1.43v3.38a2.16,2.16,0,0,0,.18.94.68.68,0,0,0,.66.32,1.31,1.31,0,0,0,.28,0l.21-.06.16-.07h.19a.06.06,0,0,1,0,.06v.13a.74.74,0,0,1,0,.21ZM182,71.06a4.88,4.88,0,0,0-.09-.93,2.21,2.21,0,0,0-.3-.77,1.46,1.46,0,0,0-.57-.53,2,2,0,0,0-.9-.19,1.81,1.81,0,0,0-.85.18,1.53,1.53,0,0,0-.58.49,2.36,2.36,0,0,0-.34.76,3.74,3.74,0,0,0-.11,1,4.91,4.91,0,0,0,.09.94,2.68,2.68,0,0,0,.3.77,1.67,1.67,0,0,0,.57.52,2,2,0,0,0,.9.19,1.87,1.87,0,0,0,.84-.18,1.48,1.48,0,0,0,.59-.49,2,2,0,0,0,.34-.76,3.74,3.74,0,0,0,.11-1Zm1.16-.07a4.54,4.54,0,0,1-.19,1.37,3,3,0,0,1-.59,1.07,2.65,2.65,0,0,1-1,.71,3.92,3.92,0,0,1-2.66,0,2.38,2.38,0,0,1-.92-.65,2.72,2.72,0,0,1-.55-1,5,5,0,0,1,0-2.75,2.94,2.94,0,0,1,.58-1.07,2.62,2.62,0,0,1,1-.71,3.56,3.56,0,0,1,1.36-.25,3.44,3.44,0,0,1,1.31.22,2.34,2.34,0,0,1,.93.65,2.61,2.61,0,0,1,.56,1A4.57,4.57,0,0,1,183.2,71Zm-8.36,2.66a.81.81,0,0,1,0,.31.3.3,0,0,1-.08.16.36.36,0,0,1-.16.11l-.25.07h-.29a1.6,1.6,0,0,1-.31,0,2.5,2.5,0,0,1-.81-.13,1.4,1.4,0,0,1-.55-.38,1.47,1.47,0,0,1-.31-.64,4,4,0,0,1-.1-.91V68.78h-.85a.22.22,0,0,1-.17-.11.83.83,0,0,1-.06-.35A1.13,1.13,0,0,1,171,68a.27.27,0,0,1,.07-.08H172V66.32l.09-.07a.54.54,0,0,1,.18,0h.54a.48.48,0,0,1,.17,0,.22.22,0,0,1,.09.07.14.14,0,0,1,0,.09v1.44h1.64s0,0,.07.08a.33.33,0,0,1,0,.14.81.81,0,0,1,0,.22.7.7,0,0,1-.06.35.19.19,0,0,1-.16.11H173v3.38a2.16,2.16,0,0,0,.18.94.7.7,0,0,0,.66.32,1.31,1.31,0,0,0,.28,0l.21-.06.16-.07h.19a.06.06,0,0,1,0,.06.29.29,0,0,1,0,.13.74.74,0,0,1,0,.21Zm-9.72.45a.14.14,0,0,1,0,.09.15.15,0,0,1-.09.06.43.43,0,0,1-.16,0h-.49a.43.43,0,0,1-.16,0,.13.13,0,0,1-.07-.06.14.14,0,0,1,0-.09v-.81a3.67,3.67,0,0,1-1,.84,2.29,2.29,0,0,1-2,.06,2,2,0,0,1-.67-.55,2.39,2.39,0,0,1-.37-.81A5.35,5.35,0,0,1,160,71.7V67.93l.1-.07a.48.48,0,0,1,.17,0h.54a.48.48,0,0,1,.17,0,.22.22,0,0,1,.09.07.14.14,0,0,1,0,.09v3.54a4,4,0,0,0,.08.85,1.57,1.57,0,0,0,.23.55,1.15,1.15,0,0,0,.41.35,1.24,1.24,0,0,0,.56.13,1.41,1.41,0,0,0,.84-.3,4.53,4.53,0,0,0,.88-.87V67.93l.09-.07h.72a.48.48,0,0,1,.17,0,.22.22,0,0,1,.09.07.14.14,0,0,1,0,.09Zm-9.39-3a4.88,4.88,0,0,0-.09-.93,2.21,2.21,0,0,0-.3-.77,1.46,1.46,0,0,0-.57-.53,2,2,0,0,0-.89-.19,1.81,1.81,0,0,0-.85.18,1.56,1.56,0,0,0-.59.49,2.36,2.36,0,0,0-.34.76,3.74,3.74,0,0,0-.11,1,4.91,4.91,0,0,0,.09.94,2.68,2.68,0,0,0,.3.77,1.89,1.89,0,0,0,.57.52,2,2,0,0,0,.9.19,1.88,1.88,0,0,0,.85-.18,1.48,1.48,0,0,0,.59-.49,2.15,2.15,0,0,0,.33-.76A3.38,3.38,0,0,0,155.72,71.1Zm1.16-.07a4.54,4.54,0,0,1-.19,1.37,3,3,0,0,1-.59,1.07,2.55,2.55,0,0,1-1,.71,3.48,3.48,0,0,1-1.35.25,3.42,3.42,0,0,1-1.3-.22,2.49,2.49,0,0,1-.93-.65,2.72,2.72,0,0,1-.55-1,5.33,5.33,0,0,1-.18-1.38,4.87,4.87,0,0,1,.19-1.37,3.09,3.09,0,0,1,.58-1.07,2.62,2.62,0,0,1,1-.71,3.78,3.78,0,0,1,2.65,0,2.34,2.34,0,0,1,.93.65,2.61,2.61,0,0,1,.56,1,4.57,4.57,0,0,1,.18,1.37Zm-9.82-.12v3.22a.14.14,0,0,1,0,.09l-.09.07h-.91a.23.23,0,0,1-.1-.07.14.14,0,0,1,0-.09V70.87l-2.53-4.94a1.17,1.17,0,0,1-.09-.24.17.17,0,0,1,0-.14.35.35,0,0,1,.19-.06h.88a.26.26,0,0,1,.11.07.41.41,0,0,1,.07.11l1.21,2.51q.16.36.33.75c.11.26.23.52.35.79h0c.1-.26.21-.51.32-.77l.33-.75,1.21-2.52.06-.12.1-.07h.85a.36.36,0,0,1,.2.06.17.17,0,0,1,0,.14.65.65,0,0,1,0,.24Zm-10,3.83a.65.65,0,0,0-.32-.6,1.54,1.54,0,0,0-.86-.22l-1.57-.06-.35.32a1.58,1.58,0,0,0-.22.29.81.81,0,0,0-.11.27,1.31,1.31,0,0,0,0,.28.71.71,0,0,0,.44.66,2.79,2.79,0,0,0,1.24.23,2.62,2.62,0,0,0,.84-.1,1.55,1.55,0,0,0,.55-.26,1,1,0,0,0,.3-.37,1.12,1.12,0,0,0,.09-.44Zm-.53-4.81a1.2,1.2,0,0,0-1.34-1.34,1.35,1.35,0,0,0-.56.1,1.17,1.17,0,0,0-.4.3,1.27,1.27,0,0,0-.23.43,1.82,1.82,0,0,0-.08.52A1.18,1.18,0,0,0,135,71.22a.81.81,0,0,0,.22,0,1.42,1.42,0,0,0,.58-.1,1,1,0,0,0,.4-.29,1.19,1.19,0,0,0,.23-.43A1.29,1.29,0,0,0,136.53,69.93Zm1.74-1.6a.7.7,0,0,1-.06.35.19.19,0,0,1-.17.1h-.87a1.28,1.28,0,0,1,.33.53,1.81,1.81,0,0,1,.1.61,2.29,2.29,0,0,1-.17.93,1.94,1.94,0,0,1-.49.68,2,2,0,0,1-.74.43,2.82,2.82,0,0,1-1,.15,2.44,2.44,0,0,1-.71-.1,1.41,1.41,0,0,1-.51-.24,1,1,0,0,0-.19.27.9.9,0,0,0-.08.36.53.53,0,0,0,.22.4,1.15,1.15,0,0,0,.6.13l1.58.06a3.19,3.19,0,0,1,.82.13,2.24,2.24,0,0,1,.66.32,1.38,1.38,0,0,1,.43.5,1.43,1.43,0,0,1,.15.7,1.68,1.68,0,0,1-.17.79,1.84,1.84,0,0,1-.54.67,2.63,2.63,0,0,1-.92.45,4.51,4.51,0,0,1-1.32.16,5.25,5.25,0,0,1-1.25-.12,2.61,2.61,0,0,1-.85-.34,1.5,1.5,0,0,1-.48-.52,1.44,1.44,0,0,1-.15-.65,1.54,1.54,0,0,1,.06-.43,2,2,0,0,1,.16-.4,2.48,2.48,0,0,1,.28-.36c.12-.12.25-.23.38-.34a1.11,1.11,0,0,1-.48-.43,1,1,0,0,1-.16-.55,1.7,1.7,0,0,1,.16-.74,3.07,3.07,0,0,1,.42-.58,2.12,2.12,0,0,1-.33-.56,2,2,0,0,1-.13-.76A2.44,2.44,0,0,1,133,69a2.09,2.09,0,0,1,.48-.69,2.12,2.12,0,0,1,.75-.44,3.09,3.09,0,0,1,1-.15,4.51,4.51,0,0,1,.52,0,3.26,3.26,0,0,1,.45.09H138a.18.18,0,0,1,.17.11.66.66,0,0,1,.06.34Zm-8.49,5.8a.14.14,0,0,1,0,.09.15.15,0,0,1-.09.06.48.48,0,0,1-.17,0H129a.48.48,0,0,1-.17,0,.24.24,0,0,1-.09-.06.14.14,0,0,1,0-.09V70.54a3,3,0,0,0-.08-.84,1.65,1.65,0,0,0-.23-.55,1,1,0,0,0-.4-.35,1.24,1.24,0,0,0-.57-.12,1.4,1.4,0,0,0-.83.3,4.48,4.48,0,0,0-.87.87V74.1a.14.14,0,0,1,0,.09.15.15,0,0,1-.09.06.48.48,0,0,1-.17,0h-.54a.54.54,0,0,1-.18,0,.24.24,0,0,1-.09-.06V67.93a.27.27,0,0,1,.08-.07.43.43,0,0,1,.16,0h.65l0,.07a.14.14,0,0,1,0,.09v.81a3.71,3.71,0,0,1,1-.85,2.2,2.2,0,0,1,1-.27,2.14,2.14,0,0,1,1,.21,1.89,1.89,0,0,1,.67.55,2,2,0,0,1,.36.81,4.6,4.6,0,0,1,.11,1.11Zm-8.58-8.2a.7.7,0,0,1-.15.54.82.82,0,0,1-.55.14.8.8,0,0,1-.54-.14,1,1,0,0,1,0-1.06.83.83,0,0,1,.55-.14.8.8,0,0,1,.54.14.75.75,0,0,1,.14.52Zm-.12,8.13a.14.14,0,0,1,0,.09.15.15,0,0,1-.09.06.48.48,0,0,1-.17,0h-.55a.48.48,0,0,1-.17,0,.24.24,0,0,1-.09-.06.14.14,0,0,1,0-.09V68a.14.14,0,0,1,0-.09l.09-.07a.48.48,0,0,1,.17,0h.55a.48.48,0,0,1,.17,0,.22.22,0,0,1,.09.07.14.14,0,0,1,0,.09Zm-3.8,0a.14.14,0,0,1,0,.09.16.16,0,0,1-.09.07.54.54,0,0,1-.18,0h-.78a.42.42,0,0,1-.14-.06l-.09-.11-2.56-3.36v3.37a.14.14,0,0,1,0,.09.16.16,0,0,1-.08.06h-.9a.16.16,0,0,1-.08-.06.14.14,0,0,1,0-.09v-9a.14.14,0,0,1,0-.09l.08-.07h.9a.19.19,0,0,1,.08.07.14.14,0,0,1,0,.09v5.49L115.73,68a.57.57,0,0,1,.11-.11l.15-.08a.67.67,0,0,1,.2,0h.74a.18.18,0,0,1,.1.07.14.14,0,0,1,0,.09.25.25,0,0,1,0,.17.65.65,0,0,1-.15.18l-2.19,2.21,2.47,3.2a.76.76,0,0,1,.12.19.29.29,0,0,1,0,.13Zm-8.41,0a.14.14,0,0,1,0,.09.15.15,0,0,1-.09.06.48.48,0,0,1-.17,0h-.55a.48.48,0,0,1-.17,0,.24.24,0,0,1-.09-.06.14.14,0,0,1,0-.09V70.54a3,3,0,0,0-.08-.84,1.65,1.65,0,0,0-.23-.55,1,1,0,0,0-.4-.35,1.24,1.24,0,0,0-.57-.12,1.4,1.4,0,0,0-.83.3,4.48,4.48,0,0,0-.87.87V74.1a.14.14,0,0,1,0,.09.15.15,0,0,1-.09.06.48.48,0,0,1-.17,0H104a.54.54,0,0,1-.18,0,.24.24,0,0,1-.09-.06V67.93a.27.27,0,0,1,.08-.07.43.43,0,0,1,.16,0h.65l.08.07a.14.14,0,0,1,0,.09v.81a3.71,3.71,0,0,1,1-.85,2.2,2.2,0,0,1,1-.27,2.14,2.14,0,0,1,1,.21,1.89,1.89,0,0,1,.67.55,2,2,0,0,1,.36.81,4.6,4.6,0,0,1,.11,1.11Zm-8.53-8.13a.7.7,0,0,1-.15.54.82.82,0,0,1-.55.14.8.8,0,0,1-.54-.14,1,1,0,0,1,0-1.06.83.83,0,0,1,.55-.14.8.8,0,0,1,.54.14.75.75,0,0,1,.14.52Zm-.12,8.13a.14.14,0,0,1,0,.09.15.15,0,0,1-.09.06.48.48,0,0,1-.17,0h-.55a.48.48,0,0,1-.17,0,.24.24,0,0,1-.09-.06.14.14,0,0,1,0-.09V68a.14.14,0,0,1,0-.09l.09-.07a.48.48,0,0,1,.17,0H100a.48.48,0,0,1,.17,0,.22.22,0,0,1,.09.07.14.14,0,0,1,0,.09Zm-3.69-.3a.81.81,0,0,1,0,.22.43.43,0,0,1,0,.16.39.39,0,0,1-.08.1.17.17,0,0,1-.1,0H92.46a.46.46,0,0,1-.29-.1.46.46,0,0,1-.14-.37V65.71a.17.17,0,0,1,0-.1.18.18,0,0,1,.09-.06H93s.08,0,.09.06a.17.17,0,0,1,0,.1v7.55h3.2a.17.17,0,0,1,.1,0l.08.08a.43.43,0,0,1,0,.16.89.89,0,0,1,0,.23Z"/><path id="Fill-2067" class="cls-2" d="M252,69.82a4.17,4.17,0,0,0-.87-.86,1.52,1.52,0,0,0-.88-.29,1.25,1.25,0,0,0-.72.2,1.66,1.66,0,0,0-.48.54,2.73,2.73,0,0,0-.27.74,4.8,4.8,0,0,0-.08.85,5.46,5.46,0,0,0,.07.9,3.52,3.52,0,0,0,.24.78,1.57,1.57,0,0,0,.47.55,1.17,1.17,0,0,0,.72.21,1.54,1.54,0,0,0,.43-.06,1.65,1.65,0,0,0,.42-.21,2,2,0,0,0,.45-.37,4.35,4.35,0,0,0,.5-.55Zm1.12,4.28a.14.14,0,0,1,0,.09.27.27,0,0,1-.08.07h-.78a.08.08,0,0,1-.08-.07.14.14,0,0,1,0-.09v-.81a3.75,3.75,0,0,1-1,.81,2.32,2.32,0,0,1-1.13.29,2.34,2.34,0,0,1-1.13-.26,2.25,2.25,0,0,1-.77-.7,3.29,3.29,0,0,1-.43-1,6.33,6.33,0,0,1-.16-1.3,5.14,5.14,0,0,1,.17-1.41,2.88,2.88,0,0,1,.5-1.08A2.11,2.11,0,0,1,249,68a2.72,2.72,0,0,1,1.12-.24,1.92,1.92,0,0,1,1,.24,3.4,3.4,0,0,1,.87.68V65a.23.23,0,0,1,.1-.07H253a.22.22,0,0,1,.09.07.14.14,0,0,1,0,.09Zm-8.63,0a.14.14,0,0,1,0,.09.16.16,0,0,1-.08.06h-.9a.24.24,0,0,1-.09-.06V65l.09-.07h.9a.19.19,0,0,1,.08.07.14.14,0,0,1,0,.09Zm-3.77-5.68v.24a.43.43,0,0,1,0,.16.06.06,0,0,1-.09.09h-.13l-.17-.06-.22-.06a1.13,1.13,0,0,0-.26,0,1,1,0,0,0-.33.06,1.27,1.27,0,0,0-.34.23,2.46,2.46,0,0,0-.38.41c-.13.17-.27.38-.43.63v4a.14.14,0,0,1,0,.09.16.16,0,0,1-.08.06h-.9a.24.24,0,0,1-.09-.06V67.93a.27.27,0,0,1,.08-.07.43.43,0,0,1,.16,0h.65a.27.27,0,0,1,.08.07.14.14,0,0,1,0,.09v.91a5.39,5.39,0,0,1,.47-.6,4.59,4.59,0,0,1,.41-.36,1.38,1.38,0,0,1,.39-.18,1.32,1.32,0,0,1,.39-.06h.43l.22.06.14.07s0,0,.05.06v.47ZM233,71.06a4.88,4.88,0,0,0-.09-.93,2.21,2.21,0,0,0-.3-.77,1.46,1.46,0,0,0-.57-.53,2,2,0,0,0-.9-.19,1.81,1.81,0,0,0-.85.18,1.53,1.53,0,0,0-.58.49,2.17,2.17,0,0,0-.34.76,4.34,4.34,0,0,0,0,1.94,2.68,2.68,0,0,0,.3.77,1.58,1.58,0,0,0,.57.52,2.11,2.11,0,0,0,1.74,0,1.48,1.48,0,0,0,.59-.49,2,2,0,0,0,.34-.76,3.74,3.74,0,0,0,.11-1Zm1.16-.07a4.25,4.25,0,0,1-.2,1.37,2.8,2.8,0,0,1-.58,1.07,2.65,2.65,0,0,1-1,.71,3.92,3.92,0,0,1-2.66,0,2.38,2.38,0,0,1-.92-.65,2.72,2.72,0,0,1-.55-1,4.6,4.6,0,0,1-.19-1.38,5.33,5.33,0,0,1,.19-1.37,3,3,0,0,1,.59-1.07,2.62,2.62,0,0,1,1-.71,3.56,3.56,0,0,1,1.36-.25,3.36,3.36,0,0,1,1.3.23,2.34,2.34,0,0,1,.93.65,2.61,2.61,0,0,1,.56,1,4.57,4.57,0,0,1,.18,1.37Zm-10.25,3a.28.28,0,0,1-.08.15.38.38,0,0,1-.15.09h-1.17a.42.42,0,0,1-.14-.09,1,1,0,0,1-.07-.15l-1.83-6.6h0L218.73,74a.3.3,0,0,1-.07.15.3.3,0,0,1-.13.09h-1.2a.42.42,0,0,1-.14-.09.26.26,0,0,1-.07-.15l-2.32-8.06a1,1,0,0,1,0-.24.15.15,0,0,1,0-.14.43.43,0,0,1,.18-.06h.87a.1.1,0,0,1,.08.07.24.24,0,0,1,0,.12L218,73h0l1.86-7.3a.19.19,0,0,1,0-.13.39.39,0,0,1,.1-.08h1a.2.2,0,0,1,.1.08.29.29,0,0,1,0,.13l2,7.3h0l1.92-7.31v-.12a.2.2,0,0,1,.08-.08H226a.27.27,0,0,1,.17.06.15.15,0,0,1,.05.14,1,1,0,0,1,0,.24Zm-15.81-3.55a2.07,2.07,0,0,0-.39-1.38,1.52,1.52,0,0,0-1.22-.49,1.63,1.63,0,0,0-.72.15,1.6,1.6,0,0,0-.52.41,2.19,2.19,0,0,0-.33.6,3.42,3.42,0,0,0-.13.71Zm1.12.33a.49.49,0,0,1-.14.38.46.46,0,0,1-.3.11h-4a4.61,4.61,0,0,0,.1.91,1.83,1.83,0,0,0,.34.7,1.5,1.5,0,0,0,.62.44,2.26,2.26,0,0,0,.92.16,4,4,0,0,0,1.36-.23,1,1,0,0,0,.4-.15.75.75,0,0,1,.24-.08.14.14,0,0,1,.09,0,.12.12,0,0,1,0,.07.15.15,0,0,1,0,.13.67.67,0,0,1,0,.2v.36l-.06.08-.22.12a3.38,3.38,0,0,1-.48.16,5,5,0,0,1-.67.14,4.36,4.36,0,0,1-.81.07,3.67,3.67,0,0,1-1.31-.21,2.45,2.45,0,0,1-.94-.62,2.79,2.79,0,0,1-.58-1,5.08,5.08,0,0,1-.2-1.45,4.82,4.82,0,0,1,.21-1.41,2.79,2.79,0,0,1,.58-1,2.33,2.33,0,0,1,.92-.67,3,3,0,0,1,1.21-.24,2.79,2.79,0,0,1,1.21.24,2.19,2.19,0,0,1,.83.61,2.47,2.47,0,0,1,.47.91,3.84,3.84,0,0,1,.16,1.12Z"/><path id="Fill-2069" class="cls-3" d="M42,11.14A34.86,34.86,0,1,1,7.15,46h0A34.86,34.86,0,0,1,42,11.14"/><path id="Stroke-2071" class="cls-4" d="M42,11.14A34.86,34.86,0,1,1,7.15,46h0A34.86,34.86,0,0,1,42,11.14Z"/><polygon id="Fill-2073" class="cls-5" points="30.18 45.49 45.24 29.93 40.49 25.29 66.96 23.67 58.37 48.22 55.04 42.76 38.67 55.59 30.18 45.49"/><polygon id="Stroke-2079" class="cls-6" points="22.41 53.07 28.26 60.55 23.52 64.99 25.03 66.81 15.94 66.2 16.44 55.9 18.06 58.32 22.41 53.07"/><polygon id="Stroke-2083" class="cls-7" points="37.26 57.62 30.89 61.56 43.92 72.06 40.49 72.37 55.54 76.41 53.62 68.43 49.98 68.93 37.26 57.62"/><polygon id="Stroke-2087" class="cls-7" points="22.61 50.54 27.66 44.89 20.39 30.24 22.81 27.91 16.14 24.98 15.43 37.21 16.55 35.9 22.61 50.54"/><polygon id="Stroke-2075" class="cls-6" points="30.18 45.49 45.24 29.93 40.49 25.29 66.96 23.67 58.37 48.22 55.04 42.76 38.67 55.59 30.18 45.49"/><polygon id="Fill-2077" class="cls-5" points="22.41 53.07 28.26 60.55 23.52 64.99 25.03 66.81 15.94 66.2 16.44 55.9 18.06 58.32 22.41 53.07"/><polygon id="Fill-2081" class="cls-1" points="37.26 57.62 30.89 61.56 43.92 72.06 40.49 72.37 55.54 76.41 53.62 68.43 49.98 68.93 37.26 57.62"/><polygon id="Fill-2085" class="cls-1" points="22.61 50.54 27.66 44.89 20.39 30.24 22.81 27.91 16.14 24.98 15.43 37.21 16.55 35.9 22.61 50.54"/></svg>