<?xml version="1.0" encoding="UTF-8" standalone="no"?>
<svg
   xmlns:dc="http://purl.org/dc/elements/1.1/"
   xmlns:cc="http://creativecommons.org/ns#"
   xmlns:rdf="http://www.w3.org/1999/02/22-rdf-syntax-ns#"
   xmlns:svg="http://www.w3.org/2000/svg"
   xmlns="http://www.w3.org/2000/svg"
   xmlns:sodipodi="http://sodipodi.sourceforge.net/DTD/sodipodi-0.dtd"
   xmlns:inkscape="http://www.inkscape.org/namespaces/inkscape"
   version="1.1"
   id="svg2"
   xml:space="preserve"
   width="710.20001"
   height="108"
   viewBox="0 0 710.20001 108"
   sodipodi:docname="Simplenight_Logo_Horiz_Vector.eps"><metadata
     id="metadata8"><rdf:RDF><cc:Work
         rdf:about=""><dc:format>image/svg+xml</dc:format><dc:type
           rdf:resource="http://purl.org/dc/dcmitype/StillImage" /></cc:Work></rdf:RDF></metadata><defs
     id="defs6" /><sodipodi:namedview
     pagecolor="#ffffff"
     bordercolor="#666666"
     borderopacity="1"
     objecttolerance="10"
     gridtolerance="10"
     guidetolerance="10"
     inkscape:pageopacity="0"
     inkscape:pageshadow="2"
     inkscape:window-width="640"
     inkscape:window-height="480"
     id="namedview4" /><g
     id="g10"
     inkscape:groupmode="layer"
     inkscape:label="ink_ext_XXXXXX"
     transform="matrix(1.3333333,0,0,-1.3333333,0,108)"><g
       id="g12"
       transform="scale(0.1)"><path
         d="m 200.16,279.293 37.324,44.395 c 33.817,-29.27 67.618,-45.918 111.528,-45.918 38.336,0 62.554,17.656 62.554,44.414 v 0.996 c 0,25.234 -14.136,38.847 -79.718,53.984 -75.18,18.168 -117.567,40.375 -117.567,105.465 v 1 c 0,60.547 50.449,102.437 120.59,102.437 51.469,0 92.324,-15.656 128.145,-44.41 l -33.297,-46.922 c -31.778,23.711 -63.567,36.325 -95.864,36.325 -36.32,0 -57.507,-18.661 -57.507,-41.887 v -0.992 c 0,-27.242 16.125,-39.352 83.761,-55.508 74.676,-18.176 113.512,-44.914 113.512,-103.438 v -1.015 c 0,-66.094 -51.969,-105.449 -126.125,-105.449 -53.996,0 -104.961,18.66 -147.336,56.523"
         style="fill:#100f0d;fill-opacity:1;fill-rule:nonzero;stroke:none"
         id="path14" /><path
         d="M 67.3477,404.258 C 67.0898,552.629 187.637,673.57 335.988,673.832 h 0.34 l 0.004,-0.019 -0.129,67.363 v 0.027 c -0.121,-0.027 -0.238,-0.027 -0.34,-0.027 0,0 -0.031,0.027 -0.07,0 l 0.012,68.816 -41.215,-71.676 C 128.539,717.582 -0.3125,575.637 0,404.121 0.292969,232.379 129.953,90.7383 296.387,70.8438 L 250.5,149.906 C 144.363,185.836 67.5508,286.098 67.3477,404.258"
         style="fill:#100f0d;fill-opacity:1;fill-rule:nonzero;stroke:none"
         id="path16" /><path
         d="M 672.973,405.297 C 672.664,576.469 543.781,717.719 378.105,738.34 l 46.692,-79.703 C 529.699,622.004 605.391,522.434 605.609,405.176 605.852,256.879 485.508,136.07 337.266,135.602 l 0.05,-27.844 c -0.152,0 -0.336,-0.047 -0.488,-0.047 L 337.109,0.00390625 377.988,71.0508 C 544.223,91.6367 673.27,233.637 672.973,405.297"
         style="fill:#100f0d;fill-opacity:1;fill-rule:nonzero;stroke:none"
         id="path18" /><path
         d="m 980.102,281.684 36.408,43.781 c 32.97,-28.879 65.94,-45.285 108.77,-45.285 37.43,0 61.04,17.461 61.04,43.722 v 1.024 c 0,24.875 -13.79,38.273 -77.79,53.242 -73.32,17.918 -114.671,39.781 -114.671,103.895 v 1.046 c 0,59.629 49.211,100.883 117.661,100.883 50.13,0 90.04,-15.445 125,-43.781 L 1204,494.016 c -30.99,23.367 -62.01,35.832 -93.48,35.832 -35.44,0 -56.13,-18.493 -56.13,-41.313 v -0.996 c 0,-26.832 15.75,-38.754 81.7,-54.687 72.84,-17.914 110.79,-44.262 110.79,-101.93 v -0.996 C 1246.88,264.82 1196.14,226 1123.77,226 c -52.6,0 -102.29,18.457 -143.668,55.684"
         style="fill:#100f0d;fill-opacity:1;fill-rule:nonzero;stroke:none"
         id="path20" /><path
         d="m 1411.9,579.039 h 60.53 V 231.012 h -60.53 v 348.027"
         style="fill:#100f0d;fill-opacity:1;fill-rule:nonzero;stroke:none"
         id="path22" /><path
         d="m 1655.27,579.039 h 64.53 l 104.76,-164.605 104.86,164.605 h 64.47 V 230.98 h -60.55 V 480.566 L 1824.56,316.449 h -1.95 L 1714.86,479.57 V 230.98 h -59.59 v 348.059"
         style="fill:#100f0d;fill-opacity:1;fill-rule:nonzero;stroke:none"
         id="path24" /><path
         d="m 2307.35,398.027 c 45.8,0 74.35,25.871 74.35,62.153 v 1.054 c 0,40.743 -29.03,62.157 -74.35,62.157 h -70.34 V 398.027 Z m -130.87,181.012 h 135.81 c 80.25,0 130.9,-46.223 130.9,-116.359 v -0.996 c 0,-78.086 -62,-118.856 -137.77,-118.856 h -68.41 V 231.02 h -60.53 v 348.019"
         style="fill:#100f0d;fill-opacity:1;fill-rule:nonzero;stroke:none"
         id="path26" /><path
         d="m 2593.89,579.039 h 60.53 V 286.664 h 181.1 V 230.98 h -241.63 v 348.059"
         style="fill:#100f0d;fill-opacity:1;fill-rule:nonzero;stroke:none"
         id="path28" /><path
         d="m 2983.53,579.039 h 255.45 v -54.687 h -194.89 v -90.465 h 172.66 v -54.77 h -172.66 v -93.508 h 197.3 V 230.98 h -257.86 v 348.059"
         style="fill:#100f0d;fill-opacity:1;fill-rule:nonzero;stroke:none"
         id="path30" /><path
         d="m 3406.49,579.039 h 56.06 l 184.57,-240.734 v 240.734 h 59.59 V 230.98 h -50.74 L 3466.02,478.578 V 230.98 h -59.53 v 348.059"
         style="fill:#100f0d;fill-opacity:1;fill-rule:nonzero;stroke:none"
         id="path32" /><path
         d="m 3890.39,579.039 h 60.5 V 231.012 h -60.5 v 348.027"
         style="fill:#100f0d;fill-opacity:1;fill-rule:nonzero;stroke:none"
         id="path34" /><path
         d="m 4117.12,403.984 v 0.996 c 0,97.446 73.78,180.02 177.64,180.02 59.96,0 96.96,-16.926 132.38,-47.25 l -38.4,-46.191 c -26.53,22.855 -52.69,37.25 -96.48,37.25 -63.45,0 -111.66,-56.192 -111.66,-122.743 v -1.086 c 0,-71.578 46.74,-124.281 117.11,-124.281 32.43,0 62,10.449 83.17,26.414 v 65.098 h -88.07 v 53.156 H 4439.4 V 279.223 c -33.95,-29.356 -82.67,-54.227 -143.67,-54.227 -107.75,0 -178.61,77.625 -178.61,178.988"
         style="fill:#100f0d;fill-opacity:1;fill-rule:nonzero;stroke:none"
         id="path36" /><path
         d="m 4613.05,579.039 h 60.53 V 434.34 h 164.41 v 144.699 h 60.41 V 230.98 h -60.41 V 377.672 H 4673.58 V 230.98 h -60.53 v 348.059"
         style="fill:#100f0d;fill-opacity:1;fill-rule:nonzero;stroke:none"
         id="path38" /><path
         d="m 5156.21,522.348 h -109.25 v 56.707 h 279.51 V 522.348 H 5217.22 V 231 h -61.01 v 291.348"
         style="fill:#100f0d;fill-opacity:1;fill-rule:nonzero;stroke:none"
         id="path40" /></g></g></svg>
