<svg xmlns:dc="http://purl.org/dc/elements/1.1/" xmlns:cc="http://creativecommons.org/ns#" xmlns:rdf="http://www.w3.org/1999/02/22-rdf-syntax-ns#" xmlns:svg="http://www.w3.org/2000/svg" xmlns="http://www.w3.org/2000/svg" xmlns:sodipodi="http://sodipodi.sourceforge.net/DTD/sodipodi-0.dtd" xmlns:inkscape="http://www.inkscape.org/namespaces/inkscape" version="1.1" xml:space="preserve" width="710.20001" height="108" sodipodi:docname="Simplenight_Logo_Horiz_Vector.eps" style=""><rect id="backgroundrect" width="100%" height="100%" x="0" y="0" fill="none" stroke="none"/><metadata id="metadata8"><rdf:RDF><cc:Work rdf:about=""><dc:format>image/svg+xml</dc:format><dc:type rdf:resource="http://purl.org/dc/dcmitype/StillImage"/></cc:Work></rdf:RDF></metadata><defs id="defs6"/><sodipodi:namedview pagecolor="#ffffff" bordercolor="#666666" borderopacity="1" objecttolerance="10" gridtolerance="10" guidetolerance="10" inkscape:pageopacity="0" inkscape:pageshadow="2" inkscape:window-width="640" inkscape:window-height="480" id="namedview4"/><g class="currentLayer" style=""><title>Layer 1</title><g id="g10" inkscape:groupmode="layer" inkscape:label="ink_ext_XXXXXX" class="selected" fill="#ffffff" fill-opacity="1"><g id="g12" stroke-width="0" fill="#ffffff" fill-opacity="1"><path d="m26.687999730482183,70.76093370940467 l4.976533283076124,-5.919333273554939 c4.5089332877983415,3.902666627254264 9.015733242284893,6.122399938170868 14.870399849826224,6.122399938170868 c5.111466615046787,0 8.340533249103629,-2.3541333095593195 8.340533249103629,-5.921866606862689 v-0.13279999865887418 c0,-3.364533299355453 -1.884799980965708,-5.179599947692053 -10.629066559325434,-7.19786659397657 c-10.023999898769238,-2.422399975536572 -15.675599841694638,-5.383333278967917 -15.675599841694638,-14.061999857990125 v-0.13333333198682146 c0,-8.072933251806079 6.726533265403155,-13.65826652873403 16.0786665042908,-13.65826652873403 c6.862533264029714,0 12.309866542351305,2.087466645585677 17.085999827451236,5.92133327353474 l-4.4395999551651935,6.256266603485636 c-4.237066623877212,-3.1614666347395235 -8.47559991440628,-4.8433332844212895 -12.781866537584653,-4.8433332844212895 c-4.842666617761355,0 -7.667599922566141,2.4881333082060753 -7.667599922566141,5.584933276931991 v0.13226666533092687 c0,3.6322666299849904 2.149999978287496,5.246933280345398 11.168133220548151,7.401066591924486 c9.95679989944788,2.4234666421924667 15.134933180488078,5.988533272856099 15.134933180488078,13.791733194052838 v0.13533333196662375 c0,8.812533244336977 -6.929199930023125,14.059866524678336 -16.816666496837858,14.059866524678336 c-7.199466593960412,0 -13.994799858668767,-2.4879999748740884 -19.64479980161033,-7.53639992389111 " style="fill-rule: nonzero; stroke: none;" id="path14" stroke-width="0" fill="#ffffff" fill-opacity="1"/><path d="M8.979693242648857,54.098933877671534 C8.945306576329454,34.31613407745485 25.01826641401122,18.19066757363666 44.79839954758817,18.15573424065613 h0.04533333287551931 l0.000533333327947286,0.002533333307749608 l-0.01719999982629997,-8.981733242628254 v-0.00359999996364418 c-0.016133333170405398,0.00359999996364418 -0.03173333301286351,0.00359999996364418 -0.04533333287551931,0.00359999996364418 c0,0 -0.004133333291591466,-0.00359999996364418 -0.009333333239077504,0 l0.0015999999838418578,-9.175466574005105 l-5.495333277836846,9.556799903487414 C17.138533160254042,12.322400966232692 -0.041666666245881716,31.24840077510207 0,54.117200544153725 C0.0390625329388471,77.01613364623442 17.32706649168341,95.9015601221802 39.51826626757805,98.55416009539202 L33.399999662698775,88.01253353518354 C19.248399805613506,83.22186691689704 9.006773242375377,69.85360038523436 8.979693242648857,54.098933877671534 " style="fill-rule: nonzero; stroke: none;" id="path16" stroke-width="0" fill="#ffffff" fill-opacity="1"/><path d="M89.72973242716719,53.96040054573722 C89.68853242758327,31.13746744288902 72.50413260112575,12.304134299750487 50.41399949087713,9.554667660850242 l6.225599937128668,10.62706655934563 C70.62653262008733,25.066134170869105 80.71879918483383,38.34213403679692 80.74786585120697,53.97653387890763 C80.78026585087974,73.74946701255729 64.7343993462577,89.85733351655321 44.96879954586733,89.91973351592304 l0.006666666599341074,3.7125332958410566 c-0.020266666461996864,0 -0.04479999954757202,0.006266666603380609 -0.06506666600956888,0.006266666603380609 L44.94786621274539,107.99947916667193 L50.39839949103467,98.52656009567075 C72.56306593386392,95.78177345672324 89.76933242676728,76.848400314595 89.72973242716719,53.96040054573722 " style="fill-rule: nonzero; stroke: none;" id="path18" stroke-width="0" fill="#ffffff" fill-opacity="1"/><path d="m130.6802653469477,70.44213371262418 l4.8543999509761955,-5.83746660771503 c4.395999955605503,3.850533294447417 8.791999911211006,6.0379999390232095 14.502666520206569,6.0379999390232095 c4.9906666162667275,0 8.138666584475581,-2.3281333098218893 8.138666584475581,-5.829599941127808 v-0.13653333195450518 c0,-3.3166666331721837 -1.8386666480982679,-5.103066615131618 -10.371999895254842,-7.0989332616423475 c-9.775999901273748,-2.389066642539867 -15.289466512260804,-5.304133279767744 -15.289466512260804,-13.852666526770815 v-0.13946666525821524 c0,-7.950533253042177 6.56146660040347,-13.451066530826509 15.688133174901399,-13.451066530826509 c6.68399993249936,0 12.005333212093404,2.0593333125364572 16.666666498352683,5.83746660771503 L160.53333171213305,42.131200665198406 c-4.131999958271597,-3.115599968536057 -8.267999916502799,-4.777599951751786 -12.46399987412807,-4.777599951751786 c-4.725333285612952,0 -7.483999924420289,2.465733308432289 -7.483999924420289,5.508399944371555 v0.13279999865887418 c0,3.5775999638703935 2.099999978792438,5.167199947817278 10.893333223323314,7.291599926363305 c9.711999901920075,2.38853330921192 14.77199985081995,5.901599940400692 14.77199985081995,13.590666529416712 v0.13279999865887418 C166.25066498772796,72.69066702324994 159.48533172271664,77.86666697097834 149.83599848683033,77.86666697097834 c-7.0133332625068086,0 -13.638666528931967,-2.460933308480764 -19.155733139882667,-7.424533258354166 " style="fill-rule: nonzero; stroke: none;" id="path20" stroke-width="0" fill="#ffffff" fill-opacity="1"/><path d="m188.25333143219322,30.794800779682888 h8.070666585162304 V77.1984003110604 h-8.070666585162304 v-46.40359953137751 " style="fill-rule: nonzero; stroke: none;" id="path22" stroke-width="0" fill="#ffffff" fill-opacity="1"/><path d="m220.70266443782594,30.794800779682888 h8.60399991310959 l13.967999858939416,21.947333111690746 l13.981333192138099,-21.947333111690746 h8.59599991319038 V77.20266697768398 h-8.073333251802039 V43.92453398042116 L243.27466420987494,65.80680042610234 h-0.25999999737430185 L228.64799769092062,44.057333979080035 V77.20266697768398 h-7.945333253094691 v-46.407866198001095 " style="fill-rule: nonzero; stroke: none;" id="path24" stroke-width="0" fill="#ffffff" fill-opacity="1"/><path d="m307.6466635597925,54.92973386928142 c6.106666604996422,0 9.913333233220175,-3.449466631831058 9.913333233220175,-8.287066582976914 v-0.14053333191410983 c0,-5.432399945139067 -3.870666627577427,-8.287599916304861 -9.913333233220175,-8.287599916304861 h-9.378666571953021 V54.92973386928142 zm-17.449333157115326,-24.134933089598526 h18.10799981713022 c10.699999891942422,0 17.45333315707493,6.163066604426848 17.45333315707493,15.514533176654558 v0.13279999865887418 c0,10.411466561522941 -8.26666658318293,15.84746650662565 -18.369333147824392,15.84746650662565 h-9.121333241218455 V77.19733364440451 h-8.070666585162304 v-46.402532864721614 " style="fill-rule: nonzero; stroke: none;" id="path26" stroke-width="0" fill="#ffffff" fill-opacity="1"/><path d="m345.8519965072963,30.794800779682888 h8.070666585162304 V69.77813371932982 h24.146666422813365 V77.20266697768398 h-32.21733300797567 v-46.407866198001095 " style="fill-rule: nonzero; stroke: none;" id="path28" stroke-width="0" fill="#ffffff" fill-opacity="1"/><path d="m397.8039959826414,30.794800779682888 h34.05999965603354 v7.291599926363305 h-25.985333070911633 v12.061999878187804 h23.021333100844593 v7.302666592918212 h-23.021333100844593 v12.4677332074237 h26.306666400999877 V77.20266697768398 h-34.381332986121784 v-46.407866198001095 " style="fill-rule: nonzero; stroke: none;" id="path30" stroke-width="0" fill="#ffffff" fill-opacity="1"/><path d="m454.1986620797874,30.794800779682888 h7.474666591181212 l24.609333084807634,32.09786634251548 v-32.09786634251548 h7.945333253094691 V77.20266697768398 h-6.765333265011321 L462.1359953329629,44.189600644410966 V77.20266697768398 h-7.937333253175481 v-46.407866198001095 " style="fill-rule: nonzero; stroke: none;" id="path32" stroke-width="0" fill="#ffffff" fill-opacity="1"/><path d="m518.7186614282103,30.794800779682888 h8.066666585202698 V77.1984003110604 h-8.066666585202698 v-46.40359953137751 " style="fill-rule: nonzero; stroke: none;" id="path34" stroke-width="0" fill="#ffffff" fill-opacity="1"/><path d="m548.9493277895823,54.13546721063592 v-0.13279999865887418 c0,-12.992799868787804 9.837333233987687,-24.0026664242676 23.68533309413896,-24.0026664242676 c7.9946665859298145,0 12.927999869442207,2.25679997720894 17.650666488415425,6.299999936377314 l-5.119999948293944,6.15879993780327 c-3.5373332976103735,-3.0473333025588043 -7.025333262385622,-4.966666616509099 -12.863999870088534,-4.966666616509099 c-8.459999914563822,0 -14.887999849648484,7.492266591003471 -14.887999849648484,16.365733168058426 v0.1447999985376881 c0,9.543733236952706 6.231999937064035,16.57079983265416 15.614666508976661,16.57079983265416 c4.32399995633262,0 8.26666658318293,-1.3931999859302975 11.08933322134394,-3.5218666310999023 v-8.679733245678102 h-11.742666548079365 v-7.087466595091481 H591.9199940222951 V70.77026704264375 c-4.5266666209525885,3.914133293805131 -11.022666555350531,7.230266593649366 -19.15599980654664,7.230266593649366 c-14.366666521580012,0 -23.814666426166184,-10.349999895477016 -23.814666426166184,-23.865066425657197 " style="fill-rule: nonzero; stroke: none;" id="path36" stroke-width="0" fill="#ffffff" fill-opacity="1"/><path d="m615.0733271218068,30.794800779682888 h8.070666585162304 V50.088000584843975 h21.921333111953317 v-19.29319980516108 h8.054666585323885 V77.20266697768398 h-8.054666585323885 V57.643733841873164 H623.143993706969 V77.20266697768398 h-8.070666585162304 v-46.407866198001095 " style="fill-rule: nonzero; stroke: none;" id="path38" stroke-width="0" fill="#ffffff" fill-opacity="1"/><path d="m687.4946597237687,38.353600703347794 h-14.566666519560243 v-7.560933256976685 h37.26799962363646 V38.353600703347794 H695.6293263082847 V77.20000031104425 h-8.134666584515976 v-38.84639960769646 " style="fill-rule: nonzero; stroke: none;" id="path40" stroke-width="0" fill="#ffffff" fill-opacity="1"/></g></g></g></svg>